<?xml version="1.0" encoding="utf-8" standalone="no"?>
<!DOCTYPE svg PUBLIC "-//W3C//DTD SVG 1.1//EN"
  "http://www.w3.org/Graphics/SVG/1.1/DTD/svg11.dtd">
<svg xmlns:xlink="http://www.w3.org/1999/xlink" width="864pt" height="576pt" viewBox="0 0 864 576" xmlns="http://www.w3.org/2000/svg" version="1.1">
 <metadata>
  <rdf:RDF xmlns:dc="http://purl.org/dc/elements/1.1/" xmlns:cc="http://creativecommons.org/ns#" xmlns:rdf="http://www.w3.org/1999/02/22-rdf-syntax-ns#">
   <cc:Work>
    <dc:type rdf:resource="http://purl.org/dc/dcmitype/StillImage"/>
    <dc:date>2023-05-12T17:54:01.578061</dc:date>
    <dc:format>image/svg+xml</dc:format>
    <dc:creator>
     <cc:Agent>
      <dc:title>Matplotlib v3.5.1, https://matplotlib.org/</dc:title>
     </cc:Agent>
    </dc:creator>
   </cc:Work>
  </rdf:RDF>
 </metadata>
 <defs>
  <style type="text/css">*{stroke-linejoin: round; stroke-linecap: butt}</style>
 </defs>
 <g id="figure_1">
  <g id="patch_1">
   <path d="M 0 576 
L 864 576 
L 864 0 
L 0 0 
z
" style="fill: #ffffff"/>
  </g>
  <g id="axes_1">
   <g id="patch_2">
    <path d="M 108 504 
L 777.6 504 
L 777.6 69.12 
L 108 69.12 
z
" style="fill: #ffffff"/>
   </g>
   <g id="matplotlib.axis_1">
    <g id="xtick_1">
     <g id="line2d_1">
      <defs>
       <path id="m28a7b4f12d" d="M 0 0 
L 0 12 
" style="stroke: #262626; stroke-width: 2.5"/>
      </defs>
      <g>
       <use xlink:href="#m28a7b4f12d" x="138.436364" y="504" style="fill: #262626; stroke: #262626; stroke-width: 2.5"/>
      </g>
     </g>
     <g id="text_1">
      <!-- 0 -->
      <g style="fill: #262626" transform="translate(131.437614 536.216563)scale(0.22 -0.22)">
       <defs>
        <path id="DejaVuSans-30" d="M 2034 4250 
Q 1547 4250 1301 3770 
Q 1056 3291 1056 2328 
Q 1056 1369 1301 889 
Q 1547 409 2034 409 
Q 2525 409 2770 889 
Q 3016 1369 3016 2328 
Q 3016 3291 2770 3770 
Q 2525 4250 2034 4250 
z
M 2034 4750 
Q 2819 4750 3233 4129 
Q 3647 3509 3647 2328 
Q 3647 1150 3233 529 
Q 2819 -91 2034 -91 
Q 1250 -91 836 529 
Q 422 1150 422 2328 
Q 422 3509 836 4129 
Q 1250 4750 2034 4750 
z
" transform="scale(0.015625)"/>
       </defs>
       <use xlink:href="#DejaVuSans-30"/>
      </g>
     </g>
    </g>
    <g id="xtick_2">
     <g id="line2d_2">
      <g>
       <use xlink:href="#m28a7b4f12d" x="260.181818" y="504" style="fill: #262626; stroke: #262626; stroke-width: 2.5"/>
      </g>
     </g>
     <g id="text_2">
      <!-- 10 -->
      <g style="fill: #262626" transform="translate(246.184318 536.216563)scale(0.22 -0.22)">
       <defs>
        <path id="DejaVuSans-31" d="M 794 531 
L 1825 531 
L 1825 4091 
L 703 3866 
L 703 4441 
L 1819 4666 
L 2450 4666 
L 2450 531 
L 3481 531 
L 3481 0 
L 794 0 
L 794 531 
z
" transform="scale(0.015625)"/>
       </defs>
       <use xlink:href="#DejaVuSans-31"/>
       <use xlink:href="#DejaVuSans-30" x="63.623047"/>
      </g>
     </g>
    </g>
    <g id="xtick_3">
     <g id="line2d_3">
      <g>
       <use xlink:href="#m28a7b4f12d" x="381.927273" y="504" style="fill: #262626; stroke: #262626; stroke-width: 2.5"/>
      </g>
     </g>
     <g id="text_3">
      <!-- 20 -->
      <g style="fill: #262626" transform="translate(367.929773 536.216563)scale(0.22 -0.22)">
       <defs>
        <path id="DejaVuSans-32" d="M 1228 531 
L 3431 531 
L 3431 0 
L 469 0 
L 469 531 
Q 828 903 1448 1529 
Q 2069 2156 2228 2338 
Q 2531 2678 2651 2914 
Q 2772 3150 2772 3378 
Q 2772 3750 2511 3984 
Q 2250 4219 1831 4219 
Q 1534 4219 1204 4116 
Q 875 4013 500 3803 
L 500 4441 
Q 881 4594 1212 4672 
Q 1544 4750 1819 4750 
Q 2544 4750 2975 4387 
Q 3406 4025 3406 3419 
Q 3406 3131 3298 2873 
Q 3191 2616 2906 2266 
Q 2828 2175 2409 1742 
Q 1991 1309 1228 531 
z
" transform="scale(0.015625)"/>
       </defs>
       <use xlink:href="#DejaVuSans-32"/>
       <use xlink:href="#DejaVuSans-30" x="63.623047"/>
      </g>
     </g>
    </g>
    <g id="xtick_4">
     <g id="line2d_4">
      <g>
       <use xlink:href="#m28a7b4f12d" x="503.672727" y="504" style="fill: #262626; stroke: #262626; stroke-width: 2.5"/>
      </g>
     </g>
     <g id="text_4">
      <!-- 30 -->
      <g style="fill: #262626" transform="translate(489.675227 536.216563)scale(0.22 -0.22)">
       <defs>
        <path id="DejaVuSans-33" d="M 2597 2516 
Q 3050 2419 3304 2112 
Q 3559 1806 3559 1356 
Q 3559 666 3084 287 
Q 2609 -91 1734 -91 
Q 1441 -91 1130 -33 
Q 819 25 488 141 
L 488 750 
Q 750 597 1062 519 
Q 1375 441 1716 441 
Q 2309 441 2620 675 
Q 2931 909 2931 1356 
Q 2931 1769 2642 2001 
Q 2353 2234 1838 2234 
L 1294 2234 
L 1294 2753 
L 1863 2753 
Q 2328 2753 2575 2939 
Q 2822 3125 2822 3475 
Q 2822 3834 2567 4026 
Q 2313 4219 1838 4219 
Q 1578 4219 1281 4162 
Q 984 4106 628 3988 
L 628 4550 
Q 988 4650 1302 4700 
Q 1616 4750 1894 4750 
Q 2613 4750 3031 4423 
Q 3450 4097 3450 3541 
Q 3450 3153 3228 2886 
Q 3006 2619 2597 2516 
z
" transform="scale(0.015625)"/>
       </defs>
       <use xlink:href="#DejaVuSans-33"/>
       <use xlink:href="#DejaVuSans-30" x="63.623047"/>
      </g>
     </g>
    </g>
    <g id="xtick_5">
     <g id="line2d_5">
      <g>
       <use xlink:href="#m28a7b4f12d" x="625.418182" y="504" style="fill: #262626; stroke: #262626; stroke-width: 2.5"/>
      </g>
     </g>
     <g id="text_5">
      <!-- 40 -->
      <g style="fill: #262626" transform="translate(611.420682 536.216563)scale(0.22 -0.22)">
       <defs>
        <path id="DejaVuSans-34" d="M 2419 4116 
L 825 1625 
L 2419 1625 
L 2419 4116 
z
M 2253 4666 
L 3047 4666 
L 3047 1625 
L 3713 1625 
L 3713 1100 
L 3047 1100 
L 3047 0 
L 2419 0 
L 2419 1100 
L 313 1100 
L 313 1709 
L 2253 4666 
z
" transform="scale(0.015625)"/>
       </defs>
       <use xlink:href="#DejaVuSans-34"/>
       <use xlink:href="#DejaVuSans-30" x="63.623047"/>
      </g>
     </g>
    </g>
    <g id="xtick_6">
     <g id="line2d_6">
      <g>
       <use xlink:href="#m28a7b4f12d" x="747.163636" y="504" style="fill: #262626; stroke: #262626; stroke-width: 2.5"/>
      </g>
     </g>
     <g id="text_6">
      <!-- 50 -->
      <g style="fill: #262626" transform="translate(733.166136 536.216563)scale(0.22 -0.22)">
       <defs>
        <path id="DejaVuSans-35" d="M 691 4666 
L 3169 4666 
L 3169 4134 
L 1269 4134 
L 1269 2991 
Q 1406 3038 1543 3061 
Q 1681 3084 1819 3084 
Q 2600 3084 3056 2656 
Q 3513 2228 3513 1497 
Q 3513 744 3044 326 
Q 2575 -91 1722 -91 
Q 1428 -91 1123 -41 
Q 819 9 494 109 
L 494 744 
Q 775 591 1075 516 
Q 1375 441 1709 441 
Q 2250 441 2565 725 
Q 2881 1009 2881 1497 
Q 2881 1984 2565 2268 
Q 2250 2553 1709 2553 
Q 1456 2553 1204 2497 
Q 953 2441 691 2322 
L 691 4666 
z
" transform="scale(0.015625)"/>
       </defs>
       <use xlink:href="#DejaVuSans-35"/>
       <use xlink:href="#DejaVuSans-30" x="63.623047"/>
      </g>
     </g>
    </g>
    <g id="text_7">
     <!-- steps -->
     <g style="fill: #262626" transform="translate(410.59125 563.028125)scale(0.24 -0.24)">
      <defs>
       <path id="DejaVuSans-73" d="M 2834 3397 
L 2834 2853 
Q 2591 2978 2328 3040 
Q 2066 3103 1784 3103 
Q 1356 3103 1142 2972 
Q 928 2841 928 2578 
Q 928 2378 1081 2264 
Q 1234 2150 1697 2047 
L 1894 2003 
Q 2506 1872 2764 1633 
Q 3022 1394 3022 966 
Q 3022 478 2636 193 
Q 2250 -91 1575 -91 
Q 1294 -91 989 -36 
Q 684 19 347 128 
L 347 722 
Q 666 556 975 473 
Q 1284 391 1588 391 
Q 1994 391 2212 530 
Q 2431 669 2431 922 
Q 2431 1156 2273 1281 
Q 2116 1406 1581 1522 
L 1381 1569 
Q 847 1681 609 1914 
Q 372 2147 372 2553 
Q 372 3047 722 3315 
Q 1072 3584 1716 3584 
Q 2034 3584 2315 3537 
Q 2597 3491 2834 3397 
z
" transform="scale(0.015625)"/>
       <path id="DejaVuSans-74" d="M 1172 4494 
L 1172 3500 
L 2356 3500 
L 2356 3053 
L 1172 3053 
L 1172 1153 
Q 1172 725 1289 603 
Q 1406 481 1766 481 
L 2356 481 
L 2356 0 
L 1766 0 
Q 1100 0 847 248 
Q 594 497 594 1153 
L 594 3053 
L 172 3053 
L 172 3500 
L 594 3500 
L 594 4494 
L 1172 4494 
z
" transform="scale(0.015625)"/>
       <path id="DejaVuSans-65" d="M 3597 1894 
L 3597 1613 
L 953 1613 
Q 991 1019 1311 708 
Q 1631 397 2203 397 
Q 2534 397 2845 478 
Q 3156 559 3463 722 
L 3463 178 
Q 3153 47 2828 -22 
Q 2503 -91 2169 -91 
Q 1331 -91 842 396 
Q 353 884 353 1716 
Q 353 2575 817 3079 
Q 1281 3584 2069 3584 
Q 2775 3584 3186 3129 
Q 3597 2675 3597 1894 
z
M 3022 2063 
Q 3016 2534 2758 2815 
Q 2500 3097 2075 3097 
Q 1594 3097 1305 2825 
Q 1016 2553 972 2059 
L 3022 2063 
z
" transform="scale(0.015625)"/>
       <path id="DejaVuSans-70" d="M 1159 525 
L 1159 -1331 
L 581 -1331 
L 581 3500 
L 1159 3500 
L 1159 2969 
Q 1341 3281 1617 3432 
Q 1894 3584 2278 3584 
Q 2916 3584 3314 3078 
Q 3713 2572 3713 1747 
Q 3713 922 3314 415 
Q 2916 -91 2278 -91 
Q 1894 -91 1617 61 
Q 1341 213 1159 525 
z
M 3116 1747 
Q 3116 2381 2855 2742 
Q 2594 3103 2138 3103 
Q 1681 3103 1420 2742 
Q 1159 2381 1159 1747 
Q 1159 1113 1420 752 
Q 1681 391 2138 391 
Q 2594 391 2855 752 
Q 3116 1113 3116 1747 
z
" transform="scale(0.015625)"/>
      </defs>
      <use xlink:href="#DejaVuSans-73"/>
      <use xlink:href="#DejaVuSans-74" x="52.099609"/>
      <use xlink:href="#DejaVuSans-65" x="91.308594"/>
      <use xlink:href="#DejaVuSans-70" x="152.832031"/>
      <use xlink:href="#DejaVuSans-73" x="216.308594"/>
     </g>
    </g>
   </g>
   <g id="matplotlib.axis_2">
    <g id="ytick_1">
     <g id="line2d_7">
      <defs>
       <path id="m15d5bc8a59" d="M 0 0 
L -12 0 
" style="stroke: #262626; stroke-width: 2.5"/>
      </defs>
      <g>
       <use xlink:href="#m15d5bc8a59" x="108" y="484.232737" style="fill: #262626; stroke: #262626; stroke-width: 2.5"/>
      </g>
     </g>
     <g id="text_8">
      <!-- 0.00 -->
      <g style="fill: #262626" transform="translate(43.515625 492.591019)scale(0.22 -0.22)">
       <defs>
        <path id="DejaVuSans-2e" d="M 684 794 
L 1344 794 
L 1344 0 
L 684 0 
L 684 794 
z
" transform="scale(0.015625)"/>
       </defs>
       <use xlink:href="#DejaVuSans-30"/>
       <use xlink:href="#DejaVuSans-2e" x="63.623047"/>
       <use xlink:href="#DejaVuSans-30" x="95.410156"/>
       <use xlink:href="#DejaVuSans-30" x="159.033203"/>
      </g>
     </g>
    </g>
    <g id="ytick_2">
     <g id="line2d_8">
      <g>
       <use xlink:href="#m15d5bc8a59" x="108" y="432.595779" style="fill: #262626; stroke: #262626; stroke-width: 2.5"/>
      </g>
     </g>
     <g id="text_9">
      <!-- 0.05 -->
      <g style="fill: #262626" transform="translate(43.515625 440.95406)scale(0.22 -0.22)">
       <use xlink:href="#DejaVuSans-30"/>
       <use xlink:href="#DejaVuSans-2e" x="63.623047"/>
       <use xlink:href="#DejaVuSans-30" x="95.410156"/>
       <use xlink:href="#DejaVuSans-35" x="159.033203"/>
      </g>
     </g>
    </g>
    <g id="ytick_3">
     <g id="line2d_9">
      <g>
       <use xlink:href="#m15d5bc8a59" x="108" y="380.95882" style="fill: #262626; stroke: #262626; stroke-width: 2.5"/>
      </g>
     </g>
     <g id="text_10">
      <!-- 0.10 -->
      <g style="fill: #262626" transform="translate(43.515625 389.317101)scale(0.22 -0.22)">
       <use xlink:href="#DejaVuSans-30"/>
       <use xlink:href="#DejaVuSans-2e" x="63.623047"/>
       <use xlink:href="#DejaVuSans-31" x="95.410156"/>
       <use xlink:href="#DejaVuSans-30" x="159.033203"/>
      </g>
     </g>
    </g>
    <g id="ytick_4">
     <g id="line2d_10">
      <g>
       <use xlink:href="#m15d5bc8a59" x="108" y="329.321861" style="fill: #262626; stroke: #262626; stroke-width: 2.5"/>
      </g>
     </g>
     <g id="text_11">
      <!-- 0.15 -->
      <g style="fill: #262626" transform="translate(43.515625 337.680143)scale(0.22 -0.22)">
       <use xlink:href="#DejaVuSans-30"/>
       <use xlink:href="#DejaVuSans-2e" x="63.623047"/>
       <use xlink:href="#DejaVuSans-31" x="95.410156"/>
       <use xlink:href="#DejaVuSans-35" x="159.033203"/>
      </g>
     </g>
    </g>
    <g id="ytick_5">
     <g id="line2d_11">
      <g>
       <use xlink:href="#m15d5bc8a59" x="108" y="277.684903" style="fill: #262626; stroke: #262626; stroke-width: 2.5"/>
      </g>
     </g>
     <g id="text_12">
      <!-- 0.20 -->
      <g style="fill: #262626" transform="translate(43.515625 286.043184)scale(0.22 -0.22)">
       <use xlink:href="#DejaVuSans-30"/>
       <use xlink:href="#DejaVuSans-2e" x="63.623047"/>
       <use xlink:href="#DejaVuSans-32" x="95.410156"/>
       <use xlink:href="#DejaVuSans-30" x="159.033203"/>
      </g>
     </g>
    </g>
    <g id="ytick_6">
     <g id="line2d_12">
      <g>
       <use xlink:href="#m15d5bc8a59" x="108" y="226.047944" style="fill: #262626; stroke: #262626; stroke-width: 2.5"/>
      </g>
     </g>
     <g id="text_13">
      <!-- 0.25 -->
      <g style="fill: #262626" transform="translate(43.515625 234.406225)scale(0.22 -0.22)">
       <use xlink:href="#DejaVuSans-30"/>
       <use xlink:href="#DejaVuSans-2e" x="63.623047"/>
       <use xlink:href="#DejaVuSans-32" x="95.410156"/>
       <use xlink:href="#DejaVuSans-35" x="159.033203"/>
      </g>
     </g>
    </g>
    <g id="ytick_7">
     <g id="line2d_13">
      <g>
       <use xlink:href="#m15d5bc8a59" x="108" y="174.410985" style="fill: #262626; stroke: #262626; stroke-width: 2.5"/>
      </g>
     </g>
     <g id="text_14">
      <!-- 0.30 -->
      <g style="fill: #262626" transform="translate(43.515625 182.769267)scale(0.22 -0.22)">
       <use xlink:href="#DejaVuSans-30"/>
       <use xlink:href="#DejaVuSans-2e" x="63.623047"/>
       <use xlink:href="#DejaVuSans-33" x="95.410156"/>
       <use xlink:href="#DejaVuSans-30" x="159.033203"/>
      </g>
     </g>
    </g>
    <g id="ytick_8">
     <g id="line2d_14">
      <g>
       <use xlink:href="#m15d5bc8a59" x="108" y="122.774027" style="fill: #262626; stroke: #262626; stroke-width: 2.5"/>
      </g>
     </g>
     <g id="text_15">
      <!-- 0.35 -->
      <g style="fill: #262626" transform="translate(43.515625 131.132308)scale(0.22 -0.22)">
       <use xlink:href="#DejaVuSans-30"/>
       <use xlink:href="#DejaVuSans-2e" x="63.623047"/>
       <use xlink:href="#DejaVuSans-33" x="95.410156"/>
       <use xlink:href="#DejaVuSans-35" x="159.033203"/>
      </g>
     </g>
    </g>
    <g id="ytick_9">
     <g id="line2d_15">
      <g>
       <use xlink:href="#m15d5bc8a59" x="108" y="71.137068" style="fill: #262626; stroke: #262626; stroke-width: 2.5"/>
      </g>
     </g>
     <g id="text_16">
      <!-- 0.40 -->
      <g style="fill: #262626" transform="translate(43.515625 79.495349)scale(0.22 -0.22)">
       <use xlink:href="#DejaVuSans-30"/>
       <use xlink:href="#DejaVuSans-2e" x="63.623047"/>
       <use xlink:href="#DejaVuSans-34" x="95.410156"/>
       <use xlink:href="#DejaVuSans-30" x="159.033203"/>
      </g>
     </g>
    </g>
    <g id="text_17">
     <!-- probability of success -->
     <g style="fill: #262626" transform="translate(34.524375 416.715)rotate(-90)scale(0.24 -0.24)">
      <defs>
       <path id="DejaVuSans-72" d="M 2631 2963 
Q 2534 3019 2420 3045 
Q 2306 3072 2169 3072 
Q 1681 3072 1420 2755 
Q 1159 2438 1159 1844 
L 1159 0 
L 581 0 
L 581 3500 
L 1159 3500 
L 1159 2956 
Q 1341 3275 1631 3429 
Q 1922 3584 2338 3584 
Q 2397 3584 2469 3576 
Q 2541 3569 2628 3553 
L 2631 2963 
z
" transform="scale(0.015625)"/>
       <path id="DejaVuSans-6f" d="M 1959 3097 
Q 1497 3097 1228 2736 
Q 959 2375 959 1747 
Q 959 1119 1226 758 
Q 1494 397 1959 397 
Q 2419 397 2687 759 
Q 2956 1122 2956 1747 
Q 2956 2369 2687 2733 
Q 2419 3097 1959 3097 
z
M 1959 3584 
Q 2709 3584 3137 3096 
Q 3566 2609 3566 1747 
Q 3566 888 3137 398 
Q 2709 -91 1959 -91 
Q 1206 -91 779 398 
Q 353 888 353 1747 
Q 353 2609 779 3096 
Q 1206 3584 1959 3584 
z
" transform="scale(0.015625)"/>
       <path id="DejaVuSans-62" d="M 3116 1747 
Q 3116 2381 2855 2742 
Q 2594 3103 2138 3103 
Q 1681 3103 1420 2742 
Q 1159 2381 1159 1747 
Q 1159 1113 1420 752 
Q 1681 391 2138 391 
Q 2594 391 2855 752 
Q 3116 1113 3116 1747 
z
M 1159 2969 
Q 1341 3281 1617 3432 
Q 1894 3584 2278 3584 
Q 2916 3584 3314 3078 
Q 3713 2572 3713 1747 
Q 3713 922 3314 415 
Q 2916 -91 2278 -91 
Q 1894 -91 1617 61 
Q 1341 213 1159 525 
L 1159 0 
L 581 0 
L 581 4863 
L 1159 4863 
L 1159 2969 
z
" transform="scale(0.015625)"/>
       <path id="DejaVuSans-61" d="M 2194 1759 
Q 1497 1759 1228 1600 
Q 959 1441 959 1056 
Q 959 750 1161 570 
Q 1363 391 1709 391 
Q 2188 391 2477 730 
Q 2766 1069 2766 1631 
L 2766 1759 
L 2194 1759 
z
M 3341 1997 
L 3341 0 
L 2766 0 
L 2766 531 
Q 2569 213 2275 61 
Q 1981 -91 1556 -91 
Q 1019 -91 701 211 
Q 384 513 384 1019 
Q 384 1609 779 1909 
Q 1175 2209 1959 2209 
L 2766 2209 
L 2766 2266 
Q 2766 2663 2505 2880 
Q 2244 3097 1772 3097 
Q 1472 3097 1187 3025 
Q 903 2953 641 2809 
L 641 3341 
Q 956 3463 1253 3523 
Q 1550 3584 1831 3584 
Q 2591 3584 2966 3190 
Q 3341 2797 3341 1997 
z
" transform="scale(0.015625)"/>
       <path id="DejaVuSans-69" d="M 603 3500 
L 1178 3500 
L 1178 0 
L 603 0 
L 603 3500 
z
M 603 4863 
L 1178 4863 
L 1178 4134 
L 603 4134 
L 603 4863 
z
" transform="scale(0.015625)"/>
       <path id="DejaVuSans-6c" d="M 603 4863 
L 1178 4863 
L 1178 0 
L 603 0 
L 603 4863 
z
" transform="scale(0.015625)"/>
       <path id="DejaVuSans-79" d="M 2059 -325 
Q 1816 -950 1584 -1140 
Q 1353 -1331 966 -1331 
L 506 -1331 
L 506 -850 
L 844 -850 
Q 1081 -850 1212 -737 
Q 1344 -625 1503 -206 
L 1606 56 
L 191 3500 
L 800 3500 
L 1894 763 
L 2988 3500 
L 3597 3500 
L 2059 -325 
z
" transform="scale(0.015625)"/>
       <path id="DejaVuSans-20" transform="scale(0.015625)"/>
       <path id="DejaVuSans-66" d="M 2375 4863 
L 2375 4384 
L 1825 4384 
Q 1516 4384 1395 4259 
Q 1275 4134 1275 3809 
L 1275 3500 
L 2222 3500 
L 2222 3053 
L 1275 3053 
L 1275 0 
L 697 0 
L 697 3053 
L 147 3053 
L 147 3500 
L 697 3500 
L 697 3744 
Q 697 4328 969 4595 
Q 1241 4863 1831 4863 
L 2375 4863 
z
" transform="scale(0.015625)"/>
       <path id="DejaVuSans-75" d="M 544 1381 
L 544 3500 
L 1119 3500 
L 1119 1403 
Q 1119 906 1312 657 
Q 1506 409 1894 409 
Q 2359 409 2629 706 
Q 2900 1003 2900 1516 
L 2900 3500 
L 3475 3500 
L 3475 0 
L 2900 0 
L 2900 538 
Q 2691 219 2414 64 
Q 2138 -91 1772 -91 
Q 1169 -91 856 284 
Q 544 659 544 1381 
z
M 1991 3584 
L 1991 3584 
z
" transform="scale(0.015625)"/>
       <path id="DejaVuSans-63" d="M 3122 3366 
L 3122 2828 
Q 2878 2963 2633 3030 
Q 2388 3097 2138 3097 
Q 1578 3097 1268 2742 
Q 959 2388 959 1747 
Q 959 1106 1268 751 
Q 1578 397 2138 397 
Q 2388 397 2633 464 
Q 2878 531 3122 666 
L 3122 134 
Q 2881 22 2623 -34 
Q 2366 -91 2075 -91 
Q 1284 -91 818 406 
Q 353 903 353 1747 
Q 353 2603 823 3093 
Q 1294 3584 2113 3584 
Q 2378 3584 2631 3529 
Q 2884 3475 3122 3366 
z
" transform="scale(0.015625)"/>
      </defs>
      <use xlink:href="#DejaVuSans-70"/>
      <use xlink:href="#DejaVuSans-72" x="63.476562"/>
      <use xlink:href="#DejaVuSans-6f" x="102.339844"/>
      <use xlink:href="#DejaVuSans-62" x="163.521484"/>
      <use xlink:href="#DejaVuSans-61" x="226.998047"/>
      <use xlink:href="#DejaVuSans-62" x="288.277344"/>
      <use xlink:href="#DejaVuSans-69" x="351.753906"/>
      <use xlink:href="#DejaVuSans-6c" x="379.537109"/>
      <use xlink:href="#DejaVuSans-69" x="407.320312"/>
      <use xlink:href="#DejaVuSans-74" x="435.103516"/>
      <use xlink:href="#DejaVuSans-79" x="474.3125"/>
      <use xlink:href="#DejaVuSans-20" x="533.492188"/>
      <use xlink:href="#DejaVuSans-6f" x="565.279297"/>
      <use xlink:href="#DejaVuSans-66" x="626.460938"/>
      <use xlink:href="#DejaVuSans-20" x="661.666016"/>
      <use xlink:href="#DejaVuSans-73" x="693.453125"/>
      <use xlink:href="#DejaVuSans-75" x="745.552734"/>
      <use xlink:href="#DejaVuSans-63" x="808.931641"/>
      <use xlink:href="#DejaVuSans-63" x="863.912109"/>
      <use xlink:href="#DejaVuSans-65" x="918.892578"/>
      <use xlink:href="#DejaVuSans-73" x="980.416016"/>
      <use xlink:href="#DejaVuSans-73" x="1032.515625"/>
     </g>
    </g>
   </g>
   <g id="line2d_16">
    <path d="M 138.436364 451.959638 
L 150.610909 451.959638 
L 162.785455 355.140341 
L 174.96 355.140341 
L 187.134545 240.167425 
L 199.309091 240.167425 
L 211.483636 88.887273 
L 223.658182 88.887273 
L 235.832727 181.546366 
L 248.007273 181.546366 
L 260.181818 302.192287 
L 272.356364 302.192287 
L 284.530909 448.863123 
L 296.705455 448.863123 
L 308.88 478.906415 
L 321.054545 478.906415 
L 333.229091 420.765494 
L 345.403636 420.765494 
L 357.578182 204.267936 
L 369.752727 204.267936 
L 381.927273 115.557509 
L 394.101818 115.557509 
L 406.276364 205.380746 
L 418.450909 205.380746 
L 430.625455 231.820176 
L 442.8 231.820176 
L 454.974545 411.381697 
L 467.149091 411.381697 
L 479.323636 484.231147 
L 491.498182 484.231147 
L 503.672727 433.064642 
L 515.847273 433.064642 
L 528.021818 270.267787 
L 540.196364 270.267787 
L 552.370909 192.360786 
L 564.545455 192.360786 
L 576.72 108.887415 
L 588.894545 108.887415 
L 601.069091 191.704362 
L 613.243636 191.704362 
L 625.418182 411.232073 
L 637.592727 411.232073 
L 649.767273 470.736572 
L 661.941818 470.736572 
L 674.116364 463.95079 
L 686.290909 463.95079 
L 698.465455 295.595942 
L 710.64 295.595942 
L 722.814545 205.000561 
L 734.989091 205.000561 
L 747.163636 119.735543 
" clip-path="url(#p425fc3e300)" style="fill: none; stroke-dasharray: 11.1,4.8; stroke-dashoffset: 0; stroke: #4c72b0; stroke-width: 3"/>
    <defs>
     <path id="mb0e9f99683" d="M 0 6 
C 1.591219 6 3.117479 5.367802 4.242641 4.242641 
C 5.367802 3.117479 6 1.591219 6 0 
C 6 -1.591219 5.367802 -3.117479 4.242641 -4.242641 
C 3.117479 -5.367802 1.591219 -6 0 -6 
C -1.591219 -6 -3.117479 -5.367802 -4.242641 -4.242641 
C -5.367802 -3.117479 -6 -1.591219 -6 0 
C -6 1.591219 -5.367802 3.117479 -4.242641 4.242641 
C -3.117479 5.367802 -1.591219 6 0 6 
z
" style="stroke: #4c72b0"/>
    </defs>
    <g clip-path="url(#p425fc3e300)">
     <use xlink:href="#mb0e9f99683" x="138.436364" y="451.959638" style="fill: #4c72b0; stroke: #4c72b0"/>
     <use xlink:href="#mb0e9f99683" x="150.610909" y="451.959638" style="fill: #4c72b0; stroke: #4c72b0"/>
     <use xlink:href="#mb0e9f99683" x="162.785455" y="355.140341" style="fill: #4c72b0; stroke: #4c72b0"/>
     <use xlink:href="#mb0e9f99683" x="174.96" y="355.140341" style="fill: #4c72b0; stroke: #4c72b0"/>
     <use xlink:href="#mb0e9f99683" x="187.134545" y="240.167425" style="fill: #4c72b0; stroke: #4c72b0"/>
     <use xlink:href="#mb0e9f99683" x="199.309091" y="240.167425" style="fill: #4c72b0; stroke: #4c72b0"/>
     <use xlink:href="#mb0e9f99683" x="211.483636" y="88.887273" style="fill: #4c72b0; stroke: #4c72b0"/>
     <use xlink:href="#mb0e9f99683" x="223.658182" y="88.887273" style="fill: #4c72b0; stroke: #4c72b0"/>
     <use xlink:href="#mb0e9f99683" x="235.832727" y="181.546366" style="fill: #4c72b0; stroke: #4c72b0"/>
     <use xlink:href="#mb0e9f99683" x="248.007273" y="181.546366" style="fill: #4c72b0; stroke: #4c72b0"/>
     <use xlink:href="#mb0e9f99683" x="260.181818" y="302.192287" style="fill: #4c72b0; stroke: #4c72b0"/>
     <use xlink:href="#mb0e9f99683" x="272.356364" y="302.192287" style="fill: #4c72b0; stroke: #4c72b0"/>
     <use xlink:href="#mb0e9f99683" x="284.530909" y="448.863123" style="fill: #4c72b0; stroke: #4c72b0"/>
     <use xlink:href="#mb0e9f99683" x="296.705455" y="448.863123" style="fill: #4c72b0; stroke: #4c72b0"/>
     <use xlink:href="#mb0e9f99683" x="308.88" y="478.906415" style="fill: #4c72b0; stroke: #4c72b0"/>
     <use xlink:href="#mb0e9f99683" x="321.054545" y="478.906415" style="fill: #4c72b0; stroke: #4c72b0"/>
     <use xlink:href="#mb0e9f99683" x="333.229091" y="420.765494" style="fill: #4c72b0; stroke: #4c72b0"/>
     <use xlink:href="#mb0e9f99683" x="345.403636" y="420.765494" style="fill: #4c72b0; stroke: #4c72b0"/>
     <use xlink:href="#mb0e9f99683" x="357.578182" y="204.267936" style="fill: #4c72b0; stroke: #4c72b0"/>
     <use xlink:href="#mb0e9f99683" x="369.752727" y="204.267936" style="fill: #4c72b0; stroke: #4c72b0"/>
     <use xlink:href="#mb0e9f99683" x="381.927273" y="115.557509" style="fill: #4c72b0; stroke: #4c72b0"/>
     <use xlink:href="#mb0e9f99683" x="394.101818" y="115.557509" style="fill: #4c72b0; stroke: #4c72b0"/>
     <use xlink:href="#mb0e9f99683" x="406.276364" y="205.380746" style="fill: #4c72b0; stroke: #4c72b0"/>
     <use xlink:href="#mb0e9f99683" x="418.450909" y="205.380746" style="fill: #4c72b0; stroke: #4c72b0"/>
     <use xlink:href="#mb0e9f99683" x="430.625455" y="231.820176" style="fill: #4c72b0; stroke: #4c72b0"/>
     <use xlink:href="#mb0e9f99683" x="442.8" y="231.820176" style="fill: #4c72b0; stroke: #4c72b0"/>
     <use xlink:href="#mb0e9f99683" x="454.974545" y="411.381697" style="fill: #4c72b0; stroke: #4c72b0"/>
     <use xlink:href="#mb0e9f99683" x="467.149091" y="411.381697" style="fill: #4c72b0; stroke: #4c72b0"/>
     <use xlink:href="#mb0e9f99683" x="479.323636" y="484.231147" style="fill: #4c72b0; stroke: #4c72b0"/>
     <use xlink:href="#mb0e9f99683" x="491.498182" y="484.231147" style="fill: #4c72b0; stroke: #4c72b0"/>
     <use xlink:href="#mb0e9f99683" x="503.672727" y="433.064642" style="fill: #4c72b0; stroke: #4c72b0"/>
     <use xlink:href="#mb0e9f99683" x="515.847273" y="433.064642" style="fill: #4c72b0; stroke: #4c72b0"/>
     <use xlink:href="#mb0e9f99683" x="528.021818" y="270.267787" style="fill: #4c72b0; stroke: #4c72b0"/>
     <use xlink:href="#mb0e9f99683" x="540.196364" y="270.267787" style="fill: #4c72b0; stroke: #4c72b0"/>
     <use xlink:href="#mb0e9f99683" x="552.370909" y="192.360786" style="fill: #4c72b0; stroke: #4c72b0"/>
     <use xlink:href="#mb0e9f99683" x="564.545455" y="192.360786" style="fill: #4c72b0; stroke: #4c72b0"/>
     <use xlink:href="#mb0e9f99683" x="576.72" y="108.887415" style="fill: #4c72b0; stroke: #4c72b0"/>
     <use xlink:href="#mb0e9f99683" x="588.894545" y="108.887415" style="fill: #4c72b0; stroke: #4c72b0"/>
     <use xlink:href="#mb0e9f99683" x="601.069091" y="191.704362" style="fill: #4c72b0; stroke: #4c72b0"/>
     <use xlink:href="#mb0e9f99683" x="613.243636" y="191.704362" style="fill: #4c72b0; stroke: #4c72b0"/>
     <use xlink:href="#mb0e9f99683" x="625.418182" y="411.232073" style="fill: #4c72b0; stroke: #4c72b0"/>
     <use xlink:href="#mb0e9f99683" x="637.592727" y="411.232073" style="fill: #4c72b0; stroke: #4c72b0"/>
     <use xlink:href="#mb0e9f99683" x="649.767273" y="470.736572" style="fill: #4c72b0; stroke: #4c72b0"/>
     <use xlink:href="#mb0e9f99683" x="661.941818" y="470.736572" style="fill: #4c72b0; stroke: #4c72b0"/>
     <use xlink:href="#mb0e9f99683" x="674.116364" y="463.95079" style="fill: #4c72b0; stroke: #4c72b0"/>
     <use xlink:href="#mb0e9f99683" x="686.290909" y="463.95079" style="fill: #4c72b0; stroke: #4c72b0"/>
     <use xlink:href="#mb0e9f99683" x="698.465455" y="295.595942" style="fill: #4c72b0; stroke: #4c72b0"/>
     <use xlink:href="#mb0e9f99683" x="710.64" y="295.595942" style="fill: #4c72b0; stroke: #4c72b0"/>
     <use xlink:href="#mb0e9f99683" x="722.814545" y="205.000561" style="fill: #4c72b0; stroke: #4c72b0"/>
     <use xlink:href="#mb0e9f99683" x="734.989091" y="205.000561" style="fill: #4c72b0; stroke: #4c72b0"/>
     <use xlink:href="#mb0e9f99683" x="747.163636" y="119.735543" style="fill: #4c72b0; stroke: #4c72b0"/>
    </g>
   </g>
   <g id="line2d_17">
    <path d="M 138.436364 480.138034 
L 139.655037 478.327933 
L 140.87371 476.193866 
L 142.70172 472.394201 
L 144.52973 467.890651 
L 146.35774 462.70211 
L 148.185749 456.850346 
L 150.013759 450.35991 
L 152.451106 440.759943 
L 154.888452 430.144848 
L 157.325799 418.593776 
L 160.372482 402.97055 
L 163.419165 386.201866 
L 167.075184 364.843233 
L 171.949877 334.859047 
L 187.792629 235.95274 
L 191.448649 215.084564 
L 194.495332 198.826897 
L 197.542015 183.801396 
L 199.979361 172.786291 
L 202.416708 162.754223 
L 204.854054 153.779996 
L 206.682064 147.7841 
L 208.510074 142.446208 
L 210.338084 137.788716 
L 212.166093 133.831163 
L 213.384767 131.589972 
L 214.60344 129.671487 
L 215.822113 128.079285 
L 217.040786 126.816336 
L 218.259459 125.884996 
L 219.478133 125.287 
L 220.696806 125.023466 
L 221.915479 125.094883 
L 223.134152 125.501119 
L 224.352826 126.241417 
L 225.571499 127.314395 
L 226.790172 128.718053 
L 228.008845 130.449772 
L 229.227518 132.506323 
L 230.446192 134.883871 
L 232.274201 139.042199 
L 234.102211 143.895208 
L 235.930221 149.422537 
L 237.758231 155.600996 
L 240.195577 164.806629 
L 242.632924 175.054799 
L 245.07027 186.269091 
L 248.116953 201.517537 
L 251.163636 217.966814 
L 254.819656 239.02044 
L 259.085012 264.947098 
L 265.787715 307.282056 
L 273.099754 353.212618 
L 277.365111 378.697087 
L 281.02113 399.217349 
L 284.067813 415.120006 
L 287.114496 429.735703 
L 289.551843 440.386702 
L 291.989189 450.025356 
L 294.426536 458.579794 
L 296.254545 464.245416 
L 298.082555 469.24134 
L 299.910565 473.546606 
L 301.738575 477.143152 
L 302.957248 479.13954 
L 304.175921 480.81045 
L 305.394595 482.152764 
L 306.613268 483.163979 
L 307.831941 483.84221 
L 309.050614 484.186192 
L 310.269287 484.195282 
L 311.487961 483.869465 
L 312.706634 483.209347 
L 313.925307 482.21616 
L 315.14398 480.891757 
L 316.362654 479.238606 
L 317.581327 477.259792 
L 318.8 474.959005 
L 320.62801 470.913673 
L 322.45602 466.170668 
L 324.284029 460.749887 
L 326.112039 454.674075 
L 328.549386 445.598494 
L 330.986732 435.471705 
L 333.424079 424.36922 
L 336.470762 409.245805 
L 339.517445 392.903845 
L 343.173464 371.953873 
L 347.438821 346.111353 
L 354.141523 303.824519 
L 362.062899 254.093631 
L 366.328256 228.714941 
L 369.984275 208.318689 
L 373.030958 192.54133 
L 376.077641 178.069345 
L 378.514988 167.545456 
L 380.952334 158.043682 
L 382.780344 151.631038 
L 384.608354 145.860258 
L 386.436364 140.755554 
L 388.264373 136.338342 
L 390.092383 132.627155 
L 391.311057 130.553079 
L 392.52973 128.803643 
L 393.748403 127.382108 
L 394.967076 126.291127 
L 396.185749 125.532733 
L 397.404423 125.108342 
L 398.623096 125.018744 
L 399.841769 125.264108 
L 401.060442 125.843974 
L 402.279115 126.757263 
L 403.497789 128.00227 
L 404.716462 129.576673 
L 405.935135 131.477537 
L 407.153808 133.701316 
L 408.981818 137.633215 
L 410.809828 142.265706 
L 412.637838 147.579354 
L 414.465848 153.551865 
L 416.293857 160.158182 
L 418.731204 169.904252 
L 421.16855 180.654847 
L 423.605897 192.329808 
L 426.65258 208.090168 
L 429.699263 224.974807 
L 433.355283 246.44275 
L 438.229975 276.519156 
L 452.854054 368.089365 
L 456.510074 389.266957 
L 459.556757 405.845367 
L 462.60344 421.244837 
L 465.040786 432.594535 
L 467.478133 442.989991 
L 469.915479 452.353689 
L 471.743489 458.657067 
L 473.571499 464.314193 
L 475.399509 469.301332 
L 477.227518 473.597563 
L 479.055528 477.184859 
L 480.274201 479.174981 
L 481.492875 480.839558 
L 482.711548 482.175485 
L 483.930221 483.180272 
L 485.148894 483.852043 
L 486.367568 484.189547 
L 487.586241 484.192153 
L 488.804914 483.859858 
L 490.023587 483.19328 
L 491.24226 482.193663 
L 492.460934 480.862871 
L 493.679607 479.203386 
L 494.89828 477.218303 
L 496.116953 474.911325 
L 497.944963 470.856876 
L 499.772973 466.104992 
L 501.600983 460.675609 
L 503.428993 454.591505 
L 505.866339 445.505413 
L 508.303686 435.368808 
L 510.741032 424.257274 
L 513.787715 409.123729 
L 516.834398 392.773061 
L 520.490418 371.814657 
L 524.755774 345.965257 
L 531.458477 303.674379 
L 539.379853 253.94957 
L 543.645209 228.578892 
L 547.301229 208.191987 
L 550.347912 192.424046 
L 553.394595 177.962846 
L 555.831941 167.448484 
L 558.269287 157.956961 
L 560.097297 151.552433 
L 561.925307 145.790099 
L 563.753317 140.694136 
L 565.581327 136.285923 
L 567.409337 132.583954 
L 568.62801 130.516127 
L 569.846683 128.773007 
L 571.065356 127.357848 
L 572.284029 126.273286 
L 573.502703 125.521346 
L 574.721376 125.103429 
L 575.940049 125.020315 
L 577.158722 125.272159 
L 578.377396 125.858491 
L 579.596069 126.778218 
L 580.814742 128.029625 
L 582.033415 129.610377 
L 583.252088 131.517526 
L 584.470762 133.747516 
L 586.298771 137.688567 
L 588.126781 142.329977 
L 589.954791 147.652275 
L 591.782801 153.633129 
L 593.610811 160.247449 
L 596.048157 170.0036 
L 598.485504 180.763537 
L 600.92285 192.447028 
L 603.969533 208.216816 
L 607.016216 225.109408 
L 610.672236 246.584817 
L 615.546929 276.667459 
L 630.171007 368.229798 
L 633.827027 389.399351 
L 636.87371 405.969359 
L 639.920393 421.358983 
L 642.35774 432.699841 
L 644.795086 443.085671 
L 647.232432 452.439031 
L 649.060442 458.734232 
L 650.888452 464.382858 
L 652.716462 469.36121 
L 654.544472 473.648401 
L 656.372482 477.226445 
L 657.591155 479.210299 
L 658.809828 480.868542 
L 660.028501 482.198082 
L 661.247174 483.196439 
L 662.465848 483.861751 
L 663.684521 484.192777 
L 664.903194 484.188899 
L 666.121867 483.850126 
L 667.340541 483.177088 
L 668.559214 482.171041 
L 669.777887 480.833862 
L 670.99656 479.168044 
L 672.215233 477.176694 
L 673.433907 474.863525 
L 675.261916 470.799963 
L 677.089926 466.039204 
L 678.917936 460.601221 
L 680.745946 454.50883 
L 683.183292 445.412235 
L 685.620639 435.26582 
L 688.057985 424.145245 
L 691.104668 409.00158 
L 694.151351 392.642215 
L 697.807371 371.675394 
L 702.072727 345.819133 
L 708.77543 303.524239 
L 716.696806 253.805545 
L 720.962162 228.442897 
L 724.618182 208.065352 
L 727.664865 192.306841 
L 730.711548 177.856436 
L 733.148894 167.351608 
L 735.586241 157.870342 
L 737.414251 151.473935 
L 739.24226 145.720052 
L 741.07027 140.632833 
L 742.89828 136.233621 
L 744.72629 132.540873 
L 745.944963 130.479296 
L 747.163636 128.742495 
L 747.163636 128.742495 
" clip-path="url(#p425fc3e300)" style="fill: none; stroke: #dd8452; stroke-width: 3; stroke-linecap: round"/>
   </g>
   <g id="line2d_18">
    <path d="M 138.436364 480.879061 
L 139.655037 479.219962 
L 140.87371 477.234104 
L 142.092383 474.925204 
L 143.920393 470.865769 
L 145.748403 466.106452 
L 147.576413 460.667294 
L 149.404423 454.571203 
L 151.841769 445.465942 
L 154.279115 435.306897 
L 156.716462 424.170105 
L 159.763145 409.001794 
L 162.809828 392.613819 
L 166.465848 371.608924 
L 170.731204 345.705586 
L 177.433907 303.338607 
L 185.355283 253.553433 
L 189.620639 228.170031 
L 193.276658 207.785791 
L 196.323342 192.030613 
L 199.370025 177.59235 
L 201.807371 167.103916 
L 204.244717 157.645173 
L 206.072727 151.269745 
L 207.900737 145.54036 
L 209.728747 140.481145 
L 211.556757 136.113408 
L 213.384767 132.455541 
L 214.60344 130.419069 
L 215.822113 128.708816 
L 217.040786 127.327985 
L 218.259459 126.279161 
L 219.478133 125.564307 
L 220.696806 125.184761 
L 221.915479 125.141234 
L 223.134152 125.433808 
L 224.352826 126.061934 
L 225.571499 127.024437 
L 226.790172 128.319516 
L 228.008845 129.944744 
L 229.227518 131.897081 
L 230.446192 134.17287 
L 232.274201 138.183546 
L 234.102211 142.895374 
L 235.930221 148.288513 
L 237.758231 154.340249 
L 239.586241 161.025096 
L 242.023587 170.87404 
L 244.460934 181.724456 
L 246.89828 193.495132 
L 249.944963 209.367774 
L 253.600983 229.868453 
L 257.866339 255.351466 
L 263.350369 289.68967 
L 274.318428 358.746027 
L 278.583784 383.959389 
L 282.239803 404.147067 
L 285.286486 419.70509 
L 287.723833 431.191475 
L 290.161179 441.730917 
L 292.598526 451.24453 
L 294.426536 457.663399 
L 296.254545 463.437986 
L 298.082555 468.54397 
L 299.910565 472.95985 
L 301.738575 476.667027 
L 302.957248 478.736921 
L 304.175921 480.48096 
L 305.394595 481.895879 
L 306.613268 482.979029 
L 307.831941 483.728382 
L 309.050614 484.142536 
L 310.269287 484.220715 
L 311.487961 483.962773 
L 312.706634 483.369192 
L 313.925307 482.441085 
L 315.14398 481.180188 
L 316.362654 479.588862 
L 317.581327 477.670086 
L 318.8 475.427452 
L 320.62801 471.465615 
L 322.45602 466.80137 
L 324.284029 461.454358 
L 326.112039 455.447097 
L 327.940049 448.804887 
L 330.377396 439.009626 
L 332.814742 428.208904 
L 335.252088 416.483562 
L 338.298771 400.660943 
L 341.345455 383.716173 
L 345.001474 362.180919 
L 349.876167 332.027069 
L 364.500246 240.360244 
L 368.156265 219.200236 
L 371.202948 202.651206 
L 374.249631 187.294926 
L 376.686978 175.989849 
L 379.124324 165.647953 
L 381.561671 156.346646 
L 383.389681 150.095741 
L 385.21769 144.495822 
L 387.0457 139.570472 
L 388.87371 135.340435 
L 390.70172 131.823525 
L 391.920393 129.882538 
L 393.139066 128.268776 
L 394.35774 126.98526 
L 395.576413 126.034392 
L 396.795086 125.417952 
L 398.013759 125.137094 
L 399.232432 125.192345 
L 400.451106 125.583601 
L 401.669779 126.310128 
L 402.888452 127.370568 
L 404.107125 128.762935 
L 405.325799 130.484623 
L 406.544472 132.532407 
L 407.763145 134.902456 
L 409.591155 139.051904 
L 411.419165 143.898848 
L 413.247174 149.422876 
L 415.075184 155.600724 
L 417.512531 164.809559 
L 419.949877 175.065258 
L 422.387224 186.291059 
L 425.433907 201.558874 
L 428.48059 218.032208 
L 432.136609 239.119474 
L 436.401966 265.089537 
L 443.104668 307.494244 
L 450.416708 353.489662 
L 454.682064 379.000359 
L 458.338084 399.533581 
L 461.384767 415.439149 
L 464.43145 430.049795 
L 466.868796 440.690623 
L 469.306143 450.313408 
L 471.743489 458.846126 
L 473.571499 464.491568 
L 475.399509 469.463972 
L 477.227518 473.742396 
L 479.055528 477.308823 
L 480.274201 479.283344 
L 481.492875 480.930987 
L 482.711548 482.248668 
L 483.930221 483.23392 
L 485.148894 483.884897 
L 486.367568 484.200383 
L 487.586241 484.179785 
L 488.804914 483.823142 
L 490.023587 483.131123 
L 491.24226 482.105022 
L 492.460934 480.746761 
L 493.679607 479.058883 
L 494.89828 477.044546 
L 496.116953 474.707523 
L 497.944963 470.606684 
L 499.772973 465.807053 
L 501.600983 460.328843 
L 503.428993 454.195124 
L 505.866339 445.042184 
L 508.303686 434.838631 
L 510.741032 423.660836 
L 513.787715 408.446665 
L 516.834398 392.01932 
L 520.490418 370.976389 
L 524.755774 345.042166 
L 531.458477 302.657488 
L 538.770516 256.632462 
L 543.035872 231.080347 
L 546.691892 210.49828 
L 549.738575 194.543213 
L 552.785258 179.875687 
L 555.222604 169.184483 
L 557.659951 159.507399 
L 560.097297 150.916864 
L 561.925307 145.22601 
L 563.753317 140.206651 
L 565.581327 135.879925 
L 567.409337 132.264054 
L 568.62801 130.256036 
L 569.846683 128.574545 
L 571.065356 127.222726 
L 572.284029 126.203111 
L 573.502703 125.517608 
L 574.721376 125.167501 
L 575.940049 125.153446 
L 577.158722 125.475468 
L 578.377396 126.132965 
L 579.596069 127.124706 
L 580.814742 128.448834 
L 582.033415 130.10287 
L 583.252088 132.083718 
L 584.470762 134.38767 
L 586.298771 138.439819 
L 588.126781 143.192041 
L 589.954791 148.624324 
L 591.782801 154.713791 
L 594.220147 163.810655 
L 596.657494 173.961859 
L 599.09484 185.091426 
L 602.141523 200.251651 
L 605.188206 216.632679 
L 608.844226 237.630856 
L 613.109582 263.528724 
L 619.812285 305.892528 
L 627.733661 355.682645 
L 631.999017 381.072499 
L 635.655037 401.464252 
L 638.70172 417.226993 
L 641.748403 431.67391 
L 644.185749 442.169985 
L 646.623096 451.636944 
L 648.451106 458.018876 
L 650.279115 463.755028 
L 652.107125 468.821242 
L 653.935135 473.196184 
L 655.763145 476.861429 
L 656.981818 478.902902 
L 658.200491 480.618209 
L 659.419165 482.004139 
L 660.637838 483.058097 
L 661.856511 483.778111 
L 663.075184 484.162832 
L 664.293857 484.211541 
L 665.512531 483.924145 
L 666.731204 483.301184 
L 667.949877 482.343823 
L 669.16855 481.053854 
L 670.387224 479.433693 
L 671.605897 477.486372 
L 672.82457 475.215538 
L 674.65258 471.21216 
L 676.48059 466.507441 
L 678.3086 461.121193 
L 680.136609 455.0761 
L 681.964619 448.397619 
L 684.401966 438.556691 
L 686.839312 427.713692 
L 689.276658 415.94978 
L 692.323342 400.084598 
L 695.370025 383.104002 
L 699.026044 361.535234 
L 703.900737 331.353674 
L 717.915479 243.361403 
L 721.571499 222.031063 
L 724.618182 205.303555 
L 727.664865 189.73779 
L 730.102211 178.244431 
L 732.539558 167.69738 
L 734.976904 158.175579 
L 736.804914 151.750224 
L 738.632924 145.968888 
L 740.460934 140.855919 
L 742.288943 136.432848 
L 744.116953 132.718304 
L 745.335627 130.643416 
L 746.5543 128.894328 
L 747.163636 128.143006 
L 747.163636 128.143006 
" clip-path="url(#p425fc3e300)" style="fill: none; stroke: #55a868; stroke-width: 3; stroke-linecap: round"/>
   </g>
   <g id="patch_3">
    <path d="M 108 504 
L 108 69.12 
" style="fill: none; stroke: #262626; stroke-width: 2.5; stroke-linejoin: miter; stroke-linecap: square"/>
   </g>
   <g id="patch_4">
    <path d="M 777.6 504 
L 777.6 69.12 
" style="fill: none; stroke: #262626; stroke-width: 2.5; stroke-linejoin: miter; stroke-linecap: square"/>
   </g>
   <g id="patch_5">
    <path d="M 108 504 
L 777.6 504 
" style="fill: none; stroke: #262626; stroke-width: 2.5; stroke-linejoin: miter; stroke-linecap: square"/>
   </g>
   <g id="patch_6">
    <path d="M 108 69.12 
L 777.6 69.12 
" style="fill: none; stroke: #262626; stroke-width: 2.5; stroke-linejoin: miter; stroke-linecap: square"/>
   </g>
   <g id="legend_1">
    <g id="patch_7">
     <path d="M 296.757812 338.297813 
L 588.842188 338.297813 
Q 593.242188 338.297813 593.242188 333.897812 
L 593.242188 239.222188 
Q 593.242188 234.822188 588.842188 234.822188 
L 296.757812 234.822188 
Q 292.357813 234.822188 292.357813 239.222188 
L 292.357813 333.897812 
Q 292.357813 338.297813 296.757812 338.297813 
z
" style="fill: #ffffff; opacity: 0.8; stroke: #cccccc; stroke-width: 2; stroke-linejoin: miter"/>
    </g>
    <g id="line2d_19">
     <path d="M 301.157813 252.63875 
L 323.157813 252.63875 
L 345.157813 252.63875 
" style="fill: none; stroke-dasharray: 11.1,4.8; stroke-dashoffset: 0; stroke: #4c72b0; stroke-width: 3"/>
     <g>
      <use xlink:href="#mb0e9f99683" x="323.157813" y="252.63875" style="fill: #4c72b0; stroke: #4c72b0"/>
     </g>
    </g>
    <g id="text_18">
     <!-- search -->
     <g style="fill: #262626" transform="translate(362.757813 260.33875)scale(0.22 -0.22)">
      <defs>
       <path id="DejaVuSans-68" d="M 3513 2113 
L 3513 0 
L 2938 0 
L 2938 2094 
Q 2938 2591 2744 2837 
Q 2550 3084 2163 3084 
Q 1697 3084 1428 2787 
Q 1159 2491 1159 1978 
L 1159 0 
L 581 0 
L 581 4863 
L 1159 4863 
L 1159 2956 
Q 1366 3272 1645 3428 
Q 1925 3584 2291 3584 
Q 2894 3584 3203 3211 
Q 3513 2838 3513 2113 
z
" transform="scale(0.015625)"/>
      </defs>
      <use xlink:href="#DejaVuSans-73"/>
      <use xlink:href="#DejaVuSans-65" x="52.099609"/>
      <use xlink:href="#DejaVuSans-61" x="113.623047"/>
      <use xlink:href="#DejaVuSans-72" x="174.902344"/>
      <use xlink:href="#DejaVuSans-63" x="213.765625"/>
      <use xlink:href="#DejaVuSans-68" x="268.746094"/>
     </g>
    </g>
    <g id="line2d_20">
     <path d="M 301.157813 284.930625 
L 323.157813 284.930625 
L 345.157813 284.930625 
" style="fill: none; stroke: #dd8452; stroke-width: 3; stroke-linecap: round"/>
    </g>
    <g id="text_19">
     <!-- predicted frequency -->
     <g style="fill: #262626" transform="translate(362.757813 292.630625)scale(0.22 -0.22)">
      <defs>
       <path id="DejaVuSans-64" d="M 2906 2969 
L 2906 4863 
L 3481 4863 
L 3481 0 
L 2906 0 
L 2906 525 
Q 2725 213 2448 61 
Q 2172 -91 1784 -91 
Q 1150 -91 751 415 
Q 353 922 353 1747 
Q 353 2572 751 3078 
Q 1150 3584 1784 3584 
Q 2172 3584 2448 3432 
Q 2725 3281 2906 2969 
z
M 947 1747 
Q 947 1113 1208 752 
Q 1469 391 1925 391 
Q 2381 391 2643 752 
Q 2906 1113 2906 1747 
Q 2906 2381 2643 2742 
Q 2381 3103 1925 3103 
Q 1469 3103 1208 2742 
Q 947 2381 947 1747 
z
" transform="scale(0.015625)"/>
       <path id="DejaVuSans-71" d="M 947 1747 
Q 947 1113 1208 752 
Q 1469 391 1925 391 
Q 2381 391 2643 752 
Q 2906 1113 2906 1747 
Q 2906 2381 2643 2742 
Q 2381 3103 1925 3103 
Q 1469 3103 1208 2742 
Q 947 2381 947 1747 
z
M 2906 525 
Q 2725 213 2448 61 
Q 2172 -91 1784 -91 
Q 1150 -91 751 415 
Q 353 922 353 1747 
Q 353 2572 751 3078 
Q 1150 3584 1784 3584 
Q 2172 3584 2448 3432 
Q 2725 3281 2906 2969 
L 2906 3500 
L 3481 3500 
L 3481 -1331 
L 2906 -1331 
L 2906 525 
z
" transform="scale(0.015625)"/>
       <path id="DejaVuSans-6e" d="M 3513 2113 
L 3513 0 
L 2938 0 
L 2938 2094 
Q 2938 2591 2744 2837 
Q 2550 3084 2163 3084 
Q 1697 3084 1428 2787 
Q 1159 2491 1159 1978 
L 1159 0 
L 581 0 
L 581 3500 
L 1159 3500 
L 1159 2956 
Q 1366 3272 1645 3428 
Q 1925 3584 2291 3584 
Q 2894 3584 3203 3211 
Q 3513 2838 3513 2113 
z
" transform="scale(0.015625)"/>
      </defs>
      <use xlink:href="#DejaVuSans-70"/>
      <use xlink:href="#DejaVuSans-72" x="63.476562"/>
      <use xlink:href="#DejaVuSans-65" x="102.339844"/>
      <use xlink:href="#DejaVuSans-64" x="163.863281"/>
      <use xlink:href="#DejaVuSans-69" x="227.339844"/>
      <use xlink:href="#DejaVuSans-63" x="255.123047"/>
      <use xlink:href="#DejaVuSans-74" x="310.103516"/>
      <use xlink:href="#DejaVuSans-65" x="349.3125"/>
      <use xlink:href="#DejaVuSans-64" x="410.835938"/>
      <use xlink:href="#DejaVuSans-20" x="474.3125"/>
      <use xlink:href="#DejaVuSans-66" x="506.099609"/>
      <use xlink:href="#DejaVuSans-72" x="541.304688"/>
      <use xlink:href="#DejaVuSans-65" x="580.167969"/>
      <use xlink:href="#DejaVuSans-71" x="641.691406"/>
      <use xlink:href="#DejaVuSans-75" x="705.167969"/>
      <use xlink:href="#DejaVuSans-65" x="768.546875"/>
      <use xlink:href="#DejaVuSans-6e" x="830.070312"/>
      <use xlink:href="#DejaVuSans-63" x="893.449219"/>
      <use xlink:href="#DejaVuSans-79" x="948.429688"/>
     </g>
    </g>
    <g id="line2d_21">
     <path d="M 301.157813 317.2225 
L 323.157813 317.2225 
L 345.157813 317.2225 
" style="fill: none; stroke: #55a868; stroke-width: 3; stroke-linecap: round"/>
    </g>
    <g id="text_20">
     <!-- fit -->
     <g style="fill: #262626" transform="translate(362.757813 324.9225)scale(0.22 -0.22)">
      <use xlink:href="#DejaVuSans-66"/>
      <use xlink:href="#DejaVuSans-69" x="35.205078"/>
      <use xlink:href="#DejaVuSans-74" x="62.988281"/>
     </g>
    </g>
   </g>
  </g>
 </g>
 <defs>
  <clipPath id="p425fc3e300">
   <rect x="108" y="69.12" width="669.6" height="434.88"/>
  </clipPath>
 </defs>
</svg>
