<?xml version="1.0" encoding="utf-8" standalone="no"?>
<!DOCTYPE svg PUBLIC "-//W3C//DTD SVG 1.1//EN"
  "http://www.w3.org/Graphics/SVG/1.1/DTD/svg11.dtd">
<svg xmlns:xlink="http://www.w3.org/1999/xlink" width="864pt" height="576pt" viewBox="0 0 864 576" xmlns="http://www.w3.org/2000/svg" version="1.1">
 <metadata>
  <rdf:RDF xmlns:dc="http://purl.org/dc/elements/1.1/" xmlns:cc="http://creativecommons.org/ns#" xmlns:rdf="http://www.w3.org/1999/02/22-rdf-syntax-ns#">
   <cc:Work>
    <dc:type rdf:resource="http://purl.org/dc/dcmitype/StillImage"/>
    <dc:date>2023-05-12T17:54:01.803016</dc:date>
    <dc:format>image/svg+xml</dc:format>
    <dc:creator>
     <cc:Agent>
      <dc:title>Matplotlib v3.5.1, https://matplotlib.org/</dc:title>
     </cc:Agent>
    </dc:creator>
   </cc:Work>
  </rdf:RDF>
 </metadata>
 <defs>
  <style type="text/css">*{stroke-linejoin: round; stroke-linecap: butt}</style>
 </defs>
 <g id="figure_1">
  <g id="patch_1">
   <path d="M 0 576 
L 864 576 
L 864 0 
L 0 0 
z
" style="fill: #ffffff"/>
  </g>
  <g id="axes_1">
   <g id="patch_2">
    <path d="M 108 504 
L 777.6 504 
L 777.6 69.12 
L 108 69.12 
z
" style="fill: #ffffff"/>
   </g>
   <g id="matplotlib.axis_1">
    <g id="xtick_1">
     <g id="line2d_1">
      <defs>
       <path id="m0d166afc7a" d="M 0 0 
L 0 12 
" style="stroke: #262626; stroke-width: 2.5"/>
      </defs>
      <g>
       <use xlink:href="#m0d166afc7a" x="138.436364" y="504" style="fill: #262626; stroke: #262626; stroke-width: 2.5"/>
      </g>
     </g>
     <g id="text_1">
      <!-- 0 -->
      <g style="fill: #262626" transform="translate(131.437614 536.216563)scale(0.22 -0.22)">
       <defs>
        <path id="DejaVuSans-30" d="M 2034 4250 
Q 1547 4250 1301 3770 
Q 1056 3291 1056 2328 
Q 1056 1369 1301 889 
Q 1547 409 2034 409 
Q 2525 409 2770 889 
Q 3016 1369 3016 2328 
Q 3016 3291 2770 3770 
Q 2525 4250 2034 4250 
z
M 2034 4750 
Q 2819 4750 3233 4129 
Q 3647 3509 3647 2328 
Q 3647 1150 3233 529 
Q 2819 -91 2034 -91 
Q 1250 -91 836 529 
Q 422 1150 422 2328 
Q 422 3509 836 4129 
Q 1250 4750 2034 4750 
z
" transform="scale(0.015625)"/>
       </defs>
       <use xlink:href="#DejaVuSans-30"/>
      </g>
     </g>
    </g>
    <g id="xtick_2">
     <g id="line2d_2">
      <g>
       <use xlink:href="#m0d166afc7a" x="260.181818" y="504" style="fill: #262626; stroke: #262626; stroke-width: 2.5"/>
      </g>
     </g>
     <g id="text_2">
      <!-- 10 -->
      <g style="fill: #262626" transform="translate(246.184318 536.216563)scale(0.22 -0.22)">
       <defs>
        <path id="DejaVuSans-31" d="M 794 531 
L 1825 531 
L 1825 4091 
L 703 3866 
L 703 4441 
L 1819 4666 
L 2450 4666 
L 2450 531 
L 3481 531 
L 3481 0 
L 794 0 
L 794 531 
z
" transform="scale(0.015625)"/>
       </defs>
       <use xlink:href="#DejaVuSans-31"/>
       <use xlink:href="#DejaVuSans-30" x="63.623047"/>
      </g>
     </g>
    </g>
    <g id="xtick_3">
     <g id="line2d_3">
      <g>
       <use xlink:href="#m0d166afc7a" x="381.927273" y="504" style="fill: #262626; stroke: #262626; stroke-width: 2.5"/>
      </g>
     </g>
     <g id="text_3">
      <!-- 20 -->
      <g style="fill: #262626" transform="translate(367.929773 536.216563)scale(0.22 -0.22)">
       <defs>
        <path id="DejaVuSans-32" d="M 1228 531 
L 3431 531 
L 3431 0 
L 469 0 
L 469 531 
Q 828 903 1448 1529 
Q 2069 2156 2228 2338 
Q 2531 2678 2651 2914 
Q 2772 3150 2772 3378 
Q 2772 3750 2511 3984 
Q 2250 4219 1831 4219 
Q 1534 4219 1204 4116 
Q 875 4013 500 3803 
L 500 4441 
Q 881 4594 1212 4672 
Q 1544 4750 1819 4750 
Q 2544 4750 2975 4387 
Q 3406 4025 3406 3419 
Q 3406 3131 3298 2873 
Q 3191 2616 2906 2266 
Q 2828 2175 2409 1742 
Q 1991 1309 1228 531 
z
" transform="scale(0.015625)"/>
       </defs>
       <use xlink:href="#DejaVuSans-32"/>
       <use xlink:href="#DejaVuSans-30" x="63.623047"/>
      </g>
     </g>
    </g>
    <g id="xtick_4">
     <g id="line2d_4">
      <g>
       <use xlink:href="#m0d166afc7a" x="503.672727" y="504" style="fill: #262626; stroke: #262626; stroke-width: 2.5"/>
      </g>
     </g>
     <g id="text_4">
      <!-- 30 -->
      <g style="fill: #262626" transform="translate(489.675227 536.216563)scale(0.22 -0.22)">
       <defs>
        <path id="DejaVuSans-33" d="M 2597 2516 
Q 3050 2419 3304 2112 
Q 3559 1806 3559 1356 
Q 3559 666 3084 287 
Q 2609 -91 1734 -91 
Q 1441 -91 1130 -33 
Q 819 25 488 141 
L 488 750 
Q 750 597 1062 519 
Q 1375 441 1716 441 
Q 2309 441 2620 675 
Q 2931 909 2931 1356 
Q 2931 1769 2642 2001 
Q 2353 2234 1838 2234 
L 1294 2234 
L 1294 2753 
L 1863 2753 
Q 2328 2753 2575 2939 
Q 2822 3125 2822 3475 
Q 2822 3834 2567 4026 
Q 2313 4219 1838 4219 
Q 1578 4219 1281 4162 
Q 984 4106 628 3988 
L 628 4550 
Q 988 4650 1302 4700 
Q 1616 4750 1894 4750 
Q 2613 4750 3031 4423 
Q 3450 4097 3450 3541 
Q 3450 3153 3228 2886 
Q 3006 2619 2597 2516 
z
" transform="scale(0.015625)"/>
       </defs>
       <use xlink:href="#DejaVuSans-33"/>
       <use xlink:href="#DejaVuSans-30" x="63.623047"/>
      </g>
     </g>
    </g>
    <g id="xtick_5">
     <g id="line2d_5">
      <g>
       <use xlink:href="#m0d166afc7a" x="625.418182" y="504" style="fill: #262626; stroke: #262626; stroke-width: 2.5"/>
      </g>
     </g>
     <g id="text_5">
      <!-- 40 -->
      <g style="fill: #262626" transform="translate(611.420682 536.216563)scale(0.22 -0.22)">
       <defs>
        <path id="DejaVuSans-34" d="M 2419 4116 
L 825 1625 
L 2419 1625 
L 2419 4116 
z
M 2253 4666 
L 3047 4666 
L 3047 1625 
L 3713 1625 
L 3713 1100 
L 3047 1100 
L 3047 0 
L 2419 0 
L 2419 1100 
L 313 1100 
L 313 1709 
L 2253 4666 
z
" transform="scale(0.015625)"/>
       </defs>
       <use xlink:href="#DejaVuSans-34"/>
       <use xlink:href="#DejaVuSans-30" x="63.623047"/>
      </g>
     </g>
    </g>
    <g id="xtick_6">
     <g id="line2d_6">
      <g>
       <use xlink:href="#m0d166afc7a" x="747.163636" y="504" style="fill: #262626; stroke: #262626; stroke-width: 2.5"/>
      </g>
     </g>
     <g id="text_6">
      <!-- 50 -->
      <g style="fill: #262626" transform="translate(733.166136 536.216563)scale(0.22 -0.22)">
       <defs>
        <path id="DejaVuSans-35" d="M 691 4666 
L 3169 4666 
L 3169 4134 
L 1269 4134 
L 1269 2991 
Q 1406 3038 1543 3061 
Q 1681 3084 1819 3084 
Q 2600 3084 3056 2656 
Q 3513 2228 3513 1497 
Q 3513 744 3044 326 
Q 2575 -91 1722 -91 
Q 1428 -91 1123 -41 
Q 819 9 494 109 
L 494 744 
Q 775 591 1075 516 
Q 1375 441 1709 441 
Q 2250 441 2565 725 
Q 2881 1009 2881 1497 
Q 2881 1984 2565 2268 
Q 2250 2553 1709 2553 
Q 1456 2553 1204 2497 
Q 953 2441 691 2322 
L 691 4666 
z
" transform="scale(0.015625)"/>
       </defs>
       <use xlink:href="#DejaVuSans-35"/>
       <use xlink:href="#DejaVuSans-30" x="63.623047"/>
      </g>
     </g>
    </g>
    <g id="text_7">
     <!-- steps -->
     <g style="fill: #262626" transform="translate(410.59125 563.028125)scale(0.24 -0.24)">
      <defs>
       <path id="DejaVuSans-73" d="M 2834 3397 
L 2834 2853 
Q 2591 2978 2328 3040 
Q 2066 3103 1784 3103 
Q 1356 3103 1142 2972 
Q 928 2841 928 2578 
Q 928 2378 1081 2264 
Q 1234 2150 1697 2047 
L 1894 2003 
Q 2506 1872 2764 1633 
Q 3022 1394 3022 966 
Q 3022 478 2636 193 
Q 2250 -91 1575 -91 
Q 1294 -91 989 -36 
Q 684 19 347 128 
L 347 722 
Q 666 556 975 473 
Q 1284 391 1588 391 
Q 1994 391 2212 530 
Q 2431 669 2431 922 
Q 2431 1156 2273 1281 
Q 2116 1406 1581 1522 
L 1381 1569 
Q 847 1681 609 1914 
Q 372 2147 372 2553 
Q 372 3047 722 3315 
Q 1072 3584 1716 3584 
Q 2034 3584 2315 3537 
Q 2597 3491 2834 3397 
z
" transform="scale(0.015625)"/>
       <path id="DejaVuSans-74" d="M 1172 4494 
L 1172 3500 
L 2356 3500 
L 2356 3053 
L 1172 3053 
L 1172 1153 
Q 1172 725 1289 603 
Q 1406 481 1766 481 
L 2356 481 
L 2356 0 
L 1766 0 
Q 1100 0 847 248 
Q 594 497 594 1153 
L 594 3053 
L 172 3053 
L 172 3500 
L 594 3500 
L 594 4494 
L 1172 4494 
z
" transform="scale(0.015625)"/>
       <path id="DejaVuSans-65" d="M 3597 1894 
L 3597 1613 
L 953 1613 
Q 991 1019 1311 708 
Q 1631 397 2203 397 
Q 2534 397 2845 478 
Q 3156 559 3463 722 
L 3463 178 
Q 3153 47 2828 -22 
Q 2503 -91 2169 -91 
Q 1331 -91 842 396 
Q 353 884 353 1716 
Q 353 2575 817 3079 
Q 1281 3584 2069 3584 
Q 2775 3584 3186 3129 
Q 3597 2675 3597 1894 
z
M 3022 2063 
Q 3016 2534 2758 2815 
Q 2500 3097 2075 3097 
Q 1594 3097 1305 2825 
Q 1016 2553 972 2059 
L 3022 2063 
z
" transform="scale(0.015625)"/>
       <path id="DejaVuSans-70" d="M 1159 525 
L 1159 -1331 
L 581 -1331 
L 581 3500 
L 1159 3500 
L 1159 2969 
Q 1341 3281 1617 3432 
Q 1894 3584 2278 3584 
Q 2916 3584 3314 3078 
Q 3713 2572 3713 1747 
Q 3713 922 3314 415 
Q 2916 -91 2278 -91 
Q 1894 -91 1617 61 
Q 1341 213 1159 525 
z
M 3116 1747 
Q 3116 2381 2855 2742 
Q 2594 3103 2138 3103 
Q 1681 3103 1420 2742 
Q 1159 2381 1159 1747 
Q 1159 1113 1420 752 
Q 1681 391 2138 391 
Q 2594 391 2855 752 
Q 3116 1113 3116 1747 
z
" transform="scale(0.015625)"/>
      </defs>
      <use xlink:href="#DejaVuSans-73"/>
      <use xlink:href="#DejaVuSans-74" x="52.099609"/>
      <use xlink:href="#DejaVuSans-65" x="91.308594"/>
      <use xlink:href="#DejaVuSans-70" x="152.832031"/>
      <use xlink:href="#DejaVuSans-73" x="216.308594"/>
     </g>
    </g>
   </g>
   <g id="matplotlib.axis_2">
    <g id="ytick_1">
     <g id="line2d_7">
      <defs>
       <path id="m8a85581e19" d="M 0 0 
L -12 0 
" style="stroke: #262626; stroke-width: 2.5"/>
      </defs>
      <g>
       <use xlink:href="#m8a85581e19" x="108" y="484.23324" style="fill: #262626; stroke: #262626; stroke-width: 2.5"/>
      </g>
     </g>
     <g id="text_8">
      <!-- 0.000 -->
      <g style="fill: #262626" transform="translate(29.518125 492.591521)scale(0.22 -0.22)">
       <defs>
        <path id="DejaVuSans-2e" d="M 684 794 
L 1344 794 
L 1344 0 
L 684 0 
L 684 794 
z
" transform="scale(0.015625)"/>
       </defs>
       <use xlink:href="#DejaVuSans-30"/>
       <use xlink:href="#DejaVuSans-2e" x="63.623047"/>
       <use xlink:href="#DejaVuSans-30" x="95.410156"/>
       <use xlink:href="#DejaVuSans-30" x="159.033203"/>
       <use xlink:href="#DejaVuSans-30" x="222.65625"/>
      </g>
     </g>
    </g>
    <g id="ytick_2">
     <g id="line2d_8">
      <g>
       <use xlink:href="#m8a85581e19" x="108" y="433.615836" style="fill: #262626; stroke: #262626; stroke-width: 2.5"/>
      </g>
     </g>
     <g id="text_9">
      <!-- 0.025 -->
      <g style="fill: #262626" transform="translate(29.518125 441.974117)scale(0.22 -0.22)">
       <use xlink:href="#DejaVuSans-30"/>
       <use xlink:href="#DejaVuSans-2e" x="63.623047"/>
       <use xlink:href="#DejaVuSans-30" x="95.410156"/>
       <use xlink:href="#DejaVuSans-32" x="159.033203"/>
       <use xlink:href="#DejaVuSans-35" x="222.65625"/>
      </g>
     </g>
    </g>
    <g id="ytick_3">
     <g id="line2d_9">
      <g>
       <use xlink:href="#m8a85581e19" x="108" y="382.998432" style="fill: #262626; stroke: #262626; stroke-width: 2.5"/>
      </g>
     </g>
     <g id="text_10">
      <!-- 0.050 -->
      <g style="fill: #262626" transform="translate(29.518125 391.356714)scale(0.22 -0.22)">
       <use xlink:href="#DejaVuSans-30"/>
       <use xlink:href="#DejaVuSans-2e" x="63.623047"/>
       <use xlink:href="#DejaVuSans-30" x="95.410156"/>
       <use xlink:href="#DejaVuSans-35" x="159.033203"/>
       <use xlink:href="#DejaVuSans-30" x="222.65625"/>
      </g>
     </g>
    </g>
    <g id="ytick_4">
     <g id="line2d_10">
      <g>
       <use xlink:href="#m8a85581e19" x="108" y="332.381029" style="fill: #262626; stroke: #262626; stroke-width: 2.5"/>
      </g>
     </g>
     <g id="text_11">
      <!-- 0.075 -->
      <g style="fill: #262626" transform="translate(29.518125 340.73931)scale(0.22 -0.22)">
       <defs>
        <path id="DejaVuSans-37" d="M 525 4666 
L 3525 4666 
L 3525 4397 
L 1831 0 
L 1172 0 
L 2766 4134 
L 525 4134 
L 525 4666 
z
" transform="scale(0.015625)"/>
       </defs>
       <use xlink:href="#DejaVuSans-30"/>
       <use xlink:href="#DejaVuSans-2e" x="63.623047"/>
       <use xlink:href="#DejaVuSans-30" x="95.410156"/>
       <use xlink:href="#DejaVuSans-37" x="159.033203"/>
       <use xlink:href="#DejaVuSans-35" x="222.65625"/>
      </g>
     </g>
    </g>
    <g id="ytick_5">
     <g id="line2d_11">
      <g>
       <use xlink:href="#m8a85581e19" x="108" y="281.763625" style="fill: #262626; stroke: #262626; stroke-width: 2.5"/>
      </g>
     </g>
     <g id="text_12">
      <!-- 0.100 -->
      <g style="fill: #262626" transform="translate(29.518125 290.121906)scale(0.22 -0.22)">
       <use xlink:href="#DejaVuSans-30"/>
       <use xlink:href="#DejaVuSans-2e" x="63.623047"/>
       <use xlink:href="#DejaVuSans-31" x="95.410156"/>
       <use xlink:href="#DejaVuSans-30" x="159.033203"/>
       <use xlink:href="#DejaVuSans-30" x="222.65625"/>
      </g>
     </g>
    </g>
    <g id="ytick_6">
     <g id="line2d_12">
      <g>
       <use xlink:href="#m8a85581e19" x="108" y="231.146221" style="fill: #262626; stroke: #262626; stroke-width: 2.5"/>
      </g>
     </g>
     <g id="text_13">
      <!-- 0.125 -->
      <g style="fill: #262626" transform="translate(29.518125 239.504502)scale(0.22 -0.22)">
       <use xlink:href="#DejaVuSans-30"/>
       <use xlink:href="#DejaVuSans-2e" x="63.623047"/>
       <use xlink:href="#DejaVuSans-31" x="95.410156"/>
       <use xlink:href="#DejaVuSans-32" x="159.033203"/>
       <use xlink:href="#DejaVuSans-35" x="222.65625"/>
      </g>
     </g>
    </g>
    <g id="ytick_7">
     <g id="line2d_13">
      <g>
       <use xlink:href="#m8a85581e19" x="108" y="180.528817" style="fill: #262626; stroke: #262626; stroke-width: 2.5"/>
      </g>
     </g>
     <g id="text_14">
      <!-- 0.150 -->
      <g style="fill: #262626" transform="translate(29.518125 188.887098)scale(0.22 -0.22)">
       <use xlink:href="#DejaVuSans-30"/>
       <use xlink:href="#DejaVuSans-2e" x="63.623047"/>
       <use xlink:href="#DejaVuSans-31" x="95.410156"/>
       <use xlink:href="#DejaVuSans-35" x="159.033203"/>
       <use xlink:href="#DejaVuSans-30" x="222.65625"/>
      </g>
     </g>
    </g>
    <g id="ytick_8">
     <g id="line2d_14">
      <g>
       <use xlink:href="#m8a85581e19" x="108" y="129.911413" style="fill: #262626; stroke: #262626; stroke-width: 2.5"/>
      </g>
     </g>
     <g id="text_15">
      <!-- 0.175 -->
      <g style="fill: #262626" transform="translate(29.518125 138.269695)scale(0.22 -0.22)">
       <use xlink:href="#DejaVuSans-30"/>
       <use xlink:href="#DejaVuSans-2e" x="63.623047"/>
       <use xlink:href="#DejaVuSans-31" x="95.410156"/>
       <use xlink:href="#DejaVuSans-37" x="159.033203"/>
       <use xlink:href="#DejaVuSans-35" x="222.65625"/>
      </g>
     </g>
    </g>
    <g id="ytick_9">
     <g id="line2d_15">
      <g>
       <use xlink:href="#m8a85581e19" x="108" y="79.29401" style="fill: #262626; stroke: #262626; stroke-width: 2.5"/>
      </g>
     </g>
     <g id="text_16">
      <!-- 0.200 -->
      <g style="fill: #262626" transform="translate(29.518125 87.652291)scale(0.22 -0.22)">
       <use xlink:href="#DejaVuSans-30"/>
       <use xlink:href="#DejaVuSans-2e" x="63.623047"/>
       <use xlink:href="#DejaVuSans-32" x="95.410156"/>
       <use xlink:href="#DejaVuSans-30" x="159.033203"/>
       <use xlink:href="#DejaVuSans-30" x="222.65625"/>
      </g>
     </g>
    </g>
    <g id="text_17">
     <!-- probability of success -->
     <g style="fill: #262626" transform="translate(20.526875 416.715)rotate(-90)scale(0.24 -0.24)">
      <defs>
       <path id="DejaVuSans-72" d="M 2631 2963 
Q 2534 3019 2420 3045 
Q 2306 3072 2169 3072 
Q 1681 3072 1420 2755 
Q 1159 2438 1159 1844 
L 1159 0 
L 581 0 
L 581 3500 
L 1159 3500 
L 1159 2956 
Q 1341 3275 1631 3429 
Q 1922 3584 2338 3584 
Q 2397 3584 2469 3576 
Q 2541 3569 2628 3553 
L 2631 2963 
z
" transform="scale(0.015625)"/>
       <path id="DejaVuSans-6f" d="M 1959 3097 
Q 1497 3097 1228 2736 
Q 959 2375 959 1747 
Q 959 1119 1226 758 
Q 1494 397 1959 397 
Q 2419 397 2687 759 
Q 2956 1122 2956 1747 
Q 2956 2369 2687 2733 
Q 2419 3097 1959 3097 
z
M 1959 3584 
Q 2709 3584 3137 3096 
Q 3566 2609 3566 1747 
Q 3566 888 3137 398 
Q 2709 -91 1959 -91 
Q 1206 -91 779 398 
Q 353 888 353 1747 
Q 353 2609 779 3096 
Q 1206 3584 1959 3584 
z
" transform="scale(0.015625)"/>
       <path id="DejaVuSans-62" d="M 3116 1747 
Q 3116 2381 2855 2742 
Q 2594 3103 2138 3103 
Q 1681 3103 1420 2742 
Q 1159 2381 1159 1747 
Q 1159 1113 1420 752 
Q 1681 391 2138 391 
Q 2594 391 2855 752 
Q 3116 1113 3116 1747 
z
M 1159 2969 
Q 1341 3281 1617 3432 
Q 1894 3584 2278 3584 
Q 2916 3584 3314 3078 
Q 3713 2572 3713 1747 
Q 3713 922 3314 415 
Q 2916 -91 2278 -91 
Q 1894 -91 1617 61 
Q 1341 213 1159 525 
L 1159 0 
L 581 0 
L 581 4863 
L 1159 4863 
L 1159 2969 
z
" transform="scale(0.015625)"/>
       <path id="DejaVuSans-61" d="M 2194 1759 
Q 1497 1759 1228 1600 
Q 959 1441 959 1056 
Q 959 750 1161 570 
Q 1363 391 1709 391 
Q 2188 391 2477 730 
Q 2766 1069 2766 1631 
L 2766 1759 
L 2194 1759 
z
M 3341 1997 
L 3341 0 
L 2766 0 
L 2766 531 
Q 2569 213 2275 61 
Q 1981 -91 1556 -91 
Q 1019 -91 701 211 
Q 384 513 384 1019 
Q 384 1609 779 1909 
Q 1175 2209 1959 2209 
L 2766 2209 
L 2766 2266 
Q 2766 2663 2505 2880 
Q 2244 3097 1772 3097 
Q 1472 3097 1187 3025 
Q 903 2953 641 2809 
L 641 3341 
Q 956 3463 1253 3523 
Q 1550 3584 1831 3584 
Q 2591 3584 2966 3190 
Q 3341 2797 3341 1997 
z
" transform="scale(0.015625)"/>
       <path id="DejaVuSans-69" d="M 603 3500 
L 1178 3500 
L 1178 0 
L 603 0 
L 603 3500 
z
M 603 4863 
L 1178 4863 
L 1178 4134 
L 603 4134 
L 603 4863 
z
" transform="scale(0.015625)"/>
       <path id="DejaVuSans-6c" d="M 603 4863 
L 1178 4863 
L 1178 0 
L 603 0 
L 603 4863 
z
" transform="scale(0.015625)"/>
       <path id="DejaVuSans-79" d="M 2059 -325 
Q 1816 -950 1584 -1140 
Q 1353 -1331 966 -1331 
L 506 -1331 
L 506 -850 
L 844 -850 
Q 1081 -850 1212 -737 
Q 1344 -625 1503 -206 
L 1606 56 
L 191 3500 
L 800 3500 
L 1894 763 
L 2988 3500 
L 3597 3500 
L 2059 -325 
z
" transform="scale(0.015625)"/>
       <path id="DejaVuSans-20" transform="scale(0.015625)"/>
       <path id="DejaVuSans-66" d="M 2375 4863 
L 2375 4384 
L 1825 4384 
Q 1516 4384 1395 4259 
Q 1275 4134 1275 3809 
L 1275 3500 
L 2222 3500 
L 2222 3053 
L 1275 3053 
L 1275 0 
L 697 0 
L 697 3053 
L 147 3053 
L 147 3500 
L 697 3500 
L 697 3744 
Q 697 4328 969 4595 
Q 1241 4863 1831 4863 
L 2375 4863 
z
" transform="scale(0.015625)"/>
       <path id="DejaVuSans-75" d="M 544 1381 
L 544 3500 
L 1119 3500 
L 1119 1403 
Q 1119 906 1312 657 
Q 1506 409 1894 409 
Q 2359 409 2629 706 
Q 2900 1003 2900 1516 
L 2900 3500 
L 3475 3500 
L 3475 0 
L 2900 0 
L 2900 538 
Q 2691 219 2414 64 
Q 2138 -91 1772 -91 
Q 1169 -91 856 284 
Q 544 659 544 1381 
z
M 1991 3584 
L 1991 3584 
z
" transform="scale(0.015625)"/>
       <path id="DejaVuSans-63" d="M 3122 3366 
L 3122 2828 
Q 2878 2963 2633 3030 
Q 2388 3097 2138 3097 
Q 1578 3097 1268 2742 
Q 959 2388 959 1747 
Q 959 1106 1268 751 
Q 1578 397 2138 397 
Q 2388 397 2633 464 
Q 2878 531 3122 666 
L 3122 134 
Q 2881 22 2623 -34 
Q 2366 -91 2075 -91 
Q 1284 -91 818 406 
Q 353 903 353 1747 
Q 353 2603 823 3093 
Q 1294 3584 2113 3584 
Q 2378 3584 2631 3529 
Q 2884 3475 3122 3366 
z
" transform="scale(0.015625)"/>
      </defs>
      <use xlink:href="#DejaVuSans-70"/>
      <use xlink:href="#DejaVuSans-72" x="63.476562"/>
      <use xlink:href="#DejaVuSans-6f" x="102.339844"/>
      <use xlink:href="#DejaVuSans-62" x="163.521484"/>
      <use xlink:href="#DejaVuSans-61" x="226.998047"/>
      <use xlink:href="#DejaVuSans-62" x="288.277344"/>
      <use xlink:href="#DejaVuSans-69" x="351.753906"/>
      <use xlink:href="#DejaVuSans-6c" x="379.537109"/>
      <use xlink:href="#DejaVuSans-69" x="407.320312"/>
      <use xlink:href="#DejaVuSans-74" x="435.103516"/>
      <use xlink:href="#DejaVuSans-79" x="474.3125"/>
      <use xlink:href="#DejaVuSans-20" x="533.492188"/>
      <use xlink:href="#DejaVuSans-6f" x="565.279297"/>
      <use xlink:href="#DejaVuSans-66" x="626.460938"/>
      <use xlink:href="#DejaVuSans-20" x="661.666016"/>
      <use xlink:href="#DejaVuSans-73" x="693.453125"/>
      <use xlink:href="#DejaVuSans-75" x="745.552734"/>
      <use xlink:href="#DejaVuSans-63" x="808.931641"/>
      <use xlink:href="#DejaVuSans-63" x="863.912109"/>
      <use xlink:href="#DejaVuSans-65" x="918.892578"/>
      <use xlink:href="#DejaVuSans-73" x="980.416016"/>
      <use xlink:href="#DejaVuSans-73" x="1032.515625"/>
     </g>
    </g>
   </g>
   <g id="line2d_16">
    <path d="M 138.436364 420.961485 
L 150.610909 420.961485 
L 162.785455 326.053853 
L 174.96 326.053853 
L 187.134545 191.601374 
L 199.309091 191.601374 
L 211.483636 148.102043 
L 223.658182 148.102043 
L 235.832727 162.93136 
L 248.007273 162.93136 
L 260.181818 182.703784 
L 272.356364 182.703784 
L 284.530909 98.053096 
L 296.705455 98.053096 
L 308.88 284.902497 
L 321.054545 284.902497 
L 333.229091 424.838734 
L 345.403636 424.838734 
L 357.578182 483.731206 
L 369.752727 483.731206 
L 381.927273 316.281565 
L 394.101818 316.281565 
L 406.276364 242.425577 
L 418.450909 242.425577 
L 430.625455 113.039541 
L 442.8 113.039541 
L 454.974545 196.123302 
L 467.149091 196.123302 
L 479.323636 172.48591 
L 491.498182 172.48591 
L 503.672727 179.4863 
L 515.847273 179.4863 
L 528.021818 107.440151 
L 540.196364 107.440151 
L 552.370909 411.976738 
L 564.545455 411.976738 
L 576.72 479.564107 
L 588.894545 479.564107 
L 601.069091 443.082542 
L 613.243636 443.082542 
L 625.418182 197.957388 
L 637.592727 197.957388 
L 649.767273 163.495326 
L 661.941818 163.495326 
L 674.116364 156.44693 
L 686.290909 156.44693 
L 698.465455 199.104083 
L 710.64 199.104083 
L 722.814545 140.933499 
L 734.989091 140.933499 
L 747.163636 203.270313 
" clip-path="url(#pf8746b9d57)" style="fill: none; stroke-dasharray: 11.1,4.8; stroke-dashoffset: 0; stroke: #4c72b0; stroke-width: 3"/>
    <defs>
     <path id="mc30a2b79a8" d="M 0 6 
C 1.591219 6 3.117479 5.367802 4.242641 4.242641 
C 5.367802 3.117479 6 1.591219 6 0 
C 6 -1.591219 5.367802 -3.117479 4.242641 -4.242641 
C 3.117479 -5.367802 1.591219 -6 0 -6 
C -1.591219 -6 -3.117479 -5.367802 -4.242641 -4.242641 
C -5.367802 -3.117479 -6 -1.591219 -6 0 
C -6 1.591219 -5.367802 3.117479 -4.242641 4.242641 
C -3.117479 5.367802 -1.591219 6 0 6 
z
" style="stroke: #4c72b0"/>
    </defs>
    <g clip-path="url(#pf8746b9d57)">
     <use xlink:href="#mc30a2b79a8" x="138.436364" y="420.961485" style="fill: #4c72b0; stroke: #4c72b0"/>
     <use xlink:href="#mc30a2b79a8" x="150.610909" y="420.961485" style="fill: #4c72b0; stroke: #4c72b0"/>
     <use xlink:href="#mc30a2b79a8" x="162.785455" y="326.053853" style="fill: #4c72b0; stroke: #4c72b0"/>
     <use xlink:href="#mc30a2b79a8" x="174.96" y="326.053853" style="fill: #4c72b0; stroke: #4c72b0"/>
     <use xlink:href="#mc30a2b79a8" x="187.134545" y="191.601374" style="fill: #4c72b0; stroke: #4c72b0"/>
     <use xlink:href="#mc30a2b79a8" x="199.309091" y="191.601374" style="fill: #4c72b0; stroke: #4c72b0"/>
     <use xlink:href="#mc30a2b79a8" x="211.483636" y="148.102043" style="fill: #4c72b0; stroke: #4c72b0"/>
     <use xlink:href="#mc30a2b79a8" x="223.658182" y="148.102043" style="fill: #4c72b0; stroke: #4c72b0"/>
     <use xlink:href="#mc30a2b79a8" x="235.832727" y="162.93136" style="fill: #4c72b0; stroke: #4c72b0"/>
     <use xlink:href="#mc30a2b79a8" x="248.007273" y="162.93136" style="fill: #4c72b0; stroke: #4c72b0"/>
     <use xlink:href="#mc30a2b79a8" x="260.181818" y="182.703784" style="fill: #4c72b0; stroke: #4c72b0"/>
     <use xlink:href="#mc30a2b79a8" x="272.356364" y="182.703784" style="fill: #4c72b0; stroke: #4c72b0"/>
     <use xlink:href="#mc30a2b79a8" x="284.530909" y="98.053096" style="fill: #4c72b0; stroke: #4c72b0"/>
     <use xlink:href="#mc30a2b79a8" x="296.705455" y="98.053096" style="fill: #4c72b0; stroke: #4c72b0"/>
     <use xlink:href="#mc30a2b79a8" x="308.88" y="284.902497" style="fill: #4c72b0; stroke: #4c72b0"/>
     <use xlink:href="#mc30a2b79a8" x="321.054545" y="284.902497" style="fill: #4c72b0; stroke: #4c72b0"/>
     <use xlink:href="#mc30a2b79a8" x="333.229091" y="424.838734" style="fill: #4c72b0; stroke: #4c72b0"/>
     <use xlink:href="#mc30a2b79a8" x="345.403636" y="424.838734" style="fill: #4c72b0; stroke: #4c72b0"/>
     <use xlink:href="#mc30a2b79a8" x="357.578182" y="483.731206" style="fill: #4c72b0; stroke: #4c72b0"/>
     <use xlink:href="#mc30a2b79a8" x="369.752727" y="483.731206" style="fill: #4c72b0; stroke: #4c72b0"/>
     <use xlink:href="#mc30a2b79a8" x="381.927273" y="316.281565" style="fill: #4c72b0; stroke: #4c72b0"/>
     <use xlink:href="#mc30a2b79a8" x="394.101818" y="316.281565" style="fill: #4c72b0; stroke: #4c72b0"/>
     <use xlink:href="#mc30a2b79a8" x="406.276364" y="242.425577" style="fill: #4c72b0; stroke: #4c72b0"/>
     <use xlink:href="#mc30a2b79a8" x="418.450909" y="242.425577" style="fill: #4c72b0; stroke: #4c72b0"/>
     <use xlink:href="#mc30a2b79a8" x="430.625455" y="113.039541" style="fill: #4c72b0; stroke: #4c72b0"/>
     <use xlink:href="#mc30a2b79a8" x="442.8" y="113.039541" style="fill: #4c72b0; stroke: #4c72b0"/>
     <use xlink:href="#mc30a2b79a8" x="454.974545" y="196.123302" style="fill: #4c72b0; stroke: #4c72b0"/>
     <use xlink:href="#mc30a2b79a8" x="467.149091" y="196.123302" style="fill: #4c72b0; stroke: #4c72b0"/>
     <use xlink:href="#mc30a2b79a8" x="479.323636" y="172.48591" style="fill: #4c72b0; stroke: #4c72b0"/>
     <use xlink:href="#mc30a2b79a8" x="491.498182" y="172.48591" style="fill: #4c72b0; stroke: #4c72b0"/>
     <use xlink:href="#mc30a2b79a8" x="503.672727" y="179.4863" style="fill: #4c72b0; stroke: #4c72b0"/>
     <use xlink:href="#mc30a2b79a8" x="515.847273" y="179.4863" style="fill: #4c72b0; stroke: #4c72b0"/>
     <use xlink:href="#mc30a2b79a8" x="528.021818" y="107.440151" style="fill: #4c72b0; stroke: #4c72b0"/>
     <use xlink:href="#mc30a2b79a8" x="540.196364" y="107.440151" style="fill: #4c72b0; stroke: #4c72b0"/>
     <use xlink:href="#mc30a2b79a8" x="552.370909" y="411.976738" style="fill: #4c72b0; stroke: #4c72b0"/>
     <use xlink:href="#mc30a2b79a8" x="564.545455" y="411.976738" style="fill: #4c72b0; stroke: #4c72b0"/>
     <use xlink:href="#mc30a2b79a8" x="576.72" y="479.564107" style="fill: #4c72b0; stroke: #4c72b0"/>
     <use xlink:href="#mc30a2b79a8" x="588.894545" y="479.564107" style="fill: #4c72b0; stroke: #4c72b0"/>
     <use xlink:href="#mc30a2b79a8" x="601.069091" y="443.082542" style="fill: #4c72b0; stroke: #4c72b0"/>
     <use xlink:href="#mc30a2b79a8" x="613.243636" y="443.082542" style="fill: #4c72b0; stroke: #4c72b0"/>
     <use xlink:href="#mc30a2b79a8" x="625.418182" y="197.957388" style="fill: #4c72b0; stroke: #4c72b0"/>
     <use xlink:href="#mc30a2b79a8" x="637.592727" y="197.957388" style="fill: #4c72b0; stroke: #4c72b0"/>
     <use xlink:href="#mc30a2b79a8" x="649.767273" y="163.495326" style="fill: #4c72b0; stroke: #4c72b0"/>
     <use xlink:href="#mc30a2b79a8" x="661.941818" y="163.495326" style="fill: #4c72b0; stroke: #4c72b0"/>
     <use xlink:href="#mc30a2b79a8" x="674.116364" y="156.44693" style="fill: #4c72b0; stroke: #4c72b0"/>
     <use xlink:href="#mc30a2b79a8" x="686.290909" y="156.44693" style="fill: #4c72b0; stroke: #4c72b0"/>
     <use xlink:href="#mc30a2b79a8" x="698.465455" y="199.104083" style="fill: #4c72b0; stroke: #4c72b0"/>
     <use xlink:href="#mc30a2b79a8" x="710.64" y="199.104083" style="fill: #4c72b0; stroke: #4c72b0"/>
     <use xlink:href="#mc30a2b79a8" x="722.814545" y="140.933499" style="fill: #4c72b0; stroke: #4c72b0"/>
     <use xlink:href="#mc30a2b79a8" x="734.989091" y="140.933499" style="fill: #4c72b0; stroke: #4c72b0"/>
     <use xlink:href="#mc30a2b79a8" x="747.163636" y="203.270313" style="fill: #4c72b0; stroke: #4c72b0"/>
    </g>
   </g>
   <g id="line2d_17">
    <path d="M 138.436364 474.57527 
L 139.655037 470.264192 
L 140.87371 465.196857 
L 142.092383 459.396254 
L 143.920393 449.378917 
L 145.748403 437.873889 
L 147.576413 424.998552 
L 150.013759 405.928736 
L 152.451106 385.003459 
L 155.497789 356.818095 
L 159.763145 315.014178 
L 167.075184 243.179403 
L 170.121867 215.490922 
L 172.559214 195.099139 
L 174.99656 176.673364 
L 176.82457 164.346652 
L 178.65258 153.440306 
L 180.48059 144.065599 
L 181.699263 138.71461 
L 182.917936 134.111476 
L 184.136609 130.27708 
L 185.355283 127.228816 
L 186.573956 124.980514 
L 187.183292 124.159679 
L 187.792629 123.542373 
L 188.401966 123.129296 
L 189.011302 122.920917 
L 189.620639 122.917472 
L 190.229975 123.118966 
L 190.839312 123.525169 
L 191.448649 124.135621 
L 192.057985 124.949629 
L 193.276658 127.18439 
L 194.495332 130.219314 
L 195.714005 134.040633 
L 196.932678 138.631011 
L 198.151351 143.969623 
L 199.979361 153.326599 
L 201.807371 164.216373 
L 203.635381 176.527842 
L 205.463391 190.135398 
L 207.900737 210.053255 
L 210.94742 237.28877 
L 214.60344 272.375112 
L 224.962162 373.774001 
L 228.008845 400.684662 
L 230.446192 420.26852 
L 232.274201 433.586222 
L 234.102211 445.57736 
L 235.930221 456.119594 
L 237.758231 465.105365 
L 238.976904 470.185221 
L 240.195577 474.50918 
L 241.414251 478.057624 
L 242.632924 480.814455 
L 243.851597 482.767167 
L 244.460934 483.439066 
L 245.07027 483.906901 
L 245.679607 484.170141 
L 246.288943 484.228487 
L 246.89828 484.081873 
L 247.507617 483.730466 
L 248.116953 483.174663 
L 248.72629 482.415096 
L 249.944963 480.288346 
L 251.163636 477.359864 
L 252.38231 473.642934 
L 253.600983 469.15442 
L 254.819656 463.914683 
L 256.647666 454.699441 
L 258.475676 443.942226 
L 260.303686 431.752788 
L 262.131695 418.255492 
L 264.569042 398.46441 
L 267.615725 371.351685 
L 271.271744 336.355928 
L 282.239803 229.269168 
L 285.286486 202.714979 
L 287.723833 183.492823 
L 289.551843 170.486831 
L 291.379853 158.83856 
L 293.207862 148.66685 
L 295.035872 140.075481 
L 296.254545 135.269845 
L 297.473219 131.227692 
L 298.691892 127.967359 
L 299.910565 125.503637 
L 300.519902 124.57414 
L 301.129238 123.847702 
L 301.738575 123.325147 
L 302.347912 123.007068 
L 302.957248 122.893826 
L 303.566585 122.985548 
L 304.175921 123.282131 
L 304.785258 123.783239 
L 305.394595 124.488303 
L 306.003931 125.396523 
L 307.222604 127.818081 
L 308.441278 131.036926 
L 309.659951 135.038458 
L 310.878624 139.804521 
L 312.097297 145.313495 
L 313.925307 154.914349 
L 315.753317 166.031801 
L 317.581327 178.552427 
L 320.018673 197.206618 
L 322.45602 217.788617 
L 325.502703 245.655968 
L 329.768059 287.237168 
L 337.689435 365.072843 
L 340.736118 392.677797 
L 343.173464 412.981388 
L 345.610811 431.301684 
L 347.438821 443.53908 
L 349.26683 454.348367 
L 351.09484 463.619263 
L 352.313514 468.897813 
L 353.532187 473.426305 
L 354.75086 477.184195 
L 355.969533 480.154435 
L 357.188206 482.32355 
L 357.797543 483.104467 
L 358.40688 483.681699 
L 359.016216 484.054592 
L 359.625553 484.222722 
L 360.234889 484.185898 
L 360.844226 483.944163 
L 361.453563 483.497791 
L 362.062899 482.847288 
L 362.672236 481.993391 
L 363.890909 479.679524 
L 365.109582 476.566686 
L 366.328256 472.668999 
L 367.546929 468.004147 
L 368.765602 462.59329 
L 370.593612 453.132842 
L 372.421622 442.146405 
L 374.249631 429.746068 
L 376.686978 411.233471 
L 379.124324 390.769261 
L 382.171007 363.012462 
L 386.436364 321.512279 
L 394.35774 243.589067 
L 397.404423 215.870532 
L 399.841769 195.44692 
L 402.279115 176.983012 
L 404.107125 164.623975 
L 405.935135 153.682475 
L 407.763145 144.270143 
L 408.981818 138.892887 
L 410.200491 134.262677 
L 411.419165 130.400519 
L 412.637838 127.323933 
L 413.856511 125.046877 
L 414.465848 124.211544 
L 415.075184 123.579682 
L 415.684521 123.152006 
L 416.293857 122.929002 
L 416.903194 122.910923 
L 417.512531 123.09779 
L 418.121867 123.489391 
L 418.731204 124.085281 
L 419.340541 124.884784 
L 420.559214 127.090773 
L 421.777887 130.09735 
L 422.99656 133.890874 
L 424.215233 138.454137 
L 425.433907 143.766436 
L 427.261916 153.085707 
L 429.089926 163.940234 
L 430.917936 176.219274 
L 432.745946 189.797549 
L 435.183292 209.681772 
L 438.229975 236.884774 
L 441.885995 271.94725 
L 452.244717 373.373473 
L 455.2914 400.318021 
L 457.728747 419.936516 
L 460.166093 437.445648 
L 461.994103 449.000706 
L 463.822113 459.071932 
L 465.650123 467.556575 
L 466.868796 472.288126 
L 468.087469 476.254238 
L 469.306143 479.436919 
L 470.524816 481.821731 
L 471.134152 482.711412 
L 471.743489 483.397853 
L 472.352826 483.880278 
L 472.962162 484.158137 
L 473.571499 484.231116 
L 474.180835 484.099132 
L 474.790172 483.762335 
L 475.399509 483.221107 
L 476.008845 482.476062 
L 477.227518 480.378131 
L 478.446192 477.478061 
L 479.664865 473.789008 
L 480.883538 469.327707 
L 482.102211 464.114397 
L 483.930221 454.937061 
L 485.758231 444.215327 
L 487.586241 432.058584 
L 489.414251 418.590863 
L 491.851597 398.833845 
L 494.288943 377.349967 
L 497.335627 348.662386 
L 502.819656 294.377923 
L 507.694349 246.673842 
L 510.741032 218.734923 
L 513.178378 198.076265 
L 515.615725 179.329652 
L 517.443735 166.730363 
L 519.271744 155.52712 
L 521.099754 145.834225 
L 522.318428 140.260878 
L 523.537101 135.428371 
L 524.755774 131.358627 
L 525.974447 128.07011 
L 527.19312 125.577737 
L 528.411794 123.892816 
L 529.02113 123.355682 
L 529.630467 123.02299 
L 530.239803 122.895116 
L 530.84914 122.972206 
L 531.458477 123.254172 
L 532.067813 123.740694 
L 532.67715 124.431221 
L 533.286486 125.324968 
L 534.50516 127.71784 
L 535.723833 130.908455 
L 536.942506 134.882339 
L 538.161179 139.621462 
L 539.379853 145.104327 
L 541.207862 154.667832 
L 543.035872 165.750451 
L 544.863882 178.239113 
L 547.301229 196.855711 
L 549.738575 217.406477 
L 552.785258 245.244582 
L 557.050614 286.804518 
L 564.97199 364.664146 
L 568.018673 392.299594 
L 570.45602 412.635338 
L 572.893366 430.994059 
L 574.721376 443.263976 
L 576.549386 454.108591 
L 578.377396 463.41726 
L 579.596069 468.722162 
L 580.814742 473.277803 
L 582.033415 477.063515 
L 583.252088 480.062125 
L 584.470762 482.260029 
L 585.080098 483.055457 
L 585.689435 483.647255 
L 586.298771 484.034753 
L 586.908108 484.217511 
L 587.517445 484.195322 
L 588.126781 483.96821 
L 588.736118 483.536433 
L 589.345455 482.900482 
L 589.954791 482.061077 
L 591.173464 479.775946 
L 592.392138 476.691408 
L 593.610811 472.821454 
L 594.829484 468.183643 
L 596.048157 462.799014 
L 597.876167 453.376122 
L 599.704177 442.424757 
L 601.532187 430.056653 
L 603.969533 411.582052 
L 606.40688 391.14952 
L 609.453563 363.422571 
L 613.718919 321.944552 
L 621.640295 243.999078 
L 624.686978 216.250649 
L 627.124324 195.795326 
L 629.561671 177.293392 
L 631.389681 164.902102 
L 633.21769 153.925511 
L 635.0457 144.475608 
L 636.264373 139.072116 
L 637.483047 134.414857 
L 638.70172 130.524959 
L 639.920393 127.420069 
L 641.139066 125.114273 
L 641.748403 124.264447 
L 642.35774 123.618031 
L 642.967076 123.175759 
L 643.576413 122.938132 
L 644.185749 122.905419 
L 644.795086 123.077659 
L 645.404423 123.454655 
L 646.013759 124.035979 
L 646.623096 124.820973 
L 647.841769 126.998177 
L 649.060442 129.976388 
L 650.279115 133.742096 
L 651.497789 138.278217 
L 652.716462 143.564173 
L 654.544472 152.845686 
L 656.372482 163.664903 
L 658.200491 175.911443 
L 660.028501 189.460357 
L 662.465848 209.310832 
L 665.512531 236.481164 
L 669.16855 271.519571 
L 680.136609 378.550698 
L 683.183292 405.042375 
L 685.620639 424.201573 
L 687.448649 437.153524 
L 689.276658 448.742516 
L 691.104668 458.85031 
L 692.932678 467.373782 
L 694.151351 472.132281 
L 695.370025 476.126047 
L 696.588698 479.336965 
L 697.807371 481.750465 
L 698.416708 482.65462 
L 699.026044 483.355601 
L 699.635381 483.852611 
L 700.244717 484.145089 
L 700.854054 484.2327 
L 701.463391 484.115347 
L 702.072727 483.793163 
L 702.682064 483.266512 
L 703.2914 482.535993 
L 704.510074 480.466894 
L 705.728747 477.595253 
L 706.94742 473.934097 
L 708.166093 469.500035 
L 709.384767 464.313183 
L 711.212776 455.173805 
L 713.040786 444.487614 
L 714.868796 432.363637 
L 716.696806 418.925569 
L 719.134152 399.202729 
L 721.571499 377.746343 
L 724.618182 349.082976 
L 730.102211 294.811862 
L 734.976904 247.08638 
L 738.023587 219.118775 
L 740.460934 198.429298 
L 742.89828 179.645467 
L 744.72629 167.014467 
L 746.5543 155.776615 
L 747.163636 152.360502 
L 747.163636 152.360502 
" clip-path="url(#pf8746b9d57)" style="fill: none; stroke: #dd8452; stroke-width: 3; stroke-linecap: round"/>
   </g>
   <g id="line2d_18">
    <path d="M 138.436364 476.397039 
L 140.264373 473.388506 
L 142.092383 469.90802 
L 143.920393 465.964374 
L 145.748403 461.567529 
L 148.185749 455.019453 
L 150.623096 447.714966 
L 153.060442 439.686867 
L 155.497789 430.971203 
L 158.544472 419.169633 
L 161.591155 406.437884 
L 165.247174 390.058112 
L 168.903194 372.633195 
L 173.16855 351.21843 
L 178.65258 322.422329 
L 188.401966 269.649366 
L 195.714005 230.656915 
L 200.588698 205.819299 
L 204.854054 185.259961 
L 208.510074 168.735283 
L 211.556757 155.866848 
L 214.60344 143.915128 
L 217.650123 132.963956 
L 220.087469 124.975283 
L 222.524816 117.712137 
L 224.962162 111.207132 
L 226.790172 106.84361 
L 228.618182 102.934067 
L 230.446192 99.488379 
L 232.274201 96.515249 
L 234.102211 94.022189 
L 235.930221 92.015496 
L 237.148894 90.950458 
L 238.367568 90.105059 
L 239.586241 89.480246 
L 240.804914 89.076721 
L 242.023587 88.894938 
L 243.24226 88.9351 
L 244.460934 89.197163 
L 245.679607 89.680832 
L 246.89828 90.385564 
L 248.116953 91.310568 
L 249.335627 92.454805 
L 251.163636 94.579345 
L 252.991646 97.188845 
L 254.819656 100.276712 
L 256.647666 103.835147 
L 258.475676 107.855161 
L 260.303686 112.326598 
L 262.741032 118.971045 
L 265.178378 126.36798 
L 267.615725 134.484189 
L 270.053071 143.283229 
L 273.099754 155.181796 
L 276.146437 168.001882 
L 279.802457 184.47536 
L 283.458477 201.979677 
L 287.723833 223.467936 
L 293.207862 252.326734 
L 313.315971 359.673175 
L 317.581327 380.661908 
L 321.237346 397.633587 
L 324.893366 413.483623 
L 327.940049 425.719328 
L 330.986732 436.978912 
L 333.424079 445.230453 
L 335.861425 452.769538 
L 338.298771 459.562316 
L 340.736118 465.578285 
L 342.564128 469.564096 
L 344.392138 473.087617 
L 346.220147 476.139944 
L 348.048157 478.713369 
L 349.876167 480.80139 
L 351.09484 481.921079 
L 352.313514 482.821406 
L 353.532187 483.501361 
L 354.75086 483.960179 
L 355.969533 484.197345 
L 357.188206 484.212594 
L 358.40688 484.005907 
L 359.625553 483.577518 
L 360.844226 482.927906 
L 362.062899 482.057802 
L 363.281572 480.968183 
L 364.500246 479.660271 
L 366.328256 477.292385 
L 368.156265 474.442685 
L 369.984275 471.118369 
L 371.812285 467.327835 
L 373.640295 463.080658 
L 376.077641 456.72613 
L 378.514988 449.607527 
L 380.952334 441.756815 
L 383.389681 433.209243 
L 386.436364 421.603573 
L 389.483047 409.050651 
L 393.139066 392.861178 
L 396.795086 375.598256 
L 401.060442 354.334544 
L 406.544472 325.669515 
L 415.075184 279.561556 
L 423.605897 233.836834 
L 428.48059 208.849255 
L 432.745946 188.113993 
L 436.401966 171.407203 
L 439.448649 158.366312 
L 442.495332 146.224603 
L 445.542015 135.067244 
L 447.979361 126.902925 
L 450.416708 119.455478 
L 452.854054 112.758344 
L 455.2914 106.841594 
L 457.11941 102.932274 
L 458.94742 99.486814 
L 460.77543 96.513917 
L 462.60344 94.021092 
L 464.43145 92.014637 
L 465.650123 90.94976 
L 466.868796 90.104521 
L 468.087469 89.47987 
L 469.306143 89.076507 
L 470.524816 88.894886 
L 471.743489 88.935211 
L 472.962162 89.197435 
L 474.180835 89.681266 
L 475.399509 90.38616 
L 476.618182 91.311324 
L 477.836855 92.455721 
L 479.664865 94.580499 
L 481.492875 97.190233 
L 483.320885 100.278332 
L 485.148894 103.836994 
L 486.976904 107.857231 
L 488.804914 112.328885 
L 491.24226 118.973613 
L 493.679607 126.370816 
L 496.116953 134.487282 
L 498.5543 143.286565 
L 501.600983 155.185413 
L 504.647666 168.005756 
L 508.303686 184.479506 
L 511.959705 201.984053 
L 516.225061 223.472524 
L 521.709091 252.331502 
L 541.817199 359.677673 
L 546.082555 380.666165 
L 549.738575 397.637591 
L 553.394595 413.487335 
L 556.441278 425.722767 
L 559.487961 436.982053 
L 561.925307 445.233341 
L 564.362654 452.772159 
L 566.8 459.564658 
L 569.237346 465.580338 
L 571.065356 469.565927 
L 572.893366 473.089219 
L 574.721376 476.141315 
L 576.549386 478.714505 
L 578.377396 480.802288 
L 579.596069 481.921817 
L 580.814742 482.821984 
L 582.033415 483.501777 
L 583.252088 483.960433 
L 584.470762 484.197437 
L 585.689435 484.212524 
L 586.908108 484.005675 
L 588.126781 483.577124 
L 589.345455 482.927351 
L 590.564128 482.057086 
L 591.782801 480.967306 
L 593.001474 479.659236 
L 594.829484 477.291113 
L 596.657494 474.44118 
L 598.485504 471.116635 
L 600.313514 467.325876 
L 602.141523 463.078479 
L 604.57887 456.723666 
L 607.016216 449.60479 
L 609.453563 441.753817 
L 611.890909 433.205997 
L 614.937592 421.600038 
L 617.984275 409.046851 
L 621.640295 392.857097 
L 625.296314 375.593934 
L 629.561671 354.329996 
L 635.0457 325.66477 
L 643.576413 279.556717 
L 652.107125 233.832168 
L 656.981818 208.844804 
L 661.247174 188.109795 
L 664.903194 171.403268 
L 667.949877 158.362627 
L 670.99656 146.221194 
L 674.043243 135.064133 
L 676.48059 126.90007 
L 678.917936 119.452892 
L 681.355283 112.756038 
L 683.792629 106.839578 
L 685.620639 102.930482 
L 687.448649 99.48525 
L 689.276658 96.512585 
L 691.104668 94.019996 
L 692.932678 92.013779 
L 694.151351 90.949062 
L 695.370025 90.103984 
L 696.588698 89.479494 
L 697.807371 89.076293 
L 699.026044 88.894835 
L 700.244717 88.935321 
L 701.463391 89.197708 
L 702.682064 89.681701 
L 703.900737 90.386755 
L 705.11941 91.312081 
L 706.338084 92.456637 
L 708.166093 94.581653 
L 709.994103 97.191622 
L 711.822113 100.279952 
L 713.650123 103.838842 
L 715.478133 107.8593 
L 717.306143 112.331172 
L 719.743489 118.97618 
L 722.180835 126.373653 
L 724.618182 134.490375 
L 727.055528 143.2899 
L 730.102211 155.18903 
L 733.148894 168.00963 
L 736.804914 184.483652 
L 740.460934 201.988429 
L 744.72629 223.477112 
L 747.163636 236.164996 
L 747.163636 236.164996 
" clip-path="url(#pf8746b9d57)" style="fill: none; stroke: #55a868; stroke-width: 3; stroke-linecap: round"/>
   </g>
   <g id="patch_3">
    <path d="M 108 504 
L 108 69.12 
" style="fill: none; stroke: #262626; stroke-width: 2.5; stroke-linejoin: miter; stroke-linecap: square"/>
   </g>
   <g id="patch_4">
    <path d="M 777.6 504 
L 777.6 69.12 
" style="fill: none; stroke: #262626; stroke-width: 2.5; stroke-linejoin: miter; stroke-linecap: square"/>
   </g>
   <g id="patch_5">
    <path d="M 108 504 
L 777.6 504 
" style="fill: none; stroke: #262626; stroke-width: 2.5; stroke-linejoin: miter; stroke-linecap: square"/>
   </g>
   <g id="patch_6">
    <path d="M 108 69.12 
L 777.6 69.12 
" style="fill: none; stroke: #262626; stroke-width: 2.5; stroke-linejoin: miter; stroke-linecap: square"/>
   </g>
   <g id="legend_1">
    <g id="patch_7">
     <path d="M 470.115625 338.297813 
L 762.2 338.297813 
Q 766.6 338.297813 766.6 333.897812 
L 766.6 239.222188 
Q 766.6 234.822188 762.2 234.822188 
L 470.115625 234.822188 
Q 465.715625 234.822188 465.715625 239.222188 
L 465.715625 333.897812 
Q 465.715625 338.297813 470.115625 338.297813 
z
" style="fill: #ffffff; opacity: 0.8; stroke: #cccccc; stroke-width: 2; stroke-linejoin: miter"/>
    </g>
    <g id="line2d_19">
     <path d="M 474.515625 252.63875 
L 496.515625 252.63875 
L 518.515625 252.63875 
" style="fill: none; stroke-dasharray: 11.1,4.8; stroke-dashoffset: 0; stroke: #4c72b0; stroke-width: 3"/>
     <g>
      <use xlink:href="#mc30a2b79a8" x="496.515625" y="252.63875" style="fill: #4c72b0; stroke: #4c72b0"/>
     </g>
    </g>
    <g id="text_18">
     <!-- search -->
     <g style="fill: #262626" transform="translate(536.115625 260.33875)scale(0.22 -0.22)">
      <defs>
       <path id="DejaVuSans-68" d="M 3513 2113 
L 3513 0 
L 2938 0 
L 2938 2094 
Q 2938 2591 2744 2837 
Q 2550 3084 2163 3084 
Q 1697 3084 1428 2787 
Q 1159 2491 1159 1978 
L 1159 0 
L 581 0 
L 581 4863 
L 1159 4863 
L 1159 2956 
Q 1366 3272 1645 3428 
Q 1925 3584 2291 3584 
Q 2894 3584 3203 3211 
Q 3513 2838 3513 2113 
z
" transform="scale(0.015625)"/>
      </defs>
      <use xlink:href="#DejaVuSans-73"/>
      <use xlink:href="#DejaVuSans-65" x="52.099609"/>
      <use xlink:href="#DejaVuSans-61" x="113.623047"/>
      <use xlink:href="#DejaVuSans-72" x="174.902344"/>
      <use xlink:href="#DejaVuSans-63" x="213.765625"/>
      <use xlink:href="#DejaVuSans-68" x="268.746094"/>
     </g>
    </g>
    <g id="line2d_20">
     <path d="M 474.515625 284.930625 
L 496.515625 284.930625 
L 518.515625 284.930625 
" style="fill: none; stroke: #dd8452; stroke-width: 3; stroke-linecap: round"/>
    </g>
    <g id="text_19">
     <!-- predicted frequency -->
     <g style="fill: #262626" transform="translate(536.115625 292.630625)scale(0.22 -0.22)">
      <defs>
       <path id="DejaVuSans-64" d="M 2906 2969 
L 2906 4863 
L 3481 4863 
L 3481 0 
L 2906 0 
L 2906 525 
Q 2725 213 2448 61 
Q 2172 -91 1784 -91 
Q 1150 -91 751 415 
Q 353 922 353 1747 
Q 353 2572 751 3078 
Q 1150 3584 1784 3584 
Q 2172 3584 2448 3432 
Q 2725 3281 2906 2969 
z
M 947 1747 
Q 947 1113 1208 752 
Q 1469 391 1925 391 
Q 2381 391 2643 752 
Q 2906 1113 2906 1747 
Q 2906 2381 2643 2742 
Q 2381 3103 1925 3103 
Q 1469 3103 1208 2742 
Q 947 2381 947 1747 
z
" transform="scale(0.015625)"/>
       <path id="DejaVuSans-71" d="M 947 1747 
Q 947 1113 1208 752 
Q 1469 391 1925 391 
Q 2381 391 2643 752 
Q 2906 1113 2906 1747 
Q 2906 2381 2643 2742 
Q 2381 3103 1925 3103 
Q 1469 3103 1208 2742 
Q 947 2381 947 1747 
z
M 2906 525 
Q 2725 213 2448 61 
Q 2172 -91 1784 -91 
Q 1150 -91 751 415 
Q 353 922 353 1747 
Q 353 2572 751 3078 
Q 1150 3584 1784 3584 
Q 2172 3584 2448 3432 
Q 2725 3281 2906 2969 
L 2906 3500 
L 3481 3500 
L 3481 -1331 
L 2906 -1331 
L 2906 525 
z
" transform="scale(0.015625)"/>
       <path id="DejaVuSans-6e" d="M 3513 2113 
L 3513 0 
L 2938 0 
L 2938 2094 
Q 2938 2591 2744 2837 
Q 2550 3084 2163 3084 
Q 1697 3084 1428 2787 
Q 1159 2491 1159 1978 
L 1159 0 
L 581 0 
L 581 3500 
L 1159 3500 
L 1159 2956 
Q 1366 3272 1645 3428 
Q 1925 3584 2291 3584 
Q 2894 3584 3203 3211 
Q 3513 2838 3513 2113 
z
" transform="scale(0.015625)"/>
      </defs>
      <use xlink:href="#DejaVuSans-70"/>
      <use xlink:href="#DejaVuSans-72" x="63.476562"/>
      <use xlink:href="#DejaVuSans-65" x="102.339844"/>
      <use xlink:href="#DejaVuSans-64" x="163.863281"/>
      <use xlink:href="#DejaVuSans-69" x="227.339844"/>
      <use xlink:href="#DejaVuSans-63" x="255.123047"/>
      <use xlink:href="#DejaVuSans-74" x="310.103516"/>
      <use xlink:href="#DejaVuSans-65" x="349.3125"/>
      <use xlink:href="#DejaVuSans-64" x="410.835938"/>
      <use xlink:href="#DejaVuSans-20" x="474.3125"/>
      <use xlink:href="#DejaVuSans-66" x="506.099609"/>
      <use xlink:href="#DejaVuSans-72" x="541.304688"/>
      <use xlink:href="#DejaVuSans-65" x="580.167969"/>
      <use xlink:href="#DejaVuSans-71" x="641.691406"/>
      <use xlink:href="#DejaVuSans-75" x="705.167969"/>
      <use xlink:href="#DejaVuSans-65" x="768.546875"/>
      <use xlink:href="#DejaVuSans-6e" x="830.070312"/>
      <use xlink:href="#DejaVuSans-63" x="893.449219"/>
      <use xlink:href="#DejaVuSans-79" x="948.429688"/>
     </g>
    </g>
    <g id="line2d_21">
     <path d="M 474.515625 317.2225 
L 496.515625 317.2225 
L 518.515625 317.2225 
" style="fill: none; stroke: #55a868; stroke-width: 3; stroke-linecap: round"/>
    </g>
    <g id="text_20">
     <!-- fit -->
     <g style="fill: #262626" transform="translate(536.115625 324.9225)scale(0.22 -0.22)">
      <use xlink:href="#DejaVuSans-66"/>
      <use xlink:href="#DejaVuSans-69" x="35.205078"/>
      <use xlink:href="#DejaVuSans-74" x="62.988281"/>
     </g>
    </g>
   </g>
  </g>
 </g>
 <defs>
  <clipPath id="pf8746b9d57">
   <rect x="108" y="69.12" width="669.6" height="434.88"/>
  </clipPath>
 </defs>
</svg>
