<?xml version="1.0" encoding="utf-8" standalone="no"?>
<!DOCTYPE svg PUBLIC "-//W3C//DTD SVG 1.1//EN"
  "http://www.w3.org/Graphics/SVG/1.1/DTD/svg11.dtd">
<svg xmlns:xlink="http://www.w3.org/1999/xlink" width="864pt" height="576pt" viewBox="0 0 864 576" xmlns="http://www.w3.org/2000/svg" version="1.1">
 <metadata>
  <rdf:RDF xmlns:dc="http://purl.org/dc/elements/1.1/" xmlns:cc="http://creativecommons.org/ns#" xmlns:rdf="http://www.w3.org/1999/02/22-rdf-syntax-ns#">
   <cc:Work>
    <dc:type rdf:resource="http://purl.org/dc/dcmitype/StillImage"/>
    <dc:date>2023-05-12T17:54:02.042713</dc:date>
    <dc:format>image/svg+xml</dc:format>
    <dc:creator>
     <cc:Agent>
      <dc:title>Matplotlib v3.5.1, https://matplotlib.org/</dc:title>
     </cc:Agent>
    </dc:creator>
   </cc:Work>
  </rdf:RDF>
 </metadata>
 <defs>
  <style type="text/css">*{stroke-linejoin: round; stroke-linecap: butt}</style>
 </defs>
 <g id="figure_1">
  <g id="patch_1">
   <path d="M 0 576 
L 864 576 
L 864 0 
L 0 0 
z
" style="fill: #ffffff"/>
  </g>
  <g id="axes_1">
   <g id="patch_2">
    <path d="M 108 504 
L 777.6 504 
L 777.6 69.12 
L 108 69.12 
z
" style="fill: #ffffff"/>
   </g>
   <g id="matplotlib.axis_1">
    <g id="xtick_1">
     <g id="line2d_1">
      <defs>
       <path id="m9f57331c0d" d="M 0 0 
L 0 12 
" style="stroke: #262626; stroke-width: 2.5"/>
      </defs>
      <g>
       <use xlink:href="#m9f57331c0d" x="138.436364" y="504" style="fill: #262626; stroke: #262626; stroke-width: 2.5"/>
      </g>
     </g>
     <g id="text_1">
      <!-- 0 -->
      <g style="fill: #262626" transform="translate(131.437614 536.216563)scale(0.22 -0.22)">
       <defs>
        <path id="DejaVuSans-30" d="M 2034 4250 
Q 1547 4250 1301 3770 
Q 1056 3291 1056 2328 
Q 1056 1369 1301 889 
Q 1547 409 2034 409 
Q 2525 409 2770 889 
Q 3016 1369 3016 2328 
Q 3016 3291 2770 3770 
Q 2525 4250 2034 4250 
z
M 2034 4750 
Q 2819 4750 3233 4129 
Q 3647 3509 3647 2328 
Q 3647 1150 3233 529 
Q 2819 -91 2034 -91 
Q 1250 -91 836 529 
Q 422 1150 422 2328 
Q 422 3509 836 4129 
Q 1250 4750 2034 4750 
z
" transform="scale(0.015625)"/>
       </defs>
       <use xlink:href="#DejaVuSans-30"/>
      </g>
     </g>
    </g>
    <g id="xtick_2">
     <g id="line2d_2">
      <g>
       <use xlink:href="#m9f57331c0d" x="260.181818" y="504" style="fill: #262626; stroke: #262626; stroke-width: 2.5"/>
      </g>
     </g>
     <g id="text_2">
      <!-- 10 -->
      <g style="fill: #262626" transform="translate(246.184318 536.216563)scale(0.22 -0.22)">
       <defs>
        <path id="DejaVuSans-31" d="M 794 531 
L 1825 531 
L 1825 4091 
L 703 3866 
L 703 4441 
L 1819 4666 
L 2450 4666 
L 2450 531 
L 3481 531 
L 3481 0 
L 794 0 
L 794 531 
z
" transform="scale(0.015625)"/>
       </defs>
       <use xlink:href="#DejaVuSans-31"/>
       <use xlink:href="#DejaVuSans-30" x="63.623047"/>
      </g>
     </g>
    </g>
    <g id="xtick_3">
     <g id="line2d_3">
      <g>
       <use xlink:href="#m9f57331c0d" x="381.927273" y="504" style="fill: #262626; stroke: #262626; stroke-width: 2.5"/>
      </g>
     </g>
     <g id="text_3">
      <!-- 20 -->
      <g style="fill: #262626" transform="translate(367.929773 536.216563)scale(0.22 -0.22)">
       <defs>
        <path id="DejaVuSans-32" d="M 1228 531 
L 3431 531 
L 3431 0 
L 469 0 
L 469 531 
Q 828 903 1448 1529 
Q 2069 2156 2228 2338 
Q 2531 2678 2651 2914 
Q 2772 3150 2772 3378 
Q 2772 3750 2511 3984 
Q 2250 4219 1831 4219 
Q 1534 4219 1204 4116 
Q 875 4013 500 3803 
L 500 4441 
Q 881 4594 1212 4672 
Q 1544 4750 1819 4750 
Q 2544 4750 2975 4387 
Q 3406 4025 3406 3419 
Q 3406 3131 3298 2873 
Q 3191 2616 2906 2266 
Q 2828 2175 2409 1742 
Q 1991 1309 1228 531 
z
" transform="scale(0.015625)"/>
       </defs>
       <use xlink:href="#DejaVuSans-32"/>
       <use xlink:href="#DejaVuSans-30" x="63.623047"/>
      </g>
     </g>
    </g>
    <g id="xtick_4">
     <g id="line2d_4">
      <g>
       <use xlink:href="#m9f57331c0d" x="503.672727" y="504" style="fill: #262626; stroke: #262626; stroke-width: 2.5"/>
      </g>
     </g>
     <g id="text_4">
      <!-- 30 -->
      <g style="fill: #262626" transform="translate(489.675227 536.216563)scale(0.22 -0.22)">
       <defs>
        <path id="DejaVuSans-33" d="M 2597 2516 
Q 3050 2419 3304 2112 
Q 3559 1806 3559 1356 
Q 3559 666 3084 287 
Q 2609 -91 1734 -91 
Q 1441 -91 1130 -33 
Q 819 25 488 141 
L 488 750 
Q 750 597 1062 519 
Q 1375 441 1716 441 
Q 2309 441 2620 675 
Q 2931 909 2931 1356 
Q 2931 1769 2642 2001 
Q 2353 2234 1838 2234 
L 1294 2234 
L 1294 2753 
L 1863 2753 
Q 2328 2753 2575 2939 
Q 2822 3125 2822 3475 
Q 2822 3834 2567 4026 
Q 2313 4219 1838 4219 
Q 1578 4219 1281 4162 
Q 984 4106 628 3988 
L 628 4550 
Q 988 4650 1302 4700 
Q 1616 4750 1894 4750 
Q 2613 4750 3031 4423 
Q 3450 4097 3450 3541 
Q 3450 3153 3228 2886 
Q 3006 2619 2597 2516 
z
" transform="scale(0.015625)"/>
       </defs>
       <use xlink:href="#DejaVuSans-33"/>
       <use xlink:href="#DejaVuSans-30" x="63.623047"/>
      </g>
     </g>
    </g>
    <g id="xtick_5">
     <g id="line2d_5">
      <g>
       <use xlink:href="#m9f57331c0d" x="625.418182" y="504" style="fill: #262626; stroke: #262626; stroke-width: 2.5"/>
      </g>
     </g>
     <g id="text_5">
      <!-- 40 -->
      <g style="fill: #262626" transform="translate(611.420682 536.216563)scale(0.22 -0.22)">
       <defs>
        <path id="DejaVuSans-34" d="M 2419 4116 
L 825 1625 
L 2419 1625 
L 2419 4116 
z
M 2253 4666 
L 3047 4666 
L 3047 1625 
L 3713 1625 
L 3713 1100 
L 3047 1100 
L 3047 0 
L 2419 0 
L 2419 1100 
L 313 1100 
L 313 1709 
L 2253 4666 
z
" transform="scale(0.015625)"/>
       </defs>
       <use xlink:href="#DejaVuSans-34"/>
       <use xlink:href="#DejaVuSans-30" x="63.623047"/>
      </g>
     </g>
    </g>
    <g id="xtick_6">
     <g id="line2d_6">
      <g>
       <use xlink:href="#m9f57331c0d" x="747.163636" y="504" style="fill: #262626; stroke: #262626; stroke-width: 2.5"/>
      </g>
     </g>
     <g id="text_6">
      <!-- 50 -->
      <g style="fill: #262626" transform="translate(733.166136 536.216563)scale(0.22 -0.22)">
       <defs>
        <path id="DejaVuSans-35" d="M 691 4666 
L 3169 4666 
L 3169 4134 
L 1269 4134 
L 1269 2991 
Q 1406 3038 1543 3061 
Q 1681 3084 1819 3084 
Q 2600 3084 3056 2656 
Q 3513 2228 3513 1497 
Q 3513 744 3044 326 
Q 2575 -91 1722 -91 
Q 1428 -91 1123 -41 
Q 819 9 494 109 
L 494 744 
Q 775 591 1075 516 
Q 1375 441 1709 441 
Q 2250 441 2565 725 
Q 2881 1009 2881 1497 
Q 2881 1984 2565 2268 
Q 2250 2553 1709 2553 
Q 1456 2553 1204 2497 
Q 953 2441 691 2322 
L 691 4666 
z
" transform="scale(0.015625)"/>
       </defs>
       <use xlink:href="#DejaVuSans-35"/>
       <use xlink:href="#DejaVuSans-30" x="63.623047"/>
      </g>
     </g>
    </g>
    <g id="text_7">
     <!-- steps -->
     <g style="fill: #262626" transform="translate(410.59125 563.028125)scale(0.24 -0.24)">
      <defs>
       <path id="DejaVuSans-73" d="M 2834 3397 
L 2834 2853 
Q 2591 2978 2328 3040 
Q 2066 3103 1784 3103 
Q 1356 3103 1142 2972 
Q 928 2841 928 2578 
Q 928 2378 1081 2264 
Q 1234 2150 1697 2047 
L 1894 2003 
Q 2506 1872 2764 1633 
Q 3022 1394 3022 966 
Q 3022 478 2636 193 
Q 2250 -91 1575 -91 
Q 1294 -91 989 -36 
Q 684 19 347 128 
L 347 722 
Q 666 556 975 473 
Q 1284 391 1588 391 
Q 1994 391 2212 530 
Q 2431 669 2431 922 
Q 2431 1156 2273 1281 
Q 2116 1406 1581 1522 
L 1381 1569 
Q 847 1681 609 1914 
Q 372 2147 372 2553 
Q 372 3047 722 3315 
Q 1072 3584 1716 3584 
Q 2034 3584 2315 3537 
Q 2597 3491 2834 3397 
z
" transform="scale(0.015625)"/>
       <path id="DejaVuSans-74" d="M 1172 4494 
L 1172 3500 
L 2356 3500 
L 2356 3053 
L 1172 3053 
L 1172 1153 
Q 1172 725 1289 603 
Q 1406 481 1766 481 
L 2356 481 
L 2356 0 
L 1766 0 
Q 1100 0 847 248 
Q 594 497 594 1153 
L 594 3053 
L 172 3053 
L 172 3500 
L 594 3500 
L 594 4494 
L 1172 4494 
z
" transform="scale(0.015625)"/>
       <path id="DejaVuSans-65" d="M 3597 1894 
L 3597 1613 
L 953 1613 
Q 991 1019 1311 708 
Q 1631 397 2203 397 
Q 2534 397 2845 478 
Q 3156 559 3463 722 
L 3463 178 
Q 3153 47 2828 -22 
Q 2503 -91 2169 -91 
Q 1331 -91 842 396 
Q 353 884 353 1716 
Q 353 2575 817 3079 
Q 1281 3584 2069 3584 
Q 2775 3584 3186 3129 
Q 3597 2675 3597 1894 
z
M 3022 2063 
Q 3016 2534 2758 2815 
Q 2500 3097 2075 3097 
Q 1594 3097 1305 2825 
Q 1016 2553 972 2059 
L 3022 2063 
z
" transform="scale(0.015625)"/>
       <path id="DejaVuSans-70" d="M 1159 525 
L 1159 -1331 
L 581 -1331 
L 581 3500 
L 1159 3500 
L 1159 2969 
Q 1341 3281 1617 3432 
Q 1894 3584 2278 3584 
Q 2916 3584 3314 3078 
Q 3713 2572 3713 1747 
Q 3713 922 3314 415 
Q 2916 -91 2278 -91 
Q 1894 -91 1617 61 
Q 1341 213 1159 525 
z
M 3116 1747 
Q 3116 2381 2855 2742 
Q 2594 3103 2138 3103 
Q 1681 3103 1420 2742 
Q 1159 2381 1159 1747 
Q 1159 1113 1420 752 
Q 1681 391 2138 391 
Q 2594 391 2855 752 
Q 3116 1113 3116 1747 
z
" transform="scale(0.015625)"/>
      </defs>
      <use xlink:href="#DejaVuSans-73"/>
      <use xlink:href="#DejaVuSans-74" x="52.099609"/>
      <use xlink:href="#DejaVuSans-65" x="91.308594"/>
      <use xlink:href="#DejaVuSans-70" x="152.832031"/>
      <use xlink:href="#DejaVuSans-73" x="216.308594"/>
     </g>
    </g>
   </g>
   <g id="matplotlib.axis_2">
    <g id="ytick_1">
     <g id="line2d_7">
      <defs>
       <path id="mcb3ea4669c" d="M 0 0 
L -12 0 
" style="stroke: #262626; stroke-width: 2.5"/>
      </defs>
      <g>
       <use xlink:href="#mcb3ea4669c" x="108" y="484.233687" style="fill: #262626; stroke: #262626; stroke-width: 2.5"/>
      </g>
     </g>
     <g id="text_8">
      <!-- 0.00 -->
      <g style="fill: #262626" transform="translate(43.515625 492.591968)scale(0.22 -0.22)">
       <defs>
        <path id="DejaVuSans-2e" d="M 684 794 
L 1344 794 
L 1344 0 
L 684 0 
L 684 794 
z
" transform="scale(0.015625)"/>
       </defs>
       <use xlink:href="#DejaVuSans-30"/>
       <use xlink:href="#DejaVuSans-2e" x="63.623047"/>
       <use xlink:href="#DejaVuSans-30" x="95.410156"/>
       <use xlink:href="#DejaVuSans-30" x="159.033203"/>
      </g>
     </g>
    </g>
    <g id="ytick_2">
     <g id="line2d_8">
      <g>
       <use xlink:href="#mcb3ea4669c" x="108" y="388.263444" style="fill: #262626; stroke: #262626; stroke-width: 2.5"/>
      </g>
     </g>
     <g id="text_9">
      <!-- 0.02 -->
      <g style="fill: #262626" transform="translate(43.515625 396.621725)scale(0.22 -0.22)">
       <use xlink:href="#DejaVuSans-30"/>
       <use xlink:href="#DejaVuSans-2e" x="63.623047"/>
       <use xlink:href="#DejaVuSans-30" x="95.410156"/>
       <use xlink:href="#DejaVuSans-32" x="159.033203"/>
      </g>
     </g>
    </g>
    <g id="ytick_3">
     <g id="line2d_9">
      <g>
       <use xlink:href="#mcb3ea4669c" x="108" y="292.293201" style="fill: #262626; stroke: #262626; stroke-width: 2.5"/>
      </g>
     </g>
     <g id="text_10">
      <!-- 0.04 -->
      <g style="fill: #262626" transform="translate(43.515625 300.651482)scale(0.22 -0.22)">
       <use xlink:href="#DejaVuSans-30"/>
       <use xlink:href="#DejaVuSans-2e" x="63.623047"/>
       <use xlink:href="#DejaVuSans-30" x="95.410156"/>
       <use xlink:href="#DejaVuSans-34" x="159.033203"/>
      </g>
     </g>
    </g>
    <g id="ytick_4">
     <g id="line2d_10">
      <g>
       <use xlink:href="#mcb3ea4669c" x="108" y="196.322958" style="fill: #262626; stroke: #262626; stroke-width: 2.5"/>
      </g>
     </g>
     <g id="text_11">
      <!-- 0.06 -->
      <g style="fill: #262626" transform="translate(43.515625 204.681239)scale(0.22 -0.22)">
       <defs>
        <path id="DejaVuSans-36" d="M 2113 2584 
Q 1688 2584 1439 2293 
Q 1191 2003 1191 1497 
Q 1191 994 1439 701 
Q 1688 409 2113 409 
Q 2538 409 2786 701 
Q 3034 994 3034 1497 
Q 3034 2003 2786 2293 
Q 2538 2584 2113 2584 
z
M 3366 4563 
L 3366 3988 
Q 3128 4100 2886 4159 
Q 2644 4219 2406 4219 
Q 1781 4219 1451 3797 
Q 1122 3375 1075 2522 
Q 1259 2794 1537 2939 
Q 1816 3084 2150 3084 
Q 2853 3084 3261 2657 
Q 3669 2231 3669 1497 
Q 3669 778 3244 343 
Q 2819 -91 2113 -91 
Q 1303 -91 875 529 
Q 447 1150 447 2328 
Q 447 3434 972 4092 
Q 1497 4750 2381 4750 
Q 2619 4750 2861 4703 
Q 3103 4656 3366 4563 
z
" transform="scale(0.015625)"/>
       </defs>
       <use xlink:href="#DejaVuSans-30"/>
       <use xlink:href="#DejaVuSans-2e" x="63.623047"/>
       <use xlink:href="#DejaVuSans-30" x="95.410156"/>
       <use xlink:href="#DejaVuSans-36" x="159.033203"/>
      </g>
     </g>
    </g>
    <g id="ytick_5">
     <g id="line2d_11">
      <g>
       <use xlink:href="#mcb3ea4669c" x="108" y="100.352715" style="fill: #262626; stroke: #262626; stroke-width: 2.5"/>
      </g>
     </g>
     <g id="text_12">
      <!-- 0.08 -->
      <g style="fill: #262626" transform="translate(43.515625 108.710996)scale(0.22 -0.22)">
       <defs>
        <path id="DejaVuSans-38" d="M 2034 2216 
Q 1584 2216 1326 1975 
Q 1069 1734 1069 1313 
Q 1069 891 1326 650 
Q 1584 409 2034 409 
Q 2484 409 2743 651 
Q 3003 894 3003 1313 
Q 3003 1734 2745 1975 
Q 2488 2216 2034 2216 
z
M 1403 2484 
Q 997 2584 770 2862 
Q 544 3141 544 3541 
Q 544 4100 942 4425 
Q 1341 4750 2034 4750 
Q 2731 4750 3128 4425 
Q 3525 4100 3525 3541 
Q 3525 3141 3298 2862 
Q 3072 2584 2669 2484 
Q 3125 2378 3379 2068 
Q 3634 1759 3634 1313 
Q 3634 634 3220 271 
Q 2806 -91 2034 -91 
Q 1263 -91 848 271 
Q 434 634 434 1313 
Q 434 1759 690 2068 
Q 947 2378 1403 2484 
z
M 1172 3481 
Q 1172 3119 1398 2916 
Q 1625 2713 2034 2713 
Q 2441 2713 2670 2916 
Q 2900 3119 2900 3481 
Q 2900 3844 2670 4047 
Q 2441 4250 2034 4250 
Q 1625 4250 1398 4047 
Q 1172 3844 1172 3481 
z
" transform="scale(0.015625)"/>
       </defs>
       <use xlink:href="#DejaVuSans-30"/>
       <use xlink:href="#DejaVuSans-2e" x="63.623047"/>
       <use xlink:href="#DejaVuSans-30" x="95.410156"/>
       <use xlink:href="#DejaVuSans-38" x="159.033203"/>
      </g>
     </g>
    </g>
    <g id="text_13">
     <!-- probability of success -->
     <g style="fill: #262626" transform="translate(34.524375 416.715)rotate(-90)scale(0.24 -0.24)">
      <defs>
       <path id="DejaVuSans-72" d="M 2631 2963 
Q 2534 3019 2420 3045 
Q 2306 3072 2169 3072 
Q 1681 3072 1420 2755 
Q 1159 2438 1159 1844 
L 1159 0 
L 581 0 
L 581 3500 
L 1159 3500 
L 1159 2956 
Q 1341 3275 1631 3429 
Q 1922 3584 2338 3584 
Q 2397 3584 2469 3576 
Q 2541 3569 2628 3553 
L 2631 2963 
z
" transform="scale(0.015625)"/>
       <path id="DejaVuSans-6f" d="M 1959 3097 
Q 1497 3097 1228 2736 
Q 959 2375 959 1747 
Q 959 1119 1226 758 
Q 1494 397 1959 397 
Q 2419 397 2687 759 
Q 2956 1122 2956 1747 
Q 2956 2369 2687 2733 
Q 2419 3097 1959 3097 
z
M 1959 3584 
Q 2709 3584 3137 3096 
Q 3566 2609 3566 1747 
Q 3566 888 3137 398 
Q 2709 -91 1959 -91 
Q 1206 -91 779 398 
Q 353 888 353 1747 
Q 353 2609 779 3096 
Q 1206 3584 1959 3584 
z
" transform="scale(0.015625)"/>
       <path id="DejaVuSans-62" d="M 3116 1747 
Q 3116 2381 2855 2742 
Q 2594 3103 2138 3103 
Q 1681 3103 1420 2742 
Q 1159 2381 1159 1747 
Q 1159 1113 1420 752 
Q 1681 391 2138 391 
Q 2594 391 2855 752 
Q 3116 1113 3116 1747 
z
M 1159 2969 
Q 1341 3281 1617 3432 
Q 1894 3584 2278 3584 
Q 2916 3584 3314 3078 
Q 3713 2572 3713 1747 
Q 3713 922 3314 415 
Q 2916 -91 2278 -91 
Q 1894 -91 1617 61 
Q 1341 213 1159 525 
L 1159 0 
L 581 0 
L 581 4863 
L 1159 4863 
L 1159 2969 
z
" transform="scale(0.015625)"/>
       <path id="DejaVuSans-61" d="M 2194 1759 
Q 1497 1759 1228 1600 
Q 959 1441 959 1056 
Q 959 750 1161 570 
Q 1363 391 1709 391 
Q 2188 391 2477 730 
Q 2766 1069 2766 1631 
L 2766 1759 
L 2194 1759 
z
M 3341 1997 
L 3341 0 
L 2766 0 
L 2766 531 
Q 2569 213 2275 61 
Q 1981 -91 1556 -91 
Q 1019 -91 701 211 
Q 384 513 384 1019 
Q 384 1609 779 1909 
Q 1175 2209 1959 2209 
L 2766 2209 
L 2766 2266 
Q 2766 2663 2505 2880 
Q 2244 3097 1772 3097 
Q 1472 3097 1187 3025 
Q 903 2953 641 2809 
L 641 3341 
Q 956 3463 1253 3523 
Q 1550 3584 1831 3584 
Q 2591 3584 2966 3190 
Q 3341 2797 3341 1997 
z
" transform="scale(0.015625)"/>
       <path id="DejaVuSans-69" d="M 603 3500 
L 1178 3500 
L 1178 0 
L 603 0 
L 603 3500 
z
M 603 4863 
L 1178 4863 
L 1178 4134 
L 603 4134 
L 603 4863 
z
" transform="scale(0.015625)"/>
       <path id="DejaVuSans-6c" d="M 603 4863 
L 1178 4863 
L 1178 0 
L 603 0 
L 603 4863 
z
" transform="scale(0.015625)"/>
       <path id="DejaVuSans-79" d="M 2059 -325 
Q 1816 -950 1584 -1140 
Q 1353 -1331 966 -1331 
L 506 -1331 
L 506 -850 
L 844 -850 
Q 1081 -850 1212 -737 
Q 1344 -625 1503 -206 
L 1606 56 
L 191 3500 
L 800 3500 
L 1894 763 
L 2988 3500 
L 3597 3500 
L 2059 -325 
z
" transform="scale(0.015625)"/>
       <path id="DejaVuSans-20" transform="scale(0.015625)"/>
       <path id="DejaVuSans-66" d="M 2375 4863 
L 2375 4384 
L 1825 4384 
Q 1516 4384 1395 4259 
Q 1275 4134 1275 3809 
L 1275 3500 
L 2222 3500 
L 2222 3053 
L 1275 3053 
L 1275 0 
L 697 0 
L 697 3053 
L 147 3053 
L 147 3500 
L 697 3500 
L 697 3744 
Q 697 4328 969 4595 
Q 1241 4863 1831 4863 
L 2375 4863 
z
" transform="scale(0.015625)"/>
       <path id="DejaVuSans-75" d="M 544 1381 
L 544 3500 
L 1119 3500 
L 1119 1403 
Q 1119 906 1312 657 
Q 1506 409 1894 409 
Q 2359 409 2629 706 
Q 2900 1003 2900 1516 
L 2900 3500 
L 3475 3500 
L 3475 0 
L 2900 0 
L 2900 538 
Q 2691 219 2414 64 
Q 2138 -91 1772 -91 
Q 1169 -91 856 284 
Q 544 659 544 1381 
z
M 1991 3584 
L 1991 3584 
z
" transform="scale(0.015625)"/>
       <path id="DejaVuSans-63" d="M 3122 3366 
L 3122 2828 
Q 2878 2963 2633 3030 
Q 2388 3097 2138 3097 
Q 1578 3097 1268 2742 
Q 959 2388 959 1747 
Q 959 1106 1268 751 
Q 1578 397 2138 397 
Q 2388 397 2633 464 
Q 2878 531 3122 666 
L 3122 134 
Q 2881 22 2623 -34 
Q 2366 -91 2075 -91 
Q 1284 -91 818 406 
Q 353 903 353 1747 
Q 353 2603 823 3093 
Q 1294 3584 2113 3584 
Q 2378 3584 2631 3529 
Q 2884 3475 3122 3366 
z
" transform="scale(0.015625)"/>
      </defs>
      <use xlink:href="#DejaVuSans-70"/>
      <use xlink:href="#DejaVuSans-72" x="63.476562"/>
      <use xlink:href="#DejaVuSans-6f" x="102.339844"/>
      <use xlink:href="#DejaVuSans-62" x="163.521484"/>
      <use xlink:href="#DejaVuSans-61" x="226.998047"/>
      <use xlink:href="#DejaVuSans-62" x="288.277344"/>
      <use xlink:href="#DejaVuSans-69" x="351.753906"/>
      <use xlink:href="#DejaVuSans-6c" x="379.537109"/>
      <use xlink:href="#DejaVuSans-69" x="407.320312"/>
      <use xlink:href="#DejaVuSans-74" x="435.103516"/>
      <use xlink:href="#DejaVuSans-79" x="474.3125"/>
      <use xlink:href="#DejaVuSans-20" x="533.492188"/>
      <use xlink:href="#DejaVuSans-6f" x="565.279297"/>
      <use xlink:href="#DejaVuSans-66" x="626.460938"/>
      <use xlink:href="#DejaVuSans-20" x="661.666016"/>
      <use xlink:href="#DejaVuSans-73" x="693.453125"/>
      <use xlink:href="#DejaVuSans-75" x="745.552734"/>
      <use xlink:href="#DejaVuSans-63" x="808.931641"/>
      <use xlink:href="#DejaVuSans-63" x="863.912109"/>
      <use xlink:href="#DejaVuSans-65" x="918.892578"/>
      <use xlink:href="#DejaVuSans-73" x="980.416016"/>
      <use xlink:href="#DejaVuSans-73" x="1032.515625"/>
     </g>
    </g>
   </g>
   <g id="line2d_12">
    <path d="M 138.436364 184.326677 
L 150.610909 184.326677 
L 162.785455 184.326677 
L 174.96 184.326677 
L 187.134545 184.326677 
L 199.309091 184.326677 
L 211.483636 184.326677 
L 223.658182 184.326677 
L 235.832727 184.326677 
L 248.007273 184.326677 
L 260.181818 184.326677 
L 272.356364 184.326677 
L 284.530909 184.326677 
L 296.705455 184.326677 
L 308.88 184.326677 
L 321.054545 184.326677 
L 333.229091 184.326677 
L 345.403636 184.326677 
L 357.578182 184.326677 
L 369.752727 184.326677 
L 381.927273 184.326677 
L 394.101818 184.326677 
L 406.276364 184.326677 
L 418.450909 184.326677 
L 430.625455 184.326677 
L 442.8 184.326677 
L 454.974545 184.326677 
L 467.149091 184.326677 
L 479.323636 184.326677 
L 491.498182 184.326677 
L 503.672727 184.326677 
L 515.847273 184.326677 
L 528.021818 184.326677 
L 540.196364 184.326677 
L 552.370909 184.326677 
L 564.545455 184.326677 
L 576.72 184.326677 
L 588.894545 184.326677 
L 601.069091 184.326677 
L 613.243636 184.326677 
L 625.418182 184.326677 
L 637.592727 184.326677 
L 649.767273 184.326677 
L 661.941818 184.326677 
L 674.116364 184.326677 
L 686.290909 184.326677 
L 698.465455 184.326677 
L 710.64 184.326677 
L 722.814545 184.326677 
L 734.989091 184.326677 
L 747.163636 184.326677 
" clip-path="url(#p780b055510)" style="fill: none; stroke-dasharray: 11.1,4.8; stroke-dashoffset: 0; stroke: #4c72b0; stroke-width: 3"/>
    <defs>
     <path id="m325f75811c" d="M 0 6 
C 1.591219 6 3.117479 5.367802 4.242641 4.242641 
C 5.367802 3.117479 6 1.591219 6 0 
C 6 -1.591219 5.367802 -3.117479 4.242641 -4.242641 
C 3.117479 -5.367802 1.591219 -6 0 -6 
C -1.591219 -6 -3.117479 -5.367802 -4.242641 -4.242641 
C -5.367802 -3.117479 -6 -1.591219 -6 0 
C -6 1.591219 -5.367802 3.117479 -4.242641 4.242641 
C -3.117479 5.367802 -1.591219 6 0 6 
z
" style="stroke: #4c72b0"/>
    </defs>
    <g clip-path="url(#p780b055510)">
     <use xlink:href="#m325f75811c" x="138.436364" y="184.326677" style="fill: #4c72b0; stroke: #4c72b0"/>
     <use xlink:href="#m325f75811c" x="150.610909" y="184.326677" style="fill: #4c72b0; stroke: #4c72b0"/>
     <use xlink:href="#m325f75811c" x="162.785455" y="184.326677" style="fill: #4c72b0; stroke: #4c72b0"/>
     <use xlink:href="#m325f75811c" x="174.96" y="184.326677" style="fill: #4c72b0; stroke: #4c72b0"/>
     <use xlink:href="#m325f75811c" x="187.134545" y="184.326677" style="fill: #4c72b0; stroke: #4c72b0"/>
     <use xlink:href="#m325f75811c" x="199.309091" y="184.326677" style="fill: #4c72b0; stroke: #4c72b0"/>
     <use xlink:href="#m325f75811c" x="211.483636" y="184.326677" style="fill: #4c72b0; stroke: #4c72b0"/>
     <use xlink:href="#m325f75811c" x="223.658182" y="184.326677" style="fill: #4c72b0; stroke: #4c72b0"/>
     <use xlink:href="#m325f75811c" x="235.832727" y="184.326677" style="fill: #4c72b0; stroke: #4c72b0"/>
     <use xlink:href="#m325f75811c" x="248.007273" y="184.326677" style="fill: #4c72b0; stroke: #4c72b0"/>
     <use xlink:href="#m325f75811c" x="260.181818" y="184.326677" style="fill: #4c72b0; stroke: #4c72b0"/>
     <use xlink:href="#m325f75811c" x="272.356364" y="184.326677" style="fill: #4c72b0; stroke: #4c72b0"/>
     <use xlink:href="#m325f75811c" x="284.530909" y="184.326677" style="fill: #4c72b0; stroke: #4c72b0"/>
     <use xlink:href="#m325f75811c" x="296.705455" y="184.326677" style="fill: #4c72b0; stroke: #4c72b0"/>
     <use xlink:href="#m325f75811c" x="308.88" y="184.326677" style="fill: #4c72b0; stroke: #4c72b0"/>
     <use xlink:href="#m325f75811c" x="321.054545" y="184.326677" style="fill: #4c72b0; stroke: #4c72b0"/>
     <use xlink:href="#m325f75811c" x="333.229091" y="184.326677" style="fill: #4c72b0; stroke: #4c72b0"/>
     <use xlink:href="#m325f75811c" x="345.403636" y="184.326677" style="fill: #4c72b0; stroke: #4c72b0"/>
     <use xlink:href="#m325f75811c" x="357.578182" y="184.326677" style="fill: #4c72b0; stroke: #4c72b0"/>
     <use xlink:href="#m325f75811c" x="369.752727" y="184.326677" style="fill: #4c72b0; stroke: #4c72b0"/>
     <use xlink:href="#m325f75811c" x="381.927273" y="184.326677" style="fill: #4c72b0; stroke: #4c72b0"/>
     <use xlink:href="#m325f75811c" x="394.101818" y="184.326677" style="fill: #4c72b0; stroke: #4c72b0"/>
     <use xlink:href="#m325f75811c" x="406.276364" y="184.326677" style="fill: #4c72b0; stroke: #4c72b0"/>
     <use xlink:href="#m325f75811c" x="418.450909" y="184.326677" style="fill: #4c72b0; stroke: #4c72b0"/>
     <use xlink:href="#m325f75811c" x="430.625455" y="184.326677" style="fill: #4c72b0; stroke: #4c72b0"/>
     <use xlink:href="#m325f75811c" x="442.8" y="184.326677" style="fill: #4c72b0; stroke: #4c72b0"/>
     <use xlink:href="#m325f75811c" x="454.974545" y="184.326677" style="fill: #4c72b0; stroke: #4c72b0"/>
     <use xlink:href="#m325f75811c" x="467.149091" y="184.326677" style="fill: #4c72b0; stroke: #4c72b0"/>
     <use xlink:href="#m325f75811c" x="479.323636" y="184.326677" style="fill: #4c72b0; stroke: #4c72b0"/>
     <use xlink:href="#m325f75811c" x="491.498182" y="184.326677" style="fill: #4c72b0; stroke: #4c72b0"/>
     <use xlink:href="#m325f75811c" x="503.672727" y="184.326677" style="fill: #4c72b0; stroke: #4c72b0"/>
     <use xlink:href="#m325f75811c" x="515.847273" y="184.326677" style="fill: #4c72b0; stroke: #4c72b0"/>
     <use xlink:href="#m325f75811c" x="528.021818" y="184.326677" style="fill: #4c72b0; stroke: #4c72b0"/>
     <use xlink:href="#m325f75811c" x="540.196364" y="184.326677" style="fill: #4c72b0; stroke: #4c72b0"/>
     <use xlink:href="#m325f75811c" x="552.370909" y="184.326677" style="fill: #4c72b0; stroke: #4c72b0"/>
     <use xlink:href="#m325f75811c" x="564.545455" y="184.326677" style="fill: #4c72b0; stroke: #4c72b0"/>
     <use xlink:href="#m325f75811c" x="576.72" y="184.326677" style="fill: #4c72b0; stroke: #4c72b0"/>
     <use xlink:href="#m325f75811c" x="588.894545" y="184.326677" style="fill: #4c72b0; stroke: #4c72b0"/>
     <use xlink:href="#m325f75811c" x="601.069091" y="184.326677" style="fill: #4c72b0; stroke: #4c72b0"/>
     <use xlink:href="#m325f75811c" x="613.243636" y="184.326677" style="fill: #4c72b0; stroke: #4c72b0"/>
     <use xlink:href="#m325f75811c" x="625.418182" y="184.326677" style="fill: #4c72b0; stroke: #4c72b0"/>
     <use xlink:href="#m325f75811c" x="637.592727" y="184.326677" style="fill: #4c72b0; stroke: #4c72b0"/>
     <use xlink:href="#m325f75811c" x="649.767273" y="184.326677" style="fill: #4c72b0; stroke: #4c72b0"/>
     <use xlink:href="#m325f75811c" x="661.941818" y="184.326677" style="fill: #4c72b0; stroke: #4c72b0"/>
     <use xlink:href="#m325f75811c" x="674.116364" y="184.326677" style="fill: #4c72b0; stroke: #4c72b0"/>
     <use xlink:href="#m325f75811c" x="686.290909" y="184.326677" style="fill: #4c72b0; stroke: #4c72b0"/>
     <use xlink:href="#m325f75811c" x="698.465455" y="184.326677" style="fill: #4c72b0; stroke: #4c72b0"/>
     <use xlink:href="#m325f75811c" x="710.64" y="184.326677" style="fill: #4c72b0; stroke: #4c72b0"/>
     <use xlink:href="#m325f75811c" x="722.814545" y="184.326677" style="fill: #4c72b0; stroke: #4c72b0"/>
     <use xlink:href="#m325f75811c" x="734.989091" y="184.326677" style="fill: #4c72b0; stroke: #4c72b0"/>
     <use xlink:href="#m325f75811c" x="747.163636" y="184.326677" style="fill: #4c72b0; stroke: #4c72b0"/>
    </g>
   </g>
   <g id="line2d_13">
    <path d="M 138.436364 226.023478 
L 141.483047 196.407017 
L 143.920393 174.385075 
L 146.35774 154.252235 
L 148.185749 140.597649 
L 150.013759 128.326597 
L 151.841769 117.555393 
L 153.669779 108.386134 
L 154.888452 103.206834 
L 156.107125 98.800296 
L 157.325799 95.185091 
L 158.544472 92.376457 
L 159.763145 90.386229 
L 160.372482 89.700776 
L 160.981818 89.222798 
L 161.591155 88.952799 
L 162.200491 88.891065 
L 162.809828 89.03766 
L 163.419165 89.392429 
L 164.028501 89.954999 
L 164.637838 90.724777 
L 165.856511 92.882494 
L 167.075184 95.856485 
L 168.293857 99.634217 
L 169.512531 104.199768 
L 170.731204 109.533895 
L 172.559214 118.926128 
L 174.387224 129.907312 
L 176.215233 142.373361 
L 178.043243 156.206113 
L 180.48059 176.547431 
L 182.917936 198.741436 
L 185.964619 228.517414 
L 190.229975 272.584139 
L 197.542015 348.521422 
L 200.588698 378.044131 
L 203.026044 399.96573 
L 205.463391 419.977506 
L 207.2914 433.528911 
L 209.11941 445.687245 
L 210.94742 456.337263 
L 212.77543 465.378016 
L 213.994103 470.468178 
L 215.212776 474.78324 
L 216.43145 478.305018 
L 217.650123 481.018667 
L 218.868796 482.912751 
L 219.478133 483.549825 
L 220.087469 483.979287 
L 220.696806 484.200683 
L 221.306143 484.21378 
L 221.915479 484.018564 
L 222.524816 483.615242 
L 223.134152 483.004237 
L 223.743489 482.186195 
L 224.962162 479.932662 
L 226.180835 476.864141 
L 227.399509 472.993565 
L 228.618182 468.337246 
L 229.836855 462.914809 
L 231.664865 453.395534 
L 233.492875 442.294879 
L 235.320885 429.718062 
L 237.148894 415.784296 
L 239.586241 395.325105 
L 242.023587 373.034243 
L 245.07027 343.169195 
L 249.944963 292.631192 
L 256.647666 223.178096 
L 259.694349 193.750835 
L 262.131695 171.930839 
L 264.569042 152.041276 
L 266.397052 138.593831 
L 268.225061 126.548913 
L 270.053071 116.020693 
L 271.881081 107.108965 
L 273.099754 102.108234 
L 274.318428 97.884895 
L 275.537101 94.456747 
L 276.755774 91.838239 
L 277.974447 90.040407 
L 278.583784 89.451748 
L 279.19312 89.070828 
L 279.802457 88.898047 
L 280.411794 88.933588 
L 281.02113 89.177413 
L 281.630467 89.629266 
L 282.239803 90.28867 
L 282.84914 91.15493 
L 284.067813 93.504149 
L 285.286486 96.667023 
L 286.50516 100.630221 
L 287.723833 105.377041 
L 288.942506 110.887476 
L 290.770516 120.533246 
L 292.598526 131.752736 
L 294.426536 144.439598 
L 296.254545 158.473577 
L 298.691892 179.049465 
L 301.129238 201.435904 
L 304.175921 231.388306 
L 309.050614 281.9869 
L 315.14398 345.263531 
L 318.190663 374.997831 
L 320.62801 397.146711 
L 323.065356 417.433243 
L 324.893366 431.219113 
L 326.721376 443.633807 
L 328.549386 454.559648 
L 330.377396 463.893075 
L 331.596069 469.186348 
L 332.814742 473.709925 
L 334.033415 477.444741 
L 335.252088 480.375054 
L 336.470762 482.488514 
L 337.080098 483.236005 
L 337.689435 483.776214 
L 338.298771 484.108572 
L 338.908108 484.232727 
L 339.517445 484.14855 
L 340.126781 483.856129 
L 340.736118 483.355773 
L 341.345455 482.648007 
L 341.954791 481.73358 
L 343.173464 479.288809 
L 344.392138 476.031763 
L 345.610811 471.97617 
L 346.829484 467.139123 
L 348.048157 461.541007 
L 349.876167 451.769295 
L 351.704177 440.431616 
L 353.532187 427.635438 
L 355.360197 413.502051 
L 357.797543 392.810648 
L 360.844226 364.473947 
L 364.500246 327.835391 
L 376.686978 202.549131 
L 379.733661 174.735085 
L 382.171007 154.568132 
L 383.999017 140.884434 
L 385.827027 128.581553 
L 387.655037 117.776102 
L 389.483047 108.570504 
L 390.70172 103.365986 
L 391.920393 98.933559 
L 393.139066 95.291903 
L 394.35774 92.456368 
L 395.576413 90.438903 
L 396.185749 89.73974 
L 396.795086 89.248011 
L 397.404423 88.964236 
L 398.013759 88.888712 
L 398.623096 89.021521 
L 399.232432 89.36252 
L 399.841769 89.911353 
L 400.451106 90.667438 
L 401.669779 92.797967 
L 402.888452 95.745126 
L 404.107125 99.496495 
L 405.325799 104.036263 
L 406.544472 109.345297 
L 407.763145 115.401222 
L 409.591155 125.828862 
L 411.419165 137.780025 
L 413.247174 151.141429 
L 415.684521 170.929669 
L 418.121867 192.665202 
L 421.16855 222.012731 
L 425.433907 265.768622 
L 433.964619 354.182898 
L 437.011302 383.313693 
L 439.448649 404.821385 
L 441.885995 424.337482 
L 443.714005 437.468438 
L 445.542015 449.168981 
L 447.370025 459.328206 
L 449.198034 467.849816 
L 450.416708 472.580553 
L 451.635381 476.527287 
L 452.854054 479.673386 
L 454.072727 482.005589 
L 454.682064 482.863274 
L 455.2914 483.514068 
L 455.900737 483.957288 
L 456.510074 484.192465 
L 457.11941 484.219352 
L 457.728747 484.03792 
L 458.338084 483.648361 
L 458.94742 483.051085 
L 459.556757 482.246722 
L 460.77543 480.020342 
L 461.994103 476.978604 
L 463.212776 473.134329 
L 464.43145 468.503718 
L 465.650123 463.106287 
L 467.478133 453.622975 
L 469.306143 442.556127 
L 471.134152 430.010642 
L 472.962162 416.105435 
L 475.399509 395.679544 
L 477.836855 373.416013 
L 480.883538 343.576044 
L 485.758231 293.055747 
L 492.460934 223.580585 
L 495.507617 194.126091 
L 497.944963 172.277161 
L 500.38231 152.352832 
L 502.210319 138.875833 
L 504.038329 126.798689 
L 505.866339 116.235876 
L 507.694349 107.287514 
L 508.913022 102.261398 
L 510.131695 98.012029 
L 511.350369 94.557315 
L 512.569042 91.911818 
L 513.787715 90.086686 
L 514.397052 89.484297 
L 515.006388 89.089611 
L 515.615725 88.903046 
L 516.225061 88.924797 
L 516.834398 89.154842 
L 517.443735 89.592938 
L 518.053071 90.238624 
L 518.662408 91.091218 
L 519.881081 93.413322 
L 521.099754 96.549463 
L 522.318428 100.486424 
L 523.537101 105.207613 
L 524.755774 110.69313 
L 526.583784 120.303093 
L 528.411794 131.488956 
L 530.239803 144.144692 
L 532.067813 158.15034 
L 534.50516 178.693262 
L 536.942506 201.052734 
L 539.989189 230.980544 
L 544.863882 281.562254 
L 550.957248 344.857788 
L 554.003931 374.617739 
L 556.441278 396.794376 
L 558.878624 417.114599 
L 560.706634 430.929294 
L 562.534644 443.375559 
L 564.362654 454.335419 
L 566.190663 463.70499 
L 567.409337 469.023372 
L 568.62801 473.572745 
L 569.846683 477.333934 
L 571.065356 480.291088 
L 572.284029 482.431743 
L 572.893366 483.192928 
L 573.502703 483.746877 
L 574.112039 484.093005 
L 574.721376 484.230948 
L 575.330713 484.160559 
L 575.940049 483.881915 
L 576.549386 483.395307 
L 577.158722 482.701249 
L 577.768059 481.800473 
L 578.986732 479.382778 
L 580.205405 476.152414 
L 581.424079 472.122993 
L 582.642752 467.311499 
L 583.861425 461.73821 
L 585.689435 452.002147 
L 587.517445 440.697912 
L 589.345455 427.932652 
L 591.173464 413.827367 
L 593.610811 393.168594 
L 596.048157 370.714467 
L 599.09484 340.700535 
L 603.969533 290.060316 
L 610.062899 226.832757 
L 613.109582 197.16389 
L 615.546929 175.085612 
L 617.984275 154.884638 
L 619.812285 141.171892 
L 621.640295 128.837238 
L 623.468305 117.997591 
L 625.296314 108.755697 
L 626.514988 103.525984 
L 627.733661 99.067688 
L 628.952334 95.399599 
L 630.171007 92.537175 
L 631.389681 90.492482 
L 631.999017 89.779613 
L 632.608354 89.274136 
L 633.21769 88.976585 
L 633.827027 88.887273 
L 634.436364 89.006294 
L 635.0457 89.333522 
L 635.655037 89.868614 
L 636.264373 90.611004 
L 637.483047 92.714334 
L 638.70172 95.634647 
L 639.920393 99.359636 
L 641.139066 103.873601 
L 642.35774 109.157517 
L 643.576413 115.189116 
L 645.404423 125.581973 
L 647.232432 137.500694 
L 649.060442 150.832304 
L 651.497789 170.58542 
L 653.935135 192.291627 
L 656.981818 221.611394 
L 661.247174 265.346256 
L 669.777887 353.7836 
L 672.82457 382.94306 
L 675.261916 404.480745 
L 677.699263 424.032571 
L 679.527273 437.19373 
L 681.355283 448.927081 
L 683.183292 459.121406 
L 685.011302 467.680076 
L 686.229975 472.436436 
L 687.448649 476.409401 
L 688.667322 479.582227 
L 689.885995 481.941542 
L 690.495332 482.81289 
L 691.104668 483.477402 
L 691.714005 483.934377 
L 692.323342 484.183334 
L 692.932678 484.224011 
L 693.542015 484.056364 
L 694.151351 483.68057 
L 694.760688 483.097026 
L 695.370025 482.306345 
L 696.588698 480.107128 
L 697.807371 477.092188 
L 699.026044 473.274231 
L 700.244717 468.669349 
L 701.463391 463.296949 
L 703.2914 453.849645 
L 705.11941 442.816656 
L 706.94742 430.30256 
L 708.77543 416.425975 
L 711.212776 396.033479 
L 713.650123 373.797382 
L 716.696806 343.982629 
L 720.962162 299.889172 
L 728.274201 223.983364 
L 731.320885 194.501773 
L 733.758231 172.62401 
L 736.195577 152.665007 
L 738.023587 139.158517 
L 739.851597 127.049203 
L 741.679607 116.451845 
L 743.507617 107.466891 
L 744.72629 102.415414 
L 745.944963 98.140034 
L 747.163636 94.65877 
L 747.163636 94.65877 
" clip-path="url(#p780b055510)" style="fill: none; stroke: #dd8452; stroke-width: 3; stroke-linecap: round"/>
   </g>
   <g id="line2d_14">
    <path d="M 138.436364 304.797118 
L 149.404423 227.387292 
L 153.669779 199.211749 
L 156.716462 180.354595 
L 159.763145 162.818551 
L 162.200491 149.88638 
L 164.637838 138.039805 
L 167.075184 127.372057 
L 168.903194 120.19572 
L 170.731204 113.761675 
L 172.559214 108.098412 
L 174.387224 103.231007 
L 176.215233 99.181014 
L 177.433907 96.944143 
L 178.65258 95.083016 
L 179.871253 93.601295 
L 181.089926 92.501898 
L 182.3086 91.786987 
L 183.527273 91.457972 
L 184.745946 91.515498 
L 185.964619 91.959454 
L 187.183292 92.788964 
L 188.401966 94.002397 
L 189.620639 95.597363 
L 190.839312 97.570724 
L 192.057985 99.918595 
L 193.276658 102.636354 
L 195.104668 107.394635 
L 196.932678 112.951891 
L 198.760688 119.283514 
L 200.588698 126.361469 
L 203.026044 136.905074 
L 205.463391 148.636435 
L 207.900737 161.46323 
L 210.94742 178.882641 
L 213.994103 197.641256 
L 217.650123 221.593699 
L 222.524816 255.276917 
L 237.758231 362.155357 
L 241.414251 385.625184 
L 244.460934 403.87849 
L 247.507617 420.705402 
L 249.944963 433.000281 
L 252.38231 444.152753 
L 254.819656 454.075053 
L 256.647666 460.662122 
L 258.475676 466.483917 
L 260.303686 471.51466 
L 262.131695 475.732075 
L 263.350369 478.082464 
L 264.569042 480.058371 
L 265.787715 481.655908 
L 267.006388 482.87193 
L 268.225061 483.704043 
L 269.443735 484.150609 
L 270.662408 484.210751 
L 271.881081 483.884348 
L 273.099754 483.172043 
L 274.318428 482.075239 
L 275.537101 480.596095 
L 276.755774 478.737522 
L 277.974447 476.503178 
L 279.19312 473.897462 
L 281.02113 469.303981 
L 282.84914 463.906961 
L 284.67715 457.7303 
L 286.50516 450.801347 
L 288.33317 443.150783 
L 290.770516 431.88652 
L 293.207862 419.488614 
L 295.645209 406.054633 
L 298.691892 387.966945 
L 302.347912 364.657709 
L 306.613268 335.776112 
L 312.706634 292.693639 
L 321.237346 232.455637 
L 325.502703 203.977164 
L 329.158722 181.148668 
L 332.205405 163.550572 
L 334.642752 150.56224 
L 337.080098 138.654186 
L 339.517445 127.920123 
L 341.345455 120.69119 
L 343.173464 114.202355 
L 345.001474 108.48235 
L 346.829484 103.556505 
L 348.657494 99.446629 
L 349.876167 97.169166 
L 351.09484 95.267004 
L 352.313514 93.743886 
L 353.532187 92.602811 
L 354.75086 91.846024 
L 355.969533 91.475016 
L 357.188206 91.490517 
L 358.40688 91.892495 
L 359.625553 92.680161 
L 360.844226 93.851963 
L 362.062899 95.405594 
L 363.281572 97.337998 
L 364.500246 99.645369 
L 365.718919 102.323167 
L 367.546929 107.022686 
L 369.374939 112.522827 
L 371.202948 118.799235 
L 373.030958 125.82412 
L 375.468305 136.300704 
L 377.905651 147.969801 
L 380.342998 160.739577 
L 383.389681 178.095772 
L 386.436364 196.800843 
L 390.092383 220.702719 
L 394.967076 254.343147 
L 410.200491 361.277682 
L 413.856511 384.802566 
L 416.903194 403.11292 
L 419.949877 420.006289 
L 422.387224 432.360565 
L 424.82457 443.577468 
L 427.261916 453.568726 
L 429.089926 460.210159 
L 430.917936 466.08832 
L 432.745946 471.17718 
L 434.573956 475.454207 
L 435.792629 477.845037 
L 437.011302 479.861852 
L 438.229975 481.500684 
L 439.448649 482.758307 
L 440.667322 483.632245 
L 441.885995 484.120777 
L 443.104668 484.222943 
L 444.323342 483.93854 
L 445.542015 483.26813 
L 446.760688 482.213031 
L 447.979361 480.77532 
L 449.198034 478.957828 
L 450.416708 476.764131 
L 451.635381 474.198548 
L 453.463391 469.664132 
L 455.2914 464.324582 
L 457.11941 458.203541 
L 458.94742 451.328113 
L 460.77543 443.728742 
L 463.212776 432.528717 
L 465.650123 420.189996 
L 468.087469 406.80968 
L 471.134152 388.780672 
L 474.790172 365.528594 
L 479.055528 336.694153 
L 485.148894 293.640546 
L 493.679607 233.365099 
L 497.944963 204.834709 
L 501.600983 181.945223 
L 504.647666 164.285484 
L 507.085012 151.241294 
L 509.522359 139.272037 
L 511.959705 128.47191 
L 513.787715 121.190548 
L 515.615725 114.647074 
L 517.443735 108.870461 
L 519.271744 103.886288 
L 521.099754 99.716625 
L 522.318428 97.398624 
L 523.537101 95.455471 
L 524.755774 93.890992 
L 525.974447 92.708266 
L 527.19312 91.909621 
L 528.411794 91.496629 
L 529.630467 91.470103 
L 530.84914 91.830095 
L 532.067813 92.575897 
L 533.286486 93.706041 
L 534.50516 95.218302 
L 535.723833 97.109703 
L 536.942506 99.376522 
L 538.161179 102.014296 
L 539.989189 106.654944 
L 541.817199 112.097842 
L 543.645209 118.318889 
L 545.473219 125.290539 
L 547.301229 132.981922 
L 549.738575 144.297379 
L 552.175921 156.742417 
L 554.613268 170.219098 
L 557.659951 188.35342 
L 561.315971 211.707985 
L 565.581327 240.626816 
L 571.674693 283.731657 
L 580.205405 343.938699 
L 584.470762 372.375168 
L 588.126781 395.154499 
L 591.173464 412.702994 
L 593.610811 425.646429 
L 596.048157 437.505329 
L 598.485504 448.186369 
L 600.313514 455.373246 
L 602.141523 461.818268 
L 603.969533 467.492897 
L 605.797543 472.372007 
L 607.625553 476.433992 
L 608.844226 478.678991 
L 610.062899 480.548334 
L 611.281572 482.038342 
L 612.500246 483.146083 
L 613.718919 483.869375 
L 614.937592 484.206796 
L 616.156265 484.15768 
L 617.374939 483.722124 
L 618.593612 482.900987 
L 619.812285 481.695884 
L 621.030958 480.109186 
L 622.249631 478.144019 
L 623.468305 475.804249 
L 624.686978 473.094482 
L 626.514988 468.347953 
L 628.342998 462.802117 
L 630.171007 456.481532 
L 631.999017 449.414185 
L 634.436364 438.883973 
L 636.87371 427.165052 
L 639.311057 414.349644 
L 642.35774 396.942852 
L 645.404423 378.194918 
L 649.060442 354.252551 
L 653.935135 320.577834 
L 669.16855 213.687968 
L 672.82457 190.207079 
L 675.871253 171.942322 
L 678.917936 155.102079 
L 681.355283 142.795289 
L 683.792629 131.629901 
L 686.229975 121.693783 
L 688.057985 115.095822 
L 689.885995 109.262735 
L 691.714005 104.220351 
L 693.542015 99.990998 
L 694.760688 97.632512 
L 695.979361 95.648413 
L 697.198034 94.042609 
L 698.416708 92.818259 
L 699.635381 91.977774 
L 700.854054 91.522808 
L 702.072727 91.454257 
L 703.2914 91.772254 
L 704.510074 92.476176 
L 705.728747 93.564635 
L 706.94742 95.03549 
L 708.166093 96.885845 
L 709.384767 99.112058 
L 710.60344 101.709747 
L 712.43145 106.291416 
L 714.259459 111.676944 
L 716.087469 117.842486 
L 717.915479 124.760739 
L 719.743489 132.401072 
L 722.180835 143.6525 
L 724.618182 156.038585 
L 727.055528 169.46185 
L 730.102211 187.537828 
L 733.758231 210.835668 
L 738.023587 239.707882 
L 744.116953 282.784658 
L 747.163636 304.549526 
L 747.163636 304.549526 
" clip-path="url(#p780b055510)" style="fill: none; stroke: #55a868; stroke-width: 3; stroke-linecap: round"/>
   </g>
   <g id="patch_3">
    <path d="M 108 504 
L 108 69.12 
" style="fill: none; stroke: #262626; stroke-width: 2.5; stroke-linejoin: miter; stroke-linecap: square"/>
   </g>
   <g id="patch_4">
    <path d="M 777.6 504 
L 777.6 69.12 
" style="fill: none; stroke: #262626; stroke-width: 2.5; stroke-linejoin: miter; stroke-linecap: square"/>
   </g>
   <g id="patch_5">
    <path d="M 108 504 
L 777.6 504 
" style="fill: none; stroke: #262626; stroke-width: 2.5; stroke-linejoin: miter; stroke-linecap: square"/>
   </g>
   <g id="patch_6">
    <path d="M 108 69.12 
L 777.6 69.12 
" style="fill: none; stroke: #262626; stroke-width: 2.5; stroke-linejoin: miter; stroke-linecap: square"/>
   </g>
   <g id="legend_1">
    <g id="patch_7">
     <path d="M 123.4 338.297813 
L 415.484375 338.297813 
Q 419.884375 338.297813 419.884375 333.897812 
L 419.884375 239.222188 
Q 419.884375 234.822188 415.484375 234.822188 
L 123.4 234.822188 
Q 119 234.822188 119 239.222188 
L 119 333.897812 
Q 119 338.297813 123.4 338.297813 
z
" style="fill: #ffffff; opacity: 0.8; stroke: #cccccc; stroke-width: 2; stroke-linejoin: miter"/>
    </g>
    <g id="line2d_15">
     <path d="M 127.8 252.63875 
L 149.8 252.63875 
L 171.8 252.63875 
" style="fill: none; stroke-dasharray: 11.1,4.8; stroke-dashoffset: 0; stroke: #4c72b0; stroke-width: 3"/>
     <g>
      <use xlink:href="#m325f75811c" x="149.8" y="252.63875" style="fill: #4c72b0; stroke: #4c72b0"/>
     </g>
    </g>
    <g id="text_14">
     <!-- search -->
     <g style="fill: #262626" transform="translate(189.4 260.33875)scale(0.22 -0.22)">
      <defs>
       <path id="DejaVuSans-68" d="M 3513 2113 
L 3513 0 
L 2938 0 
L 2938 2094 
Q 2938 2591 2744 2837 
Q 2550 3084 2163 3084 
Q 1697 3084 1428 2787 
Q 1159 2491 1159 1978 
L 1159 0 
L 581 0 
L 581 4863 
L 1159 4863 
L 1159 2956 
Q 1366 3272 1645 3428 
Q 1925 3584 2291 3584 
Q 2894 3584 3203 3211 
Q 3513 2838 3513 2113 
z
" transform="scale(0.015625)"/>
      </defs>
      <use xlink:href="#DejaVuSans-73"/>
      <use xlink:href="#DejaVuSans-65" x="52.099609"/>
      <use xlink:href="#DejaVuSans-61" x="113.623047"/>
      <use xlink:href="#DejaVuSans-72" x="174.902344"/>
      <use xlink:href="#DejaVuSans-63" x="213.765625"/>
      <use xlink:href="#DejaVuSans-68" x="268.746094"/>
     </g>
    </g>
    <g id="line2d_16">
     <path d="M 127.8 284.930625 
L 149.8 284.930625 
L 171.8 284.930625 
" style="fill: none; stroke: #dd8452; stroke-width: 3; stroke-linecap: round"/>
    </g>
    <g id="text_15">
     <!-- predicted frequency -->
     <g style="fill: #262626" transform="translate(189.4 292.630625)scale(0.22 -0.22)">
      <defs>
       <path id="DejaVuSans-64" d="M 2906 2969 
L 2906 4863 
L 3481 4863 
L 3481 0 
L 2906 0 
L 2906 525 
Q 2725 213 2448 61 
Q 2172 -91 1784 -91 
Q 1150 -91 751 415 
Q 353 922 353 1747 
Q 353 2572 751 3078 
Q 1150 3584 1784 3584 
Q 2172 3584 2448 3432 
Q 2725 3281 2906 2969 
z
M 947 1747 
Q 947 1113 1208 752 
Q 1469 391 1925 391 
Q 2381 391 2643 752 
Q 2906 1113 2906 1747 
Q 2906 2381 2643 2742 
Q 2381 3103 1925 3103 
Q 1469 3103 1208 2742 
Q 947 2381 947 1747 
z
" transform="scale(0.015625)"/>
       <path id="DejaVuSans-71" d="M 947 1747 
Q 947 1113 1208 752 
Q 1469 391 1925 391 
Q 2381 391 2643 752 
Q 2906 1113 2906 1747 
Q 2906 2381 2643 2742 
Q 2381 3103 1925 3103 
Q 1469 3103 1208 2742 
Q 947 2381 947 1747 
z
M 2906 525 
Q 2725 213 2448 61 
Q 2172 -91 1784 -91 
Q 1150 -91 751 415 
Q 353 922 353 1747 
Q 353 2572 751 3078 
Q 1150 3584 1784 3584 
Q 2172 3584 2448 3432 
Q 2725 3281 2906 2969 
L 2906 3500 
L 3481 3500 
L 3481 -1331 
L 2906 -1331 
L 2906 525 
z
" transform="scale(0.015625)"/>
       <path id="DejaVuSans-6e" d="M 3513 2113 
L 3513 0 
L 2938 0 
L 2938 2094 
Q 2938 2591 2744 2837 
Q 2550 3084 2163 3084 
Q 1697 3084 1428 2787 
Q 1159 2491 1159 1978 
L 1159 0 
L 581 0 
L 581 3500 
L 1159 3500 
L 1159 2956 
Q 1366 3272 1645 3428 
Q 1925 3584 2291 3584 
Q 2894 3584 3203 3211 
Q 3513 2838 3513 2113 
z
" transform="scale(0.015625)"/>
      </defs>
      <use xlink:href="#DejaVuSans-70"/>
      <use xlink:href="#DejaVuSans-72" x="63.476562"/>
      <use xlink:href="#DejaVuSans-65" x="102.339844"/>
      <use xlink:href="#DejaVuSans-64" x="163.863281"/>
      <use xlink:href="#DejaVuSans-69" x="227.339844"/>
      <use xlink:href="#DejaVuSans-63" x="255.123047"/>
      <use xlink:href="#DejaVuSans-74" x="310.103516"/>
      <use xlink:href="#DejaVuSans-65" x="349.3125"/>
      <use xlink:href="#DejaVuSans-64" x="410.835938"/>
      <use xlink:href="#DejaVuSans-20" x="474.3125"/>
      <use xlink:href="#DejaVuSans-66" x="506.099609"/>
      <use xlink:href="#DejaVuSans-72" x="541.304688"/>
      <use xlink:href="#DejaVuSans-65" x="580.167969"/>
      <use xlink:href="#DejaVuSans-71" x="641.691406"/>
      <use xlink:href="#DejaVuSans-75" x="705.167969"/>
      <use xlink:href="#DejaVuSans-65" x="768.546875"/>
      <use xlink:href="#DejaVuSans-6e" x="830.070312"/>
      <use xlink:href="#DejaVuSans-63" x="893.449219"/>
      <use xlink:href="#DejaVuSans-79" x="948.429688"/>
     </g>
    </g>
    <g id="line2d_17">
     <path d="M 127.8 317.2225 
L 149.8 317.2225 
L 171.8 317.2225 
" style="fill: none; stroke: #55a868; stroke-width: 3; stroke-linecap: round"/>
    </g>
    <g id="text_16">
     <!-- fit -->
     <g style="fill: #262626" transform="translate(189.4 324.9225)scale(0.22 -0.22)">
      <use xlink:href="#DejaVuSans-66"/>
      <use xlink:href="#DejaVuSans-69" x="35.205078"/>
      <use xlink:href="#DejaVuSans-74" x="62.988281"/>
     </g>
    </g>
   </g>
  </g>
 </g>
 <defs>
  <clipPath id="p780b055510">
   <rect x="108" y="69.12" width="669.6" height="434.88"/>
  </clipPath>
 </defs>
</svg>
