<?xml version="1.0" encoding="utf-8" standalone="no"?>
<!DOCTYPE svg PUBLIC "-//W3C//DTD SVG 1.1//EN"
  "http://www.w3.org/Graphics/SVG/1.1/DTD/svg11.dtd">
<svg xmlns:xlink="http://www.w3.org/1999/xlink" width="864pt" height="576pt" viewBox="0 0 864 576" xmlns="http://www.w3.org/2000/svg" version="1.1">
 <metadata>
  <rdf:RDF xmlns:dc="http://purl.org/dc/elements/1.1/" xmlns:cc="http://creativecommons.org/ns#" xmlns:rdf="http://www.w3.org/1999/02/22-rdf-syntax-ns#">
   <cc:Work>
    <dc:type rdf:resource="http://purl.org/dc/dcmitype/StillImage"/>
    <dc:date>2023-05-12T17:54:02.269328</dc:date>
    <dc:format>image/svg+xml</dc:format>
    <dc:creator>
     <cc:Agent>
      <dc:title>Matplotlib v3.5.1, https://matplotlib.org/</dc:title>
     </cc:Agent>
    </dc:creator>
   </cc:Work>
  </rdf:RDF>
 </metadata>
 <defs>
  <style type="text/css">*{stroke-linejoin: round; stroke-linecap: butt}</style>
 </defs>
 <g id="figure_1">
  <g id="patch_1">
   <path d="M 0 576 
L 864 576 
L 864 0 
L 0 0 
z
" style="fill: #ffffff"/>
  </g>
  <g id="axes_1">
   <g id="patch_2">
    <path d="M 108 504 
L 777.6 504 
L 777.6 69.12 
L 108 69.12 
z
" style="fill: #ffffff"/>
   </g>
   <g id="matplotlib.axis_1">
    <g id="xtick_1">
     <g id="line2d_1">
      <defs>
       <path id="m2f40d8da48" d="M 0 0 
L 0 12 
" style="stroke: #262626; stroke-width: 2.5"/>
      </defs>
      <g>
       <use xlink:href="#m2f40d8da48" x="138.436364" y="504" style="fill: #262626; stroke: #262626; stroke-width: 2.5"/>
      </g>
     </g>
     <g id="text_1">
      <!-- 0 -->
      <g style="fill: #262626" transform="translate(131.437614 536.216563)scale(0.22 -0.22)">
       <defs>
        <path id="DejaVuSans-30" d="M 2034 4250 
Q 1547 4250 1301 3770 
Q 1056 3291 1056 2328 
Q 1056 1369 1301 889 
Q 1547 409 2034 409 
Q 2525 409 2770 889 
Q 3016 1369 3016 2328 
Q 3016 3291 2770 3770 
Q 2525 4250 2034 4250 
z
M 2034 4750 
Q 2819 4750 3233 4129 
Q 3647 3509 3647 2328 
Q 3647 1150 3233 529 
Q 2819 -91 2034 -91 
Q 1250 -91 836 529 
Q 422 1150 422 2328 
Q 422 3509 836 4129 
Q 1250 4750 2034 4750 
z
" transform="scale(0.015625)"/>
       </defs>
       <use xlink:href="#DejaVuSans-30"/>
      </g>
     </g>
    </g>
    <g id="xtick_2">
     <g id="line2d_2">
      <g>
       <use xlink:href="#m2f40d8da48" x="260.181818" y="504" style="fill: #262626; stroke: #262626; stroke-width: 2.5"/>
      </g>
     </g>
     <g id="text_2">
      <!-- 10 -->
      <g style="fill: #262626" transform="translate(246.184318 536.216563)scale(0.22 -0.22)">
       <defs>
        <path id="DejaVuSans-31" d="M 794 531 
L 1825 531 
L 1825 4091 
L 703 3866 
L 703 4441 
L 1819 4666 
L 2450 4666 
L 2450 531 
L 3481 531 
L 3481 0 
L 794 0 
L 794 531 
z
" transform="scale(0.015625)"/>
       </defs>
       <use xlink:href="#DejaVuSans-31"/>
       <use xlink:href="#DejaVuSans-30" x="63.623047"/>
      </g>
     </g>
    </g>
    <g id="xtick_3">
     <g id="line2d_3">
      <g>
       <use xlink:href="#m2f40d8da48" x="381.927273" y="504" style="fill: #262626; stroke: #262626; stroke-width: 2.5"/>
      </g>
     </g>
     <g id="text_3">
      <!-- 20 -->
      <g style="fill: #262626" transform="translate(367.929773 536.216563)scale(0.22 -0.22)">
       <defs>
        <path id="DejaVuSans-32" d="M 1228 531 
L 3431 531 
L 3431 0 
L 469 0 
L 469 531 
Q 828 903 1448 1529 
Q 2069 2156 2228 2338 
Q 2531 2678 2651 2914 
Q 2772 3150 2772 3378 
Q 2772 3750 2511 3984 
Q 2250 4219 1831 4219 
Q 1534 4219 1204 4116 
Q 875 4013 500 3803 
L 500 4441 
Q 881 4594 1212 4672 
Q 1544 4750 1819 4750 
Q 2544 4750 2975 4387 
Q 3406 4025 3406 3419 
Q 3406 3131 3298 2873 
Q 3191 2616 2906 2266 
Q 2828 2175 2409 1742 
Q 1991 1309 1228 531 
z
" transform="scale(0.015625)"/>
       </defs>
       <use xlink:href="#DejaVuSans-32"/>
       <use xlink:href="#DejaVuSans-30" x="63.623047"/>
      </g>
     </g>
    </g>
    <g id="xtick_4">
     <g id="line2d_4">
      <g>
       <use xlink:href="#m2f40d8da48" x="503.672727" y="504" style="fill: #262626; stroke: #262626; stroke-width: 2.5"/>
      </g>
     </g>
     <g id="text_4">
      <!-- 30 -->
      <g style="fill: #262626" transform="translate(489.675227 536.216563)scale(0.22 -0.22)">
       <defs>
        <path id="DejaVuSans-33" d="M 2597 2516 
Q 3050 2419 3304 2112 
Q 3559 1806 3559 1356 
Q 3559 666 3084 287 
Q 2609 -91 1734 -91 
Q 1441 -91 1130 -33 
Q 819 25 488 141 
L 488 750 
Q 750 597 1062 519 
Q 1375 441 1716 441 
Q 2309 441 2620 675 
Q 2931 909 2931 1356 
Q 2931 1769 2642 2001 
Q 2353 2234 1838 2234 
L 1294 2234 
L 1294 2753 
L 1863 2753 
Q 2328 2753 2575 2939 
Q 2822 3125 2822 3475 
Q 2822 3834 2567 4026 
Q 2313 4219 1838 4219 
Q 1578 4219 1281 4162 
Q 984 4106 628 3988 
L 628 4550 
Q 988 4650 1302 4700 
Q 1616 4750 1894 4750 
Q 2613 4750 3031 4423 
Q 3450 4097 3450 3541 
Q 3450 3153 3228 2886 
Q 3006 2619 2597 2516 
z
" transform="scale(0.015625)"/>
       </defs>
       <use xlink:href="#DejaVuSans-33"/>
       <use xlink:href="#DejaVuSans-30" x="63.623047"/>
      </g>
     </g>
    </g>
    <g id="xtick_5">
     <g id="line2d_5">
      <g>
       <use xlink:href="#m2f40d8da48" x="625.418182" y="504" style="fill: #262626; stroke: #262626; stroke-width: 2.5"/>
      </g>
     </g>
     <g id="text_5">
      <!-- 40 -->
      <g style="fill: #262626" transform="translate(611.420682 536.216563)scale(0.22 -0.22)">
       <defs>
        <path id="DejaVuSans-34" d="M 2419 4116 
L 825 1625 
L 2419 1625 
L 2419 4116 
z
M 2253 4666 
L 3047 4666 
L 3047 1625 
L 3713 1625 
L 3713 1100 
L 3047 1100 
L 3047 0 
L 2419 0 
L 2419 1100 
L 313 1100 
L 313 1709 
L 2253 4666 
z
" transform="scale(0.015625)"/>
       </defs>
       <use xlink:href="#DejaVuSans-34"/>
       <use xlink:href="#DejaVuSans-30" x="63.623047"/>
      </g>
     </g>
    </g>
    <g id="xtick_6">
     <g id="line2d_6">
      <g>
       <use xlink:href="#m2f40d8da48" x="747.163636" y="504" style="fill: #262626; stroke: #262626; stroke-width: 2.5"/>
      </g>
     </g>
     <g id="text_6">
      <!-- 50 -->
      <g style="fill: #262626" transform="translate(733.166136 536.216563)scale(0.22 -0.22)">
       <defs>
        <path id="DejaVuSans-35" d="M 691 4666 
L 3169 4666 
L 3169 4134 
L 1269 4134 
L 1269 2991 
Q 1406 3038 1543 3061 
Q 1681 3084 1819 3084 
Q 2600 3084 3056 2656 
Q 3513 2228 3513 1497 
Q 3513 744 3044 326 
Q 2575 -91 1722 -91 
Q 1428 -91 1123 -41 
Q 819 9 494 109 
L 494 744 
Q 775 591 1075 516 
Q 1375 441 1709 441 
Q 2250 441 2565 725 
Q 2881 1009 2881 1497 
Q 2881 1984 2565 2268 
Q 2250 2553 1709 2553 
Q 1456 2553 1204 2497 
Q 953 2441 691 2322 
L 691 4666 
z
" transform="scale(0.015625)"/>
       </defs>
       <use xlink:href="#DejaVuSans-35"/>
       <use xlink:href="#DejaVuSans-30" x="63.623047"/>
      </g>
     </g>
    </g>
    <g id="text_7">
     <!-- steps -->
     <g style="fill: #262626" transform="translate(410.59125 563.028125)scale(0.24 -0.24)">
      <defs>
       <path id="DejaVuSans-73" d="M 2834 3397 
L 2834 2853 
Q 2591 2978 2328 3040 
Q 2066 3103 1784 3103 
Q 1356 3103 1142 2972 
Q 928 2841 928 2578 
Q 928 2378 1081 2264 
Q 1234 2150 1697 2047 
L 1894 2003 
Q 2506 1872 2764 1633 
Q 3022 1394 3022 966 
Q 3022 478 2636 193 
Q 2250 -91 1575 -91 
Q 1294 -91 989 -36 
Q 684 19 347 128 
L 347 722 
Q 666 556 975 473 
Q 1284 391 1588 391 
Q 1994 391 2212 530 
Q 2431 669 2431 922 
Q 2431 1156 2273 1281 
Q 2116 1406 1581 1522 
L 1381 1569 
Q 847 1681 609 1914 
Q 372 2147 372 2553 
Q 372 3047 722 3315 
Q 1072 3584 1716 3584 
Q 2034 3584 2315 3537 
Q 2597 3491 2834 3397 
z
" transform="scale(0.015625)"/>
       <path id="DejaVuSans-74" d="M 1172 4494 
L 1172 3500 
L 2356 3500 
L 2356 3053 
L 1172 3053 
L 1172 1153 
Q 1172 725 1289 603 
Q 1406 481 1766 481 
L 2356 481 
L 2356 0 
L 1766 0 
Q 1100 0 847 248 
Q 594 497 594 1153 
L 594 3053 
L 172 3053 
L 172 3500 
L 594 3500 
L 594 4494 
L 1172 4494 
z
" transform="scale(0.015625)"/>
       <path id="DejaVuSans-65" d="M 3597 1894 
L 3597 1613 
L 953 1613 
Q 991 1019 1311 708 
Q 1631 397 2203 397 
Q 2534 397 2845 478 
Q 3156 559 3463 722 
L 3463 178 
Q 3153 47 2828 -22 
Q 2503 -91 2169 -91 
Q 1331 -91 842 396 
Q 353 884 353 1716 
Q 353 2575 817 3079 
Q 1281 3584 2069 3584 
Q 2775 3584 3186 3129 
Q 3597 2675 3597 1894 
z
M 3022 2063 
Q 3016 2534 2758 2815 
Q 2500 3097 2075 3097 
Q 1594 3097 1305 2825 
Q 1016 2553 972 2059 
L 3022 2063 
z
" transform="scale(0.015625)"/>
       <path id="DejaVuSans-70" d="M 1159 525 
L 1159 -1331 
L 581 -1331 
L 581 3500 
L 1159 3500 
L 1159 2969 
Q 1341 3281 1617 3432 
Q 1894 3584 2278 3584 
Q 2916 3584 3314 3078 
Q 3713 2572 3713 1747 
Q 3713 922 3314 415 
Q 2916 -91 2278 -91 
Q 1894 -91 1617 61 
Q 1341 213 1159 525 
z
M 3116 1747 
Q 3116 2381 2855 2742 
Q 2594 3103 2138 3103 
Q 1681 3103 1420 2742 
Q 1159 2381 1159 1747 
Q 1159 1113 1420 752 
Q 1681 391 2138 391 
Q 2594 391 2855 752 
Q 3116 1113 3116 1747 
z
" transform="scale(0.015625)"/>
      </defs>
      <use xlink:href="#DejaVuSans-73"/>
      <use xlink:href="#DejaVuSans-74" x="52.099609"/>
      <use xlink:href="#DejaVuSans-65" x="91.308594"/>
      <use xlink:href="#DejaVuSans-70" x="152.832031"/>
      <use xlink:href="#DejaVuSans-73" x="216.308594"/>
     </g>
    </g>
   </g>
   <g id="matplotlib.axis_2">
    <g id="ytick_1">
     <g id="line2d_7">
      <defs>
       <path id="mae6a1badf5" d="M 0 0 
L -12 0 
" style="stroke: #262626; stroke-width: 2.5"/>
      </defs>
      <g>
       <use xlink:href="#mae6a1badf5" x="108" y="484.232803" style="fill: #262626; stroke: #262626; stroke-width: 2.5"/>
      </g>
     </g>
     <g id="text_8">
      <!-- 0.000 -->
      <g style="fill: #262626" transform="translate(29.518125 492.591084)scale(0.22 -0.22)">
       <defs>
        <path id="DejaVuSans-2e" d="M 684 794 
L 1344 794 
L 1344 0 
L 684 0 
L 684 794 
z
" transform="scale(0.015625)"/>
       </defs>
       <use xlink:href="#DejaVuSans-30"/>
       <use xlink:href="#DejaVuSans-2e" x="63.623047"/>
       <use xlink:href="#DejaVuSans-30" x="95.410156"/>
       <use xlink:href="#DejaVuSans-30" x="159.033203"/>
       <use xlink:href="#DejaVuSans-30" x="222.65625"/>
      </g>
     </g>
    </g>
    <g id="ytick_2">
     <g id="line2d_8">
      <g>
       <use xlink:href="#mae6a1badf5" x="108" y="434.284151" style="fill: #262626; stroke: #262626; stroke-width: 2.5"/>
      </g>
     </g>
     <g id="text_9">
      <!-- 0.025 -->
      <g style="fill: #262626" transform="translate(29.518125 442.642432)scale(0.22 -0.22)">
       <use xlink:href="#DejaVuSans-30"/>
       <use xlink:href="#DejaVuSans-2e" x="63.623047"/>
       <use xlink:href="#DejaVuSans-30" x="95.410156"/>
       <use xlink:href="#DejaVuSans-32" x="159.033203"/>
       <use xlink:href="#DejaVuSans-35" x="222.65625"/>
      </g>
     </g>
    </g>
    <g id="ytick_3">
     <g id="line2d_9">
      <g>
       <use xlink:href="#mae6a1badf5" x="108" y="384.335499" style="fill: #262626; stroke: #262626; stroke-width: 2.5"/>
      </g>
     </g>
     <g id="text_10">
      <!-- 0.050 -->
      <g style="fill: #262626" transform="translate(29.518125 392.69378)scale(0.22 -0.22)">
       <use xlink:href="#DejaVuSans-30"/>
       <use xlink:href="#DejaVuSans-2e" x="63.623047"/>
       <use xlink:href="#DejaVuSans-30" x="95.410156"/>
       <use xlink:href="#DejaVuSans-35" x="159.033203"/>
       <use xlink:href="#DejaVuSans-30" x="222.65625"/>
      </g>
     </g>
    </g>
    <g id="ytick_4">
     <g id="line2d_10">
      <g>
       <use xlink:href="#mae6a1badf5" x="108" y="334.386847" style="fill: #262626; stroke: #262626; stroke-width: 2.5"/>
      </g>
     </g>
     <g id="text_11">
      <!-- 0.075 -->
      <g style="fill: #262626" transform="translate(29.518125 342.745128)scale(0.22 -0.22)">
       <defs>
        <path id="DejaVuSans-37" d="M 525 4666 
L 3525 4666 
L 3525 4397 
L 1831 0 
L 1172 0 
L 2766 4134 
L 525 4134 
L 525 4666 
z
" transform="scale(0.015625)"/>
       </defs>
       <use xlink:href="#DejaVuSans-30"/>
       <use xlink:href="#DejaVuSans-2e" x="63.623047"/>
       <use xlink:href="#DejaVuSans-30" x="95.410156"/>
       <use xlink:href="#DejaVuSans-37" x="159.033203"/>
       <use xlink:href="#DejaVuSans-35" x="222.65625"/>
      </g>
     </g>
    </g>
    <g id="ytick_5">
     <g id="line2d_11">
      <g>
       <use xlink:href="#mae6a1badf5" x="108" y="284.438195" style="fill: #262626; stroke: #262626; stroke-width: 2.5"/>
      </g>
     </g>
     <g id="text_12">
      <!-- 0.100 -->
      <g style="fill: #262626" transform="translate(29.518125 292.796477)scale(0.22 -0.22)">
       <use xlink:href="#DejaVuSans-30"/>
       <use xlink:href="#DejaVuSans-2e" x="63.623047"/>
       <use xlink:href="#DejaVuSans-31" x="95.410156"/>
       <use xlink:href="#DejaVuSans-30" x="159.033203"/>
       <use xlink:href="#DejaVuSans-30" x="222.65625"/>
      </g>
     </g>
    </g>
    <g id="ytick_6">
     <g id="line2d_12">
      <g>
       <use xlink:href="#mae6a1badf5" x="108" y="234.489544" style="fill: #262626; stroke: #262626; stroke-width: 2.5"/>
      </g>
     </g>
     <g id="text_13">
      <!-- 0.125 -->
      <g style="fill: #262626" transform="translate(29.518125 242.847825)scale(0.22 -0.22)">
       <use xlink:href="#DejaVuSans-30"/>
       <use xlink:href="#DejaVuSans-2e" x="63.623047"/>
       <use xlink:href="#DejaVuSans-31" x="95.410156"/>
       <use xlink:href="#DejaVuSans-32" x="159.033203"/>
       <use xlink:href="#DejaVuSans-35" x="222.65625"/>
      </g>
     </g>
    </g>
    <g id="ytick_7">
     <g id="line2d_13">
      <g>
       <use xlink:href="#mae6a1badf5" x="108" y="184.540892" style="fill: #262626; stroke: #262626; stroke-width: 2.5"/>
      </g>
     </g>
     <g id="text_14">
      <!-- 0.150 -->
      <g style="fill: #262626" transform="translate(29.518125 192.899173)scale(0.22 -0.22)">
       <use xlink:href="#DejaVuSans-30"/>
       <use xlink:href="#DejaVuSans-2e" x="63.623047"/>
       <use xlink:href="#DejaVuSans-31" x="95.410156"/>
       <use xlink:href="#DejaVuSans-35" x="159.033203"/>
       <use xlink:href="#DejaVuSans-30" x="222.65625"/>
      </g>
     </g>
    </g>
    <g id="ytick_8">
     <g id="line2d_14">
      <g>
       <use xlink:href="#mae6a1badf5" x="108" y="134.59224" style="fill: #262626; stroke: #262626; stroke-width: 2.5"/>
      </g>
     </g>
     <g id="text_15">
      <!-- 0.175 -->
      <g style="fill: #262626" transform="translate(29.518125 142.950521)scale(0.22 -0.22)">
       <use xlink:href="#DejaVuSans-30"/>
       <use xlink:href="#DejaVuSans-2e" x="63.623047"/>
       <use xlink:href="#DejaVuSans-31" x="95.410156"/>
       <use xlink:href="#DejaVuSans-37" x="159.033203"/>
       <use xlink:href="#DejaVuSans-35" x="222.65625"/>
      </g>
     </g>
    </g>
    <g id="ytick_9">
     <g id="line2d_15">
      <g>
       <use xlink:href="#mae6a1badf5" x="108" y="84.643588" style="fill: #262626; stroke: #262626; stroke-width: 2.5"/>
      </g>
     </g>
     <g id="text_16">
      <!-- 0.200 -->
      <g style="fill: #262626" transform="translate(29.518125 93.00187)scale(0.22 -0.22)">
       <use xlink:href="#DejaVuSans-30"/>
       <use xlink:href="#DejaVuSans-2e" x="63.623047"/>
       <use xlink:href="#DejaVuSans-32" x="95.410156"/>
       <use xlink:href="#DejaVuSans-30" x="159.033203"/>
       <use xlink:href="#DejaVuSans-30" x="222.65625"/>
      </g>
     </g>
    </g>
    <g id="text_17">
     <!-- probability of success -->
     <g style="fill: #262626" transform="translate(20.526875 416.715)rotate(-90)scale(0.24 -0.24)">
      <defs>
       <path id="DejaVuSans-72" d="M 2631 2963 
Q 2534 3019 2420 3045 
Q 2306 3072 2169 3072 
Q 1681 3072 1420 2755 
Q 1159 2438 1159 1844 
L 1159 0 
L 581 0 
L 581 3500 
L 1159 3500 
L 1159 2956 
Q 1341 3275 1631 3429 
Q 1922 3584 2338 3584 
Q 2397 3584 2469 3576 
Q 2541 3569 2628 3553 
L 2631 2963 
z
" transform="scale(0.015625)"/>
       <path id="DejaVuSans-6f" d="M 1959 3097 
Q 1497 3097 1228 2736 
Q 959 2375 959 1747 
Q 959 1119 1226 758 
Q 1494 397 1959 397 
Q 2419 397 2687 759 
Q 2956 1122 2956 1747 
Q 2956 2369 2687 2733 
Q 2419 3097 1959 3097 
z
M 1959 3584 
Q 2709 3584 3137 3096 
Q 3566 2609 3566 1747 
Q 3566 888 3137 398 
Q 2709 -91 1959 -91 
Q 1206 -91 779 398 
Q 353 888 353 1747 
Q 353 2609 779 3096 
Q 1206 3584 1959 3584 
z
" transform="scale(0.015625)"/>
       <path id="DejaVuSans-62" d="M 3116 1747 
Q 3116 2381 2855 2742 
Q 2594 3103 2138 3103 
Q 1681 3103 1420 2742 
Q 1159 2381 1159 1747 
Q 1159 1113 1420 752 
Q 1681 391 2138 391 
Q 2594 391 2855 752 
Q 3116 1113 3116 1747 
z
M 1159 2969 
Q 1341 3281 1617 3432 
Q 1894 3584 2278 3584 
Q 2916 3584 3314 3078 
Q 3713 2572 3713 1747 
Q 3713 922 3314 415 
Q 2916 -91 2278 -91 
Q 1894 -91 1617 61 
Q 1341 213 1159 525 
L 1159 0 
L 581 0 
L 581 4863 
L 1159 4863 
L 1159 2969 
z
" transform="scale(0.015625)"/>
       <path id="DejaVuSans-61" d="M 2194 1759 
Q 1497 1759 1228 1600 
Q 959 1441 959 1056 
Q 959 750 1161 570 
Q 1363 391 1709 391 
Q 2188 391 2477 730 
Q 2766 1069 2766 1631 
L 2766 1759 
L 2194 1759 
z
M 3341 1997 
L 3341 0 
L 2766 0 
L 2766 531 
Q 2569 213 2275 61 
Q 1981 -91 1556 -91 
Q 1019 -91 701 211 
Q 384 513 384 1019 
Q 384 1609 779 1909 
Q 1175 2209 1959 2209 
L 2766 2209 
L 2766 2266 
Q 2766 2663 2505 2880 
Q 2244 3097 1772 3097 
Q 1472 3097 1187 3025 
Q 903 2953 641 2809 
L 641 3341 
Q 956 3463 1253 3523 
Q 1550 3584 1831 3584 
Q 2591 3584 2966 3190 
Q 3341 2797 3341 1997 
z
" transform="scale(0.015625)"/>
       <path id="DejaVuSans-69" d="M 603 3500 
L 1178 3500 
L 1178 0 
L 603 0 
L 603 3500 
z
M 603 4863 
L 1178 4863 
L 1178 4134 
L 603 4134 
L 603 4863 
z
" transform="scale(0.015625)"/>
       <path id="DejaVuSans-6c" d="M 603 4863 
L 1178 4863 
L 1178 0 
L 603 0 
L 603 4863 
z
" transform="scale(0.015625)"/>
       <path id="DejaVuSans-79" d="M 2059 -325 
Q 1816 -950 1584 -1140 
Q 1353 -1331 966 -1331 
L 506 -1331 
L 506 -850 
L 844 -850 
Q 1081 -850 1212 -737 
Q 1344 -625 1503 -206 
L 1606 56 
L 191 3500 
L 800 3500 
L 1894 763 
L 2988 3500 
L 3597 3500 
L 2059 -325 
z
" transform="scale(0.015625)"/>
       <path id="DejaVuSans-20" transform="scale(0.015625)"/>
       <path id="DejaVuSans-66" d="M 2375 4863 
L 2375 4384 
L 1825 4384 
Q 1516 4384 1395 4259 
Q 1275 4134 1275 3809 
L 1275 3500 
L 2222 3500 
L 2222 3053 
L 1275 3053 
L 1275 0 
L 697 0 
L 697 3053 
L 147 3053 
L 147 3500 
L 697 3500 
L 697 3744 
Q 697 4328 969 4595 
Q 1241 4863 1831 4863 
L 2375 4863 
z
" transform="scale(0.015625)"/>
       <path id="DejaVuSans-75" d="M 544 1381 
L 544 3500 
L 1119 3500 
L 1119 1403 
Q 1119 906 1312 657 
Q 1506 409 1894 409 
Q 2359 409 2629 706 
Q 2900 1003 2900 1516 
L 2900 3500 
L 3475 3500 
L 3475 0 
L 2900 0 
L 2900 538 
Q 2691 219 2414 64 
Q 2138 -91 1772 -91 
Q 1169 -91 856 284 
Q 544 659 544 1381 
z
M 1991 3584 
L 1991 3584 
z
" transform="scale(0.015625)"/>
       <path id="DejaVuSans-63" d="M 3122 3366 
L 3122 2828 
Q 2878 2963 2633 3030 
Q 2388 3097 2138 3097 
Q 1578 3097 1268 2742 
Q 959 2388 959 1747 
Q 959 1106 1268 751 
Q 1578 397 2138 397 
Q 2388 397 2633 464 
Q 2878 531 3122 666 
L 3122 134 
Q 2881 22 2623 -34 
Q 2366 -91 2075 -91 
Q 1284 -91 818 406 
Q 353 903 353 1747 
Q 353 2603 823 3093 
Q 1294 3584 2113 3584 
Q 2378 3584 2631 3529 
Q 2884 3475 3122 3366 
z
" transform="scale(0.015625)"/>
      </defs>
      <use xlink:href="#DejaVuSans-70"/>
      <use xlink:href="#DejaVuSans-72" x="63.476562"/>
      <use xlink:href="#DejaVuSans-6f" x="102.339844"/>
      <use xlink:href="#DejaVuSans-62" x="163.521484"/>
      <use xlink:href="#DejaVuSans-61" x="226.998047"/>
      <use xlink:href="#DejaVuSans-62" x="288.277344"/>
      <use xlink:href="#DejaVuSans-69" x="351.753906"/>
      <use xlink:href="#DejaVuSans-6c" x="379.537109"/>
      <use xlink:href="#DejaVuSans-69" x="407.320312"/>
      <use xlink:href="#DejaVuSans-74" x="435.103516"/>
      <use xlink:href="#DejaVuSans-79" x="474.3125"/>
      <use xlink:href="#DejaVuSans-20" x="533.492188"/>
      <use xlink:href="#DejaVuSans-6f" x="565.279297"/>
      <use xlink:href="#DejaVuSans-66" x="626.460938"/>
      <use xlink:href="#DejaVuSans-20" x="661.666016"/>
      <use xlink:href="#DejaVuSans-73" x="693.453125"/>
      <use xlink:href="#DejaVuSans-75" x="745.552734"/>
      <use xlink:href="#DejaVuSans-63" x="808.931641"/>
      <use xlink:href="#DejaVuSans-63" x="863.912109"/>
      <use xlink:href="#DejaVuSans-65" x="918.892578"/>
      <use xlink:href="#DejaVuSans-73" x="980.416016"/>
      <use xlink:href="#DejaVuSans-73" x="1032.515625"/>
     </g>
    </g>
   </g>
   <g id="line2d_16">
    <path d="M 138.436364 421.796988 
L 150.610909 421.796988 
L 162.785455 359.361173 
L 174.96 308.632074 
L 187.134545 214.978352 
L 199.309091 156.444775 
L 211.483636 88.887273 
L 223.658182 114.007933 
L 235.832727 137.177473 
L 248.007273 212.829072 
L 260.181818 242.446452 
L 272.356364 362.86709 
L 284.530909 331.59869 
L 296.705455 447.353982 
L 308.88 435.628213 
L 321.054545 432.742917 
L 333.229091 373.954673 
L 345.403636 285.47337 
L 357.578182 328.160708 
L 369.752727 202.415796 
L 381.927273 184.616136 
L 394.101818 150.206404 
L 406.276364 171.447613 
L 418.450909 170.47721 
L 430.625455 219.241881 
L 442.8 194.983162 
L 454.974545 314.475046 
L 467.149091 251.815446 
L 479.323636 401.162321 
L 491.498182 427.992005 
L 503.672727 416.706227 
L 515.847273 439.195827 
L 528.021818 311.989037 
L 540.196364 367.577464 
L 552.370909 222.164598 
L 564.545455 244.325534 
L 576.72 185.859808 
L 588.894545 152.749116 
L 601.069091 134.118167 
L 613.243636 113.620024 
L 625.418182 128.95627 
L 637.592727 260.533525 
L 649.767273 307.303102 
L 661.941818 418.180529 
L 674.116364 449.080506 
L 686.290909 459.053641 
L 698.465455 457.408729 
L 710.64 383.107973 
L 722.814545 375.0295 
L 734.989091 250.13704 
L 747.163636 201.71767 
" clip-path="url(#p2b95d61464)" style="fill: none; stroke-dasharray: 11.1,4.8; stroke-dashoffset: 0; stroke: #4c72b0; stroke-width: 3"/>
    <defs>
     <path id="m05c1bd5d0b" d="M 0 6 
C 1.591219 6 3.117479 5.367802 4.242641 4.242641 
C 5.367802 3.117479 6 1.591219 6 0 
C 6 -1.591219 5.367802 -3.117479 4.242641 -4.242641 
C 3.117479 -5.367802 1.591219 -6 0 -6 
C -1.591219 -6 -3.117479 -5.367802 -4.242641 -4.242641 
C -5.367802 -3.117479 -6 -1.591219 -6 0 
C -6 1.591219 -5.367802 3.117479 -4.242641 4.242641 
C -3.117479 5.367802 -1.591219 6 0 6 
z
" style="stroke: #4c72b0"/>
    </defs>
    <g clip-path="url(#p2b95d61464)">
     <use xlink:href="#m05c1bd5d0b" x="138.436364" y="421.796988" style="fill: #4c72b0; stroke: #4c72b0"/>
     <use xlink:href="#m05c1bd5d0b" x="150.610909" y="421.796988" style="fill: #4c72b0; stroke: #4c72b0"/>
     <use xlink:href="#m05c1bd5d0b" x="162.785455" y="359.361173" style="fill: #4c72b0; stroke: #4c72b0"/>
     <use xlink:href="#m05c1bd5d0b" x="174.96" y="308.632074" style="fill: #4c72b0; stroke: #4c72b0"/>
     <use xlink:href="#m05c1bd5d0b" x="187.134545" y="214.978352" style="fill: #4c72b0; stroke: #4c72b0"/>
     <use xlink:href="#m05c1bd5d0b" x="199.309091" y="156.444775" style="fill: #4c72b0; stroke: #4c72b0"/>
     <use xlink:href="#m05c1bd5d0b" x="211.483636" y="88.887273" style="fill: #4c72b0; stroke: #4c72b0"/>
     <use xlink:href="#m05c1bd5d0b" x="223.658182" y="114.007933" style="fill: #4c72b0; stroke: #4c72b0"/>
     <use xlink:href="#m05c1bd5d0b" x="235.832727" y="137.177473" style="fill: #4c72b0; stroke: #4c72b0"/>
     <use xlink:href="#m05c1bd5d0b" x="248.007273" y="212.829072" style="fill: #4c72b0; stroke: #4c72b0"/>
     <use xlink:href="#m05c1bd5d0b" x="260.181818" y="242.446452" style="fill: #4c72b0; stroke: #4c72b0"/>
     <use xlink:href="#m05c1bd5d0b" x="272.356364" y="362.86709" style="fill: #4c72b0; stroke: #4c72b0"/>
     <use xlink:href="#m05c1bd5d0b" x="284.530909" y="331.59869" style="fill: #4c72b0; stroke: #4c72b0"/>
     <use xlink:href="#m05c1bd5d0b" x="296.705455" y="447.353982" style="fill: #4c72b0; stroke: #4c72b0"/>
     <use xlink:href="#m05c1bd5d0b" x="308.88" y="435.628213" style="fill: #4c72b0; stroke: #4c72b0"/>
     <use xlink:href="#m05c1bd5d0b" x="321.054545" y="432.742917" style="fill: #4c72b0; stroke: #4c72b0"/>
     <use xlink:href="#m05c1bd5d0b" x="333.229091" y="373.954673" style="fill: #4c72b0; stroke: #4c72b0"/>
     <use xlink:href="#m05c1bd5d0b" x="345.403636" y="285.47337" style="fill: #4c72b0; stroke: #4c72b0"/>
     <use xlink:href="#m05c1bd5d0b" x="357.578182" y="328.160708" style="fill: #4c72b0; stroke: #4c72b0"/>
     <use xlink:href="#m05c1bd5d0b" x="369.752727" y="202.415796" style="fill: #4c72b0; stroke: #4c72b0"/>
     <use xlink:href="#m05c1bd5d0b" x="381.927273" y="184.616136" style="fill: #4c72b0; stroke: #4c72b0"/>
     <use xlink:href="#m05c1bd5d0b" x="394.101818" y="150.206404" style="fill: #4c72b0; stroke: #4c72b0"/>
     <use xlink:href="#m05c1bd5d0b" x="406.276364" y="171.447613" style="fill: #4c72b0; stroke: #4c72b0"/>
     <use xlink:href="#m05c1bd5d0b" x="418.450909" y="170.47721" style="fill: #4c72b0; stroke: #4c72b0"/>
     <use xlink:href="#m05c1bd5d0b" x="430.625455" y="219.241881" style="fill: #4c72b0; stroke: #4c72b0"/>
     <use xlink:href="#m05c1bd5d0b" x="442.8" y="194.983162" style="fill: #4c72b0; stroke: #4c72b0"/>
     <use xlink:href="#m05c1bd5d0b" x="454.974545" y="314.475046" style="fill: #4c72b0; stroke: #4c72b0"/>
     <use xlink:href="#m05c1bd5d0b" x="467.149091" y="251.815446" style="fill: #4c72b0; stroke: #4c72b0"/>
     <use xlink:href="#m05c1bd5d0b" x="479.323636" y="401.162321" style="fill: #4c72b0; stroke: #4c72b0"/>
     <use xlink:href="#m05c1bd5d0b" x="491.498182" y="427.992005" style="fill: #4c72b0; stroke: #4c72b0"/>
     <use xlink:href="#m05c1bd5d0b" x="503.672727" y="416.706227" style="fill: #4c72b0; stroke: #4c72b0"/>
     <use xlink:href="#m05c1bd5d0b" x="515.847273" y="439.195827" style="fill: #4c72b0; stroke: #4c72b0"/>
     <use xlink:href="#m05c1bd5d0b" x="528.021818" y="311.989037" style="fill: #4c72b0; stroke: #4c72b0"/>
     <use xlink:href="#m05c1bd5d0b" x="540.196364" y="367.577464" style="fill: #4c72b0; stroke: #4c72b0"/>
     <use xlink:href="#m05c1bd5d0b" x="552.370909" y="222.164598" style="fill: #4c72b0; stroke: #4c72b0"/>
     <use xlink:href="#m05c1bd5d0b" x="564.545455" y="244.325534" style="fill: #4c72b0; stroke: #4c72b0"/>
     <use xlink:href="#m05c1bd5d0b" x="576.72" y="185.859808" style="fill: #4c72b0; stroke: #4c72b0"/>
     <use xlink:href="#m05c1bd5d0b" x="588.894545" y="152.749116" style="fill: #4c72b0; stroke: #4c72b0"/>
     <use xlink:href="#m05c1bd5d0b" x="601.069091" y="134.118167" style="fill: #4c72b0; stroke: #4c72b0"/>
     <use xlink:href="#m05c1bd5d0b" x="613.243636" y="113.620024" style="fill: #4c72b0; stroke: #4c72b0"/>
     <use xlink:href="#m05c1bd5d0b" x="625.418182" y="128.95627" style="fill: #4c72b0; stroke: #4c72b0"/>
     <use xlink:href="#m05c1bd5d0b" x="637.592727" y="260.533525" style="fill: #4c72b0; stroke: #4c72b0"/>
     <use xlink:href="#m05c1bd5d0b" x="649.767273" y="307.303102" style="fill: #4c72b0; stroke: #4c72b0"/>
     <use xlink:href="#m05c1bd5d0b" x="661.941818" y="418.180529" style="fill: #4c72b0; stroke: #4c72b0"/>
     <use xlink:href="#m05c1bd5d0b" x="674.116364" y="449.080506" style="fill: #4c72b0; stroke: #4c72b0"/>
     <use xlink:href="#m05c1bd5d0b" x="686.290909" y="459.053641" style="fill: #4c72b0; stroke: #4c72b0"/>
     <use xlink:href="#m05c1bd5d0b" x="698.465455" y="457.408729" style="fill: #4c72b0; stroke: #4c72b0"/>
     <use xlink:href="#m05c1bd5d0b" x="710.64" y="383.107973" style="fill: #4c72b0; stroke: #4c72b0"/>
     <use xlink:href="#m05c1bd5d0b" x="722.814545" y="375.0295" style="fill: #4c72b0; stroke: #4c72b0"/>
     <use xlink:href="#m05c1bd5d0b" x="734.989091" y="250.13704" style="fill: #4c72b0; stroke: #4c72b0"/>
     <use xlink:href="#m05c1bd5d0b" x="747.163636" y="201.71767" style="fill: #4c72b0; stroke: #4c72b0"/>
    </g>
   </g>
   <g id="line2d_17">
    <path d="M 138.436364 349.456081 
L 151.232432 320.647461 
L 158.544472 304.72003 
L 164.637838 291.968211 
L 170.121867 281.016747 
L 174.99656 271.779219 
L 179.261916 264.131941 
L 183.527273 256.933032 
L 187.183292 251.147917 
L 190.839312 245.741989 
L 194.495332 240.735954 
L 198.151351 236.148989 
L 201.198034 232.659366 
L 204.244717 229.482278 
L 207.2914 226.626178 
L 210.338084 224.098662 
L 213.384767 221.906456 
L 215.822113 220.398064 
L 218.259459 219.110587 
L 220.696806 218.046219 
L 223.134152 217.206772 
L 225.571499 216.593675 
L 228.008845 216.207972 
L 230.446192 216.05032 
L 232.883538 216.120988 
L 235.320885 216.419854 
L 237.758231 216.94641 
L 240.195577 217.69976 
L 242.632924 218.678621 
L 245.07027 219.881326 
L 247.507617 221.305827 
L 249.944963 222.949698 
L 252.991646 225.308728 
L 256.038329 227.999848 
L 259.085012 231.015899 
L 262.131695 234.348857 
L 265.178378 237.989855 
L 268.834398 242.751972 
L 272.490418 247.925436 
L 276.146437 253.49043 
L 279.802457 259.425638 
L 284.067813 266.787549 
L 288.33317 274.583985 
L 293.207862 283.974034 
L 298.691892 295.072972 
L 304.785258 307.957232 
L 312.097297 323.998053 
L 322.45602 347.347824 
L 337.080098 380.289581 
L 344.392138 396.193439 
L 350.485504 408.918175 
L 355.969533 419.839733 
L 360.844226 429.046491 
L 365.109582 436.663784 
L 369.374939 443.830015 
L 373.030958 449.585104 
L 376.686978 454.959268 
L 380.342998 459.93192 
L 383.999017 464.484014 
L 387.0457 467.943535 
L 390.092383 471.08966 
L 393.139066 473.914018 
L 396.185749 476.409095 
L 399.232432 478.568255 
L 401.669779 480.049832 
L 404.107125 481.310204 
L 406.544472 482.347227 
L 408.981818 483.159134 
L 411.419165 483.744543 
L 413.856511 484.102457 
L 416.293857 484.232266 
L 418.731204 484.13375 
L 421.16855 483.807076 
L 423.605897 483.252801 
L 426.043243 482.471868 
L 428.48059 481.465607 
L 430.917936 480.235731 
L 433.355283 478.784335 
L 435.792629 477.11389 
L 438.839312 474.722165 
L 441.885995 471.999009 
L 444.932678 468.951667 
L 447.979361 465.588247 
L 451.026044 461.917696 
L 454.682064 457.121426 
L 458.338084 451.915364 
L 461.994103 446.319449 
L 465.650123 440.355118 
L 469.915479 432.961649 
L 474.180835 425.136417 
L 479.055528 415.717032 
L 484.539558 404.589885 
L 490.632924 391.680515 
L 497.944963 375.618581 
L 508.303686 352.256302 
L 522.318428 320.680124 
L 529.630467 304.751534 
L 535.723833 291.99838 
L 541.207862 281.04544 
L 546.082555 271.806391 
L 550.347912 264.157632 
L 554.613268 256.957106 
L 558.269287 251.170506 
L 561.925307 245.763005 
L 565.581327 240.755318 
L 569.237346 236.166626 
L 572.284029 232.675512 
L 575.330713 229.49689 
L 578.377396 226.639217 
L 581.424079 224.110094 
L 584.470762 221.91625 
L 586.908108 220.406528 
L 589.345455 219.117708 
L 591.782801 218.051984 
L 594.220147 217.211172 
L 596.657494 216.596702 
L 599.09484 216.209621 
L 601.532187 216.050588 
L 603.969533 216.119873 
L 606.40688 216.41736 
L 608.844226 216.942541 
L 611.281572 217.694523 
L 613.718919 218.672024 
L 616.156265 219.87338 
L 618.593612 221.296546 
L 621.030958 222.939098 
L 624.077641 225.296504 
L 627.124324 227.986033 
L 630.171007 231.00053 
L 633.21769 234.331974 
L 636.264373 237.971504 
L 639.920393 242.731924 
L 643.576413 247.903768 
L 647.232432 253.467224 
L 650.888452 259.400983 
L 655.153808 266.761324 
L 659.419165 274.556327 
L 664.293857 283.944914 
L 669.777887 295.042445 
L 675.871253 307.925451 
L 683.183292 323.965214 
L 693.542015 347.314349 
L 708.166093 380.256955 
L 715.478133 396.161993 
L 721.571499 408.88808 
L 727.055528 419.811127 
L 731.930221 429.019417 
L 736.195577 436.638202 
L 740.460934 443.806058 
L 744.116953 449.56264 
L 747.163636 454.069766 
L 747.163636 454.069766 
" clip-path="url(#p2b95d61464)" style="fill: none; stroke: #dd8452; stroke-width: 3; stroke-linecap: round"/>
   </g>
   <g id="line2d_18">
    <path d="M 138.436364 466.526894 
L 140.264373 461.361472 
L 142.092383 455.583707 
L 144.52973 446.965151 
L 146.967076 437.353933 
L 149.404423 426.813934 
L 152.451106 412.440109 
L 155.497789 396.874166 
L 159.153808 376.849749 
L 163.419165 352.013362 
L 168.903194 318.529083 
L 181.699263 239.650592 
L 185.964619 215.010337 
L 189.620639 195.208684 
L 192.667322 179.864417 
L 195.714005 165.742593 
L 198.151351 155.424282 
L 200.588698 146.051018 
L 203.026044 137.685101 
L 204.854054 132.105446 
L 206.682064 127.144711 
L 208.510074 122.821446 
L 210.338084 119.151819 
L 212.166093 116.149552 
L 213.384767 114.524445 
L 214.60344 113.203686 
L 215.822113 112.18947 
L 217.040786 111.483484 
L 218.259459 111.086901 
L 219.478133 111.00038 
L 220.696806 111.224065 
L 221.915479 111.757584 
L 223.134152 112.600051 
L 224.352826 113.750065 
L 225.571499 115.205714 
L 226.790172 116.964579 
L 228.008845 119.023735 
L 229.836855 122.667894 
L 231.664865 126.966265 
L 233.492875 131.902773 
L 235.320885 137.45896 
L 237.148894 143.614046 
L 239.586241 152.712356 
L 242.023587 162.773738 
L 244.460934 173.731321 
L 247.507617 188.577101 
L 250.5543 204.554872 
L 254.210319 224.98814 
L 258.475676 250.176281 
L 264.569042 287.701039 
L 274.318428 347.939681 
L 278.583784 372.986864 
L 282.239803 393.25468 
L 285.286486 409.064954 
L 288.33317 423.71815 
L 290.770516 434.504938 
L 293.207862 444.381879 
L 295.645209 453.283329 
L 297.473219 459.283404 
L 299.301229 464.678907 
L 301.129238 469.449661 
L 302.957248 473.577826 
L 304.785258 477.047964 
L 306.003931 478.989308 
L 307.222604 480.62915 
L 308.441278 481.964763 
L 309.659951 482.993928 
L 310.878624 483.714934 
L 312.097297 484.126582 
L 313.315971 484.228187 
L 314.534644 484.019582 
L 315.753317 483.501112 
L 316.97199 482.67364 
L 318.190663 481.538541 
L 319.409337 480.097702 
L 320.62801 478.353518 
L 321.846683 476.308889 
L 323.674693 472.686179 
L 325.502703 468.408777 
L 327.330713 463.492679 
L 329.158722 457.956267 
L 330.986732 451.820247 
L 333.424079 442.746132 
L 335.861425 432.707397 
L 338.298771 421.770763 
L 341.345455 406.948569 
L 344.392138 390.99127 
L 348.048157 370.578159 
L 352.313514 345.407081 
L 358.40688 307.894028 
L 368.156265 247.642319 
L 372.421622 222.577371 
L 376.077641 202.288831 
L 379.124324 186.457642 
L 382.171007 171.780448 
L 384.608354 160.972408 
L 387.0457 151.072541 
L 389.483047 142.146646 
L 391.311057 136.127335 
L 393.139066 130.711905 
L 394.967076 125.920605 
L 396.795086 121.771354 
L 398.623096 118.279667 
L 399.841769 116.32374 
L 401.060442 114.66917 
L 402.279115 113.318708 
L 403.497789 112.274598 
L 404.716462 111.538576 
L 405.935135 111.111865 
L 407.153808 110.995175 
L 408.372482 111.1887 
L 409.591155 111.692118 
L 410.809828 112.504592 
L 412.028501 113.624772 
L 413.247174 115.050795 
L 414.465848 116.780291 
L 415.684521 118.810386 
L 417.512531 122.411632 
L 419.340541 126.668048 
L 421.16855 131.563717 
L 422.99656 137.080332 
L 424.82457 143.197263 
L 427.261916 152.247147 
L 429.699263 162.263195 
L 432.136609 173.178837 
L 435.183292 187.977386 
L 438.229975 203.914151 
L 441.885995 224.307025 
L 446.151351 249.46094 
L 452.244717 286.962141 
L 462.60344 350.883836 
L 466.868796 375.780107 
L 470.524816 395.87322 
L 473.571499 411.507887 
L 476.618182 425.960114 
L 479.055528 436.569259 
L 481.492875 446.254839 
L 483.930221 454.952477 
L 485.758231 460.792337 
L 487.586241 466.021982 
L 489.414251 470.621855 
L 491.24226 474.574756 
L 493.07027 477.865902 
L 494.288943 479.686177 
L 495.507617 481.203791 
L 496.72629 482.416221 
L 497.944963 483.321453 
L 499.163636 483.917981 
L 500.38231 484.204813 
L 501.600983 484.181473 
L 502.819656 483.848 
L 504.038329 483.204948 
L 505.257002 482.253386 
L 506.475676 480.994895 
L 507.694349 479.431569 
L 508.913022 477.566004 
L 510.131695 475.401303 
L 511.959705 471.601377 
L 513.787715 467.150815 
L 515.615725 462.066261 
L 517.443735 456.366727 
L 519.271744 450.073529 
L 521.709091 440.800103 
L 524.146437 430.574991 
L 526.583784 419.466153 
L 529.630467 404.450369 
L 532.67715 388.325415 
L 536.33317 367.747784 
L 540.598526 342.438364 
L 547.301229 301.029795 
L 555.831941 248.355709 
L 560.097297 223.255528 
L 563.753317 202.925779 
L 566.8 187.052948 
L 569.846683 172.327931 
L 572.284029 161.477515 
L 574.721376 151.531914 
L 577.158722 142.557231 
L 579.596069 134.613117 
L 581.424079 129.363371 
L 583.252088 124.7428 
L 585.080098 120.76868 
L 586.908108 117.455875 
L 588.126781 115.620956 
L 589.345455 114.088562 
L 590.564128 112.861241 
L 591.782801 111.941033 
L 593.001474 111.329467 
L 594.220147 111.02756 
L 595.438821 111.035814 
L 596.657494 111.354215 
L 597.876167 111.982234 
L 599.09484 112.918827 
L 600.313514 114.162437 
L 601.532187 115.710996 
L 602.75086 117.561932 
L 603.969533 119.712166 
L 605.797543 123.490749 
L 607.625553 127.920467 
L 609.453563 132.984755 
L 611.281572 138.664674 
L 613.109582 144.938984 
L 615.546929 154.188478 
L 617.984275 164.391233 
L 620.421622 175.479437 
L 623.468305 190.472062 
L 626.514988 206.577004 
L 630.171007 227.135065 
L 634.436364 252.428143 
L 640.52973 290.023058 
L 650.279115 350.174187 
L 654.544472 375.107515 
L 658.200491 395.243312 
L 661.247174 410.920772 
L 664.293857 425.421887 
L 666.731204 436.074192 
L 669.16855 445.806221 
L 671.605897 454.553292 
L 673.433907 460.431985 
L 675.261916 465.70181 
L 677.089926 470.343062 
L 678.917936 474.338384 
L 680.745946 477.672835 
L 681.964619 479.522391 
L 683.183292 481.069559 
L 684.401966 482.311766 
L 685.620639 483.246948 
L 686.839312 483.87355 
L 688.057985 484.19053 
L 689.276658 484.197362 
L 690.495332 483.894034 
L 691.714005 483.281051 
L 692.932678 482.359431 
L 694.151351 481.130706 
L 695.370025 479.596919 
L 696.588698 477.76062 
L 697.807371 475.624861 
L 699.635381 471.867636 
L 701.463391 467.458779 
L 703.2914 462.414779 
L 705.11941 456.754496 
L 706.94742 450.499098 
L 709.384767 441.273573 
L 711.822113 431.093216 
L 714.259459 420.025688 
L 717.306143 405.056282 
L 720.352826 388.971415 
L 724.008845 368.433005 
L 728.274201 343.156368 
L 734.367568 305.572229 
L 744.116953 245.406546 
L 747.163636 227.445495 
L 747.163636 227.445495 
" clip-path="url(#p2b95d61464)" style="fill: none; stroke: #55a868; stroke-width: 3; stroke-linecap: round"/>
   </g>
   <g id="patch_3">
    <path d="M 108 504 
L 108 69.12 
" style="fill: none; stroke: #262626; stroke-width: 2.5; stroke-linejoin: miter; stroke-linecap: square"/>
   </g>
   <g id="patch_4">
    <path d="M 777.6 504 
L 777.6 69.12 
" style="fill: none; stroke: #262626; stroke-width: 2.5; stroke-linejoin: miter; stroke-linecap: square"/>
   </g>
   <g id="patch_5">
    <path d="M 108 504 
L 777.6 504 
" style="fill: none; stroke: #262626; stroke-width: 2.5; stroke-linejoin: miter; stroke-linecap: square"/>
   </g>
   <g id="patch_6">
    <path d="M 108 69.12 
L 777.6 69.12 
" style="fill: none; stroke: #262626; stroke-width: 2.5; stroke-linejoin: miter; stroke-linecap: square"/>
   </g>
   <g id="legend_1">
    <g id="patch_7">
     <path d="M 470.115625 183.595625 
L 762.2 183.595625 
Q 766.6 183.595625 766.6 179.195625 
L 766.6 84.52 
Q 766.6 80.12 762.2 80.12 
L 470.115625 80.12 
Q 465.715625 80.12 465.715625 84.52 
L 465.715625 179.195625 
Q 465.715625 183.595625 470.115625 183.595625 
z
" style="fill: #ffffff; opacity: 0.8; stroke: #cccccc; stroke-width: 2; stroke-linejoin: miter"/>
    </g>
    <g id="line2d_19">
     <path d="M 474.515625 97.936563 
L 496.515625 97.936563 
L 518.515625 97.936563 
" style="fill: none; stroke-dasharray: 11.1,4.8; stroke-dashoffset: 0; stroke: #4c72b0; stroke-width: 3"/>
     <g>
      <use xlink:href="#m05c1bd5d0b" x="496.515625" y="97.936563" style="fill: #4c72b0; stroke: #4c72b0"/>
     </g>
    </g>
    <g id="text_18">
     <!-- search -->
     <g style="fill: #262626" transform="translate(536.115625 105.636563)scale(0.22 -0.22)">
      <defs>
       <path id="DejaVuSans-68" d="M 3513 2113 
L 3513 0 
L 2938 0 
L 2938 2094 
Q 2938 2591 2744 2837 
Q 2550 3084 2163 3084 
Q 1697 3084 1428 2787 
Q 1159 2491 1159 1978 
L 1159 0 
L 581 0 
L 581 4863 
L 1159 4863 
L 1159 2956 
Q 1366 3272 1645 3428 
Q 1925 3584 2291 3584 
Q 2894 3584 3203 3211 
Q 3513 2838 3513 2113 
z
" transform="scale(0.015625)"/>
      </defs>
      <use xlink:href="#DejaVuSans-73"/>
      <use xlink:href="#DejaVuSans-65" x="52.099609"/>
      <use xlink:href="#DejaVuSans-61" x="113.623047"/>
      <use xlink:href="#DejaVuSans-72" x="174.902344"/>
      <use xlink:href="#DejaVuSans-63" x="213.765625"/>
      <use xlink:href="#DejaVuSans-68" x="268.746094"/>
     </g>
    </g>
    <g id="line2d_20">
     <path d="M 474.515625 130.228438 
L 496.515625 130.228438 
L 518.515625 130.228438 
" style="fill: none; stroke: #dd8452; stroke-width: 3; stroke-linecap: round"/>
    </g>
    <g id="text_19">
     <!-- predicted frequency -->
     <g style="fill: #262626" transform="translate(536.115625 137.928438)scale(0.22 -0.22)">
      <defs>
       <path id="DejaVuSans-64" d="M 2906 2969 
L 2906 4863 
L 3481 4863 
L 3481 0 
L 2906 0 
L 2906 525 
Q 2725 213 2448 61 
Q 2172 -91 1784 -91 
Q 1150 -91 751 415 
Q 353 922 353 1747 
Q 353 2572 751 3078 
Q 1150 3584 1784 3584 
Q 2172 3584 2448 3432 
Q 2725 3281 2906 2969 
z
M 947 1747 
Q 947 1113 1208 752 
Q 1469 391 1925 391 
Q 2381 391 2643 752 
Q 2906 1113 2906 1747 
Q 2906 2381 2643 2742 
Q 2381 3103 1925 3103 
Q 1469 3103 1208 2742 
Q 947 2381 947 1747 
z
" transform="scale(0.015625)"/>
       <path id="DejaVuSans-71" d="M 947 1747 
Q 947 1113 1208 752 
Q 1469 391 1925 391 
Q 2381 391 2643 752 
Q 2906 1113 2906 1747 
Q 2906 2381 2643 2742 
Q 2381 3103 1925 3103 
Q 1469 3103 1208 2742 
Q 947 2381 947 1747 
z
M 2906 525 
Q 2725 213 2448 61 
Q 2172 -91 1784 -91 
Q 1150 -91 751 415 
Q 353 922 353 1747 
Q 353 2572 751 3078 
Q 1150 3584 1784 3584 
Q 2172 3584 2448 3432 
Q 2725 3281 2906 2969 
L 2906 3500 
L 3481 3500 
L 3481 -1331 
L 2906 -1331 
L 2906 525 
z
" transform="scale(0.015625)"/>
       <path id="DejaVuSans-6e" d="M 3513 2113 
L 3513 0 
L 2938 0 
L 2938 2094 
Q 2938 2591 2744 2837 
Q 2550 3084 2163 3084 
Q 1697 3084 1428 2787 
Q 1159 2491 1159 1978 
L 1159 0 
L 581 0 
L 581 3500 
L 1159 3500 
L 1159 2956 
Q 1366 3272 1645 3428 
Q 1925 3584 2291 3584 
Q 2894 3584 3203 3211 
Q 3513 2838 3513 2113 
z
" transform="scale(0.015625)"/>
      </defs>
      <use xlink:href="#DejaVuSans-70"/>
      <use xlink:href="#DejaVuSans-72" x="63.476562"/>
      <use xlink:href="#DejaVuSans-65" x="102.339844"/>
      <use xlink:href="#DejaVuSans-64" x="163.863281"/>
      <use xlink:href="#DejaVuSans-69" x="227.339844"/>
      <use xlink:href="#DejaVuSans-63" x="255.123047"/>
      <use xlink:href="#DejaVuSans-74" x="310.103516"/>
      <use xlink:href="#DejaVuSans-65" x="349.3125"/>
      <use xlink:href="#DejaVuSans-64" x="410.835938"/>
      <use xlink:href="#DejaVuSans-20" x="474.3125"/>
      <use xlink:href="#DejaVuSans-66" x="506.099609"/>
      <use xlink:href="#DejaVuSans-72" x="541.304688"/>
      <use xlink:href="#DejaVuSans-65" x="580.167969"/>
      <use xlink:href="#DejaVuSans-71" x="641.691406"/>
      <use xlink:href="#DejaVuSans-75" x="705.167969"/>
      <use xlink:href="#DejaVuSans-65" x="768.546875"/>
      <use xlink:href="#DejaVuSans-6e" x="830.070312"/>
      <use xlink:href="#DejaVuSans-63" x="893.449219"/>
      <use xlink:href="#DejaVuSans-79" x="948.429688"/>
     </g>
    </g>
    <g id="line2d_21">
     <path d="M 474.515625 162.520313 
L 496.515625 162.520313 
L 518.515625 162.520313 
" style="fill: none; stroke: #55a868; stroke-width: 3; stroke-linecap: round"/>
    </g>
    <g id="text_20">
     <!-- fit -->
     <g style="fill: #262626" transform="translate(536.115625 170.220313)scale(0.22 -0.22)">
      <use xlink:href="#DejaVuSans-66"/>
      <use xlink:href="#DejaVuSans-69" x="35.205078"/>
      <use xlink:href="#DejaVuSans-74" x="62.988281"/>
     </g>
    </g>
   </g>
  </g>
 </g>
 <defs>
  <clipPath id="p2b95d61464">
   <rect x="108" y="69.12" width="669.6" height="434.88"/>
  </clipPath>
 </defs>
</svg>
