<?xml version="1.0" encoding="utf-8" standalone="no"?>
<!DOCTYPE svg PUBLIC "-//W3C//DTD SVG 1.1//EN"
  "http://www.w3.org/Graphics/SVG/1.1/DTD/svg11.dtd">
<svg xmlns:xlink="http://www.w3.org/1999/xlink" width="864pt" height="576pt" viewBox="0 0 864 576" xmlns="http://www.w3.org/2000/svg" version="1.1">
 <metadata>
  <rdf:RDF xmlns:dc="http://purl.org/dc/elements/1.1/" xmlns:cc="http://creativecommons.org/ns#" xmlns:rdf="http://www.w3.org/1999/02/22-rdf-syntax-ns#">
   <cc:Work>
    <dc:type rdf:resource="http://purl.org/dc/dcmitype/StillImage"/>
    <dc:date>2023-05-12T17:54:02.534209</dc:date>
    <dc:format>image/svg+xml</dc:format>
    <dc:creator>
     <cc:Agent>
      <dc:title>Matplotlib v3.5.1, https://matplotlib.org/</dc:title>
     </cc:Agent>
    </dc:creator>
   </cc:Work>
  </rdf:RDF>
 </metadata>
 <defs>
  <style type="text/css">*{stroke-linejoin: round; stroke-linecap: butt}</style>
 </defs>
 <g id="figure_1">
  <g id="patch_1">
   <path d="M 0 576 
L 864 576 
L 864 0 
L 0 0 
z
" style="fill: #ffffff"/>
  </g>
  <g id="axes_1">
   <g id="patch_2">
    <path d="M 108 504 
L 777.6 504 
L 777.6 69.12 
L 108 69.12 
z
" style="fill: #ffffff"/>
   </g>
   <g id="matplotlib.axis_1">
    <g id="xtick_1">
     <g id="line2d_1">
      <defs>
       <path id="m702d5d1cd7" d="M 0 0 
L 0 12 
" style="stroke: #262626; stroke-width: 2.5"/>
      </defs>
      <g>
       <use xlink:href="#m702d5d1cd7" x="138.436364" y="504" style="fill: #262626; stroke: #262626; stroke-width: 2.5"/>
      </g>
     </g>
     <g id="text_1">
      <!-- 0 -->
      <g style="fill: #262626" transform="translate(131.437614 536.216563)scale(0.22 -0.22)">
       <defs>
        <path id="DejaVuSans-30" d="M 2034 4250 
Q 1547 4250 1301 3770 
Q 1056 3291 1056 2328 
Q 1056 1369 1301 889 
Q 1547 409 2034 409 
Q 2525 409 2770 889 
Q 3016 1369 3016 2328 
Q 3016 3291 2770 3770 
Q 2525 4250 2034 4250 
z
M 2034 4750 
Q 2819 4750 3233 4129 
Q 3647 3509 3647 2328 
Q 3647 1150 3233 529 
Q 2819 -91 2034 -91 
Q 1250 -91 836 529 
Q 422 1150 422 2328 
Q 422 3509 836 4129 
Q 1250 4750 2034 4750 
z
" transform="scale(0.015625)"/>
       </defs>
       <use xlink:href="#DejaVuSans-30"/>
      </g>
     </g>
    </g>
    <g id="xtick_2">
     <g id="line2d_2">
      <g>
       <use xlink:href="#m702d5d1cd7" x="260.181818" y="504" style="fill: #262626; stroke: #262626; stroke-width: 2.5"/>
      </g>
     </g>
     <g id="text_2">
      <!-- 10 -->
      <g style="fill: #262626" transform="translate(246.184318 536.216563)scale(0.22 -0.22)">
       <defs>
        <path id="DejaVuSans-31" d="M 794 531 
L 1825 531 
L 1825 4091 
L 703 3866 
L 703 4441 
L 1819 4666 
L 2450 4666 
L 2450 531 
L 3481 531 
L 3481 0 
L 794 0 
L 794 531 
z
" transform="scale(0.015625)"/>
       </defs>
       <use xlink:href="#DejaVuSans-31"/>
       <use xlink:href="#DejaVuSans-30" x="63.623047"/>
      </g>
     </g>
    </g>
    <g id="xtick_3">
     <g id="line2d_3">
      <g>
       <use xlink:href="#m702d5d1cd7" x="381.927273" y="504" style="fill: #262626; stroke: #262626; stroke-width: 2.5"/>
      </g>
     </g>
     <g id="text_3">
      <!-- 20 -->
      <g style="fill: #262626" transform="translate(367.929773 536.216563)scale(0.22 -0.22)">
       <defs>
        <path id="DejaVuSans-32" d="M 1228 531 
L 3431 531 
L 3431 0 
L 469 0 
L 469 531 
Q 828 903 1448 1529 
Q 2069 2156 2228 2338 
Q 2531 2678 2651 2914 
Q 2772 3150 2772 3378 
Q 2772 3750 2511 3984 
Q 2250 4219 1831 4219 
Q 1534 4219 1204 4116 
Q 875 4013 500 3803 
L 500 4441 
Q 881 4594 1212 4672 
Q 1544 4750 1819 4750 
Q 2544 4750 2975 4387 
Q 3406 4025 3406 3419 
Q 3406 3131 3298 2873 
Q 3191 2616 2906 2266 
Q 2828 2175 2409 1742 
Q 1991 1309 1228 531 
z
" transform="scale(0.015625)"/>
       </defs>
       <use xlink:href="#DejaVuSans-32"/>
       <use xlink:href="#DejaVuSans-30" x="63.623047"/>
      </g>
     </g>
    </g>
    <g id="xtick_4">
     <g id="line2d_4">
      <g>
       <use xlink:href="#m702d5d1cd7" x="503.672727" y="504" style="fill: #262626; stroke: #262626; stroke-width: 2.5"/>
      </g>
     </g>
     <g id="text_4">
      <!-- 30 -->
      <g style="fill: #262626" transform="translate(489.675227 536.216563)scale(0.22 -0.22)">
       <defs>
        <path id="DejaVuSans-33" d="M 2597 2516 
Q 3050 2419 3304 2112 
Q 3559 1806 3559 1356 
Q 3559 666 3084 287 
Q 2609 -91 1734 -91 
Q 1441 -91 1130 -33 
Q 819 25 488 141 
L 488 750 
Q 750 597 1062 519 
Q 1375 441 1716 441 
Q 2309 441 2620 675 
Q 2931 909 2931 1356 
Q 2931 1769 2642 2001 
Q 2353 2234 1838 2234 
L 1294 2234 
L 1294 2753 
L 1863 2753 
Q 2328 2753 2575 2939 
Q 2822 3125 2822 3475 
Q 2822 3834 2567 4026 
Q 2313 4219 1838 4219 
Q 1578 4219 1281 4162 
Q 984 4106 628 3988 
L 628 4550 
Q 988 4650 1302 4700 
Q 1616 4750 1894 4750 
Q 2613 4750 3031 4423 
Q 3450 4097 3450 3541 
Q 3450 3153 3228 2886 
Q 3006 2619 2597 2516 
z
" transform="scale(0.015625)"/>
       </defs>
       <use xlink:href="#DejaVuSans-33"/>
       <use xlink:href="#DejaVuSans-30" x="63.623047"/>
      </g>
     </g>
    </g>
    <g id="xtick_5">
     <g id="line2d_5">
      <g>
       <use xlink:href="#m702d5d1cd7" x="625.418182" y="504" style="fill: #262626; stroke: #262626; stroke-width: 2.5"/>
      </g>
     </g>
     <g id="text_5">
      <!-- 40 -->
      <g style="fill: #262626" transform="translate(611.420682 536.216563)scale(0.22 -0.22)">
       <defs>
        <path id="DejaVuSans-34" d="M 2419 4116 
L 825 1625 
L 2419 1625 
L 2419 4116 
z
M 2253 4666 
L 3047 4666 
L 3047 1625 
L 3713 1625 
L 3713 1100 
L 3047 1100 
L 3047 0 
L 2419 0 
L 2419 1100 
L 313 1100 
L 313 1709 
L 2253 4666 
z
" transform="scale(0.015625)"/>
       </defs>
       <use xlink:href="#DejaVuSans-34"/>
       <use xlink:href="#DejaVuSans-30" x="63.623047"/>
      </g>
     </g>
    </g>
    <g id="xtick_6">
     <g id="line2d_6">
      <g>
       <use xlink:href="#m702d5d1cd7" x="747.163636" y="504" style="fill: #262626; stroke: #262626; stroke-width: 2.5"/>
      </g>
     </g>
     <g id="text_6">
      <!-- 50 -->
      <g style="fill: #262626" transform="translate(733.166136 536.216563)scale(0.22 -0.22)">
       <defs>
        <path id="DejaVuSans-35" d="M 691 4666 
L 3169 4666 
L 3169 4134 
L 1269 4134 
L 1269 2991 
Q 1406 3038 1543 3061 
Q 1681 3084 1819 3084 
Q 2600 3084 3056 2656 
Q 3513 2228 3513 1497 
Q 3513 744 3044 326 
Q 2575 -91 1722 -91 
Q 1428 -91 1123 -41 
Q 819 9 494 109 
L 494 744 
Q 775 591 1075 516 
Q 1375 441 1709 441 
Q 2250 441 2565 725 
Q 2881 1009 2881 1497 
Q 2881 1984 2565 2268 
Q 2250 2553 1709 2553 
Q 1456 2553 1204 2497 
Q 953 2441 691 2322 
L 691 4666 
z
" transform="scale(0.015625)"/>
       </defs>
       <use xlink:href="#DejaVuSans-35"/>
       <use xlink:href="#DejaVuSans-30" x="63.623047"/>
      </g>
     </g>
    </g>
    <g id="text_7">
     <!-- steps -->
     <g style="fill: #262626" transform="translate(410.59125 563.028125)scale(0.24 -0.24)">
      <defs>
       <path id="DejaVuSans-73" d="M 2834 3397 
L 2834 2853 
Q 2591 2978 2328 3040 
Q 2066 3103 1784 3103 
Q 1356 3103 1142 2972 
Q 928 2841 928 2578 
Q 928 2378 1081 2264 
Q 1234 2150 1697 2047 
L 1894 2003 
Q 2506 1872 2764 1633 
Q 3022 1394 3022 966 
Q 3022 478 2636 193 
Q 2250 -91 1575 -91 
Q 1294 -91 989 -36 
Q 684 19 347 128 
L 347 722 
Q 666 556 975 473 
Q 1284 391 1588 391 
Q 1994 391 2212 530 
Q 2431 669 2431 922 
Q 2431 1156 2273 1281 
Q 2116 1406 1581 1522 
L 1381 1569 
Q 847 1681 609 1914 
Q 372 2147 372 2553 
Q 372 3047 722 3315 
Q 1072 3584 1716 3584 
Q 2034 3584 2315 3537 
Q 2597 3491 2834 3397 
z
" transform="scale(0.015625)"/>
       <path id="DejaVuSans-74" d="M 1172 4494 
L 1172 3500 
L 2356 3500 
L 2356 3053 
L 1172 3053 
L 1172 1153 
Q 1172 725 1289 603 
Q 1406 481 1766 481 
L 2356 481 
L 2356 0 
L 1766 0 
Q 1100 0 847 248 
Q 594 497 594 1153 
L 594 3053 
L 172 3053 
L 172 3500 
L 594 3500 
L 594 4494 
L 1172 4494 
z
" transform="scale(0.015625)"/>
       <path id="DejaVuSans-65" d="M 3597 1894 
L 3597 1613 
L 953 1613 
Q 991 1019 1311 708 
Q 1631 397 2203 397 
Q 2534 397 2845 478 
Q 3156 559 3463 722 
L 3463 178 
Q 3153 47 2828 -22 
Q 2503 -91 2169 -91 
Q 1331 -91 842 396 
Q 353 884 353 1716 
Q 353 2575 817 3079 
Q 1281 3584 2069 3584 
Q 2775 3584 3186 3129 
Q 3597 2675 3597 1894 
z
M 3022 2063 
Q 3016 2534 2758 2815 
Q 2500 3097 2075 3097 
Q 1594 3097 1305 2825 
Q 1016 2553 972 2059 
L 3022 2063 
z
" transform="scale(0.015625)"/>
       <path id="DejaVuSans-70" d="M 1159 525 
L 1159 -1331 
L 581 -1331 
L 581 3500 
L 1159 3500 
L 1159 2969 
Q 1341 3281 1617 3432 
Q 1894 3584 2278 3584 
Q 2916 3584 3314 3078 
Q 3713 2572 3713 1747 
Q 3713 922 3314 415 
Q 2916 -91 2278 -91 
Q 1894 -91 1617 61 
Q 1341 213 1159 525 
z
M 3116 1747 
Q 3116 2381 2855 2742 
Q 2594 3103 2138 3103 
Q 1681 3103 1420 2742 
Q 1159 2381 1159 1747 
Q 1159 1113 1420 752 
Q 1681 391 2138 391 
Q 2594 391 2855 752 
Q 3116 1113 3116 1747 
z
" transform="scale(0.015625)"/>
      </defs>
      <use xlink:href="#DejaVuSans-73"/>
      <use xlink:href="#DejaVuSans-74" x="52.099609"/>
      <use xlink:href="#DejaVuSans-65" x="91.308594"/>
      <use xlink:href="#DejaVuSans-70" x="152.832031"/>
      <use xlink:href="#DejaVuSans-73" x="216.308594"/>
     </g>
    </g>
   </g>
   <g id="matplotlib.axis_2">
    <g id="ytick_1">
     <g id="line2d_7">
      <defs>
       <path id="m5934302b19" d="M 0 0 
L -12 0 
" style="stroke: #262626; stroke-width: 2.5"/>
      </defs>
      <g>
       <use xlink:href="#m5934302b19" x="108" y="484.232734" style="fill: #262626; stroke: #262626; stroke-width: 2.5"/>
      </g>
     </g>
     <g id="text_8">
      <!-- 0.000 -->
      <g style="fill: #262626" transform="translate(29.518125 492.591016)scale(0.22 -0.22)">
       <defs>
        <path id="DejaVuSans-2e" d="M 684 794 
L 1344 794 
L 1344 0 
L 684 0 
L 684 794 
z
" transform="scale(0.015625)"/>
       </defs>
       <use xlink:href="#DejaVuSans-30"/>
       <use xlink:href="#DejaVuSans-2e" x="63.623047"/>
       <use xlink:href="#DejaVuSans-30" x="95.410156"/>
       <use xlink:href="#DejaVuSans-30" x="159.033203"/>
       <use xlink:href="#DejaVuSans-30" x="222.65625"/>
      </g>
     </g>
    </g>
    <g id="ytick_2">
     <g id="line2d_8">
      <g>
       <use xlink:href="#m5934302b19" x="108" y="430.25715" style="fill: #262626; stroke: #262626; stroke-width: 2.5"/>
      </g>
     </g>
     <g id="text_9">
      <!-- 0.025 -->
      <g style="fill: #262626" transform="translate(29.518125 438.615431)scale(0.22 -0.22)">
       <use xlink:href="#DejaVuSans-30"/>
       <use xlink:href="#DejaVuSans-2e" x="63.623047"/>
       <use xlink:href="#DejaVuSans-30" x="95.410156"/>
       <use xlink:href="#DejaVuSans-32" x="159.033203"/>
       <use xlink:href="#DejaVuSans-35" x="222.65625"/>
      </g>
     </g>
    </g>
    <g id="ytick_3">
     <g id="line2d_9">
      <g>
       <use xlink:href="#m5934302b19" x="108" y="376.281565" style="fill: #262626; stroke: #262626; stroke-width: 2.5"/>
      </g>
     </g>
     <g id="text_10">
      <!-- 0.050 -->
      <g style="fill: #262626" transform="translate(29.518125 384.639846)scale(0.22 -0.22)">
       <use xlink:href="#DejaVuSans-30"/>
       <use xlink:href="#DejaVuSans-2e" x="63.623047"/>
       <use xlink:href="#DejaVuSans-30" x="95.410156"/>
       <use xlink:href="#DejaVuSans-35" x="159.033203"/>
       <use xlink:href="#DejaVuSans-30" x="222.65625"/>
      </g>
     </g>
    </g>
    <g id="ytick_4">
     <g id="line2d_10">
      <g>
       <use xlink:href="#m5934302b19" x="108" y="322.30598" style="fill: #262626; stroke: #262626; stroke-width: 2.5"/>
      </g>
     </g>
     <g id="text_11">
      <!-- 0.075 -->
      <g style="fill: #262626" transform="translate(29.518125 330.664262)scale(0.22 -0.22)">
       <defs>
        <path id="DejaVuSans-37" d="M 525 4666 
L 3525 4666 
L 3525 4397 
L 1831 0 
L 1172 0 
L 2766 4134 
L 525 4134 
L 525 4666 
z
" transform="scale(0.015625)"/>
       </defs>
       <use xlink:href="#DejaVuSans-30"/>
       <use xlink:href="#DejaVuSans-2e" x="63.623047"/>
       <use xlink:href="#DejaVuSans-30" x="95.410156"/>
       <use xlink:href="#DejaVuSans-37" x="159.033203"/>
       <use xlink:href="#DejaVuSans-35" x="222.65625"/>
      </g>
     </g>
    </g>
    <g id="ytick_5">
     <g id="line2d_11">
      <g>
       <use xlink:href="#m5934302b19" x="108" y="268.330396" style="fill: #262626; stroke: #262626; stroke-width: 2.5"/>
      </g>
     </g>
     <g id="text_12">
      <!-- 0.100 -->
      <g style="fill: #262626" transform="translate(29.518125 276.688677)scale(0.22 -0.22)">
       <use xlink:href="#DejaVuSans-30"/>
       <use xlink:href="#DejaVuSans-2e" x="63.623047"/>
       <use xlink:href="#DejaVuSans-31" x="95.410156"/>
       <use xlink:href="#DejaVuSans-30" x="159.033203"/>
       <use xlink:href="#DejaVuSans-30" x="222.65625"/>
      </g>
     </g>
    </g>
    <g id="ytick_6">
     <g id="line2d_12">
      <g>
       <use xlink:href="#m5934302b19" x="108" y="214.354811" style="fill: #262626; stroke: #262626; stroke-width: 2.5"/>
      </g>
     </g>
     <g id="text_13">
      <!-- 0.125 -->
      <g style="fill: #262626" transform="translate(29.518125 222.713092)scale(0.22 -0.22)">
       <use xlink:href="#DejaVuSans-30"/>
       <use xlink:href="#DejaVuSans-2e" x="63.623047"/>
       <use xlink:href="#DejaVuSans-31" x="95.410156"/>
       <use xlink:href="#DejaVuSans-32" x="159.033203"/>
       <use xlink:href="#DejaVuSans-35" x="222.65625"/>
      </g>
     </g>
    </g>
    <g id="ytick_7">
     <g id="line2d_13">
      <g>
       <use xlink:href="#m5934302b19" x="108" y="160.379226" style="fill: #262626; stroke: #262626; stroke-width: 2.5"/>
      </g>
     </g>
     <g id="text_14">
      <!-- 0.150 -->
      <g style="fill: #262626" transform="translate(29.518125 168.737507)scale(0.22 -0.22)">
       <use xlink:href="#DejaVuSans-30"/>
       <use xlink:href="#DejaVuSans-2e" x="63.623047"/>
       <use xlink:href="#DejaVuSans-31" x="95.410156"/>
       <use xlink:href="#DejaVuSans-35" x="159.033203"/>
       <use xlink:href="#DejaVuSans-30" x="222.65625"/>
      </g>
     </g>
    </g>
    <g id="ytick_8">
     <g id="line2d_14">
      <g>
       <use xlink:href="#m5934302b19" x="108" y="106.403641" style="fill: #262626; stroke: #262626; stroke-width: 2.5"/>
      </g>
     </g>
     <g id="text_15">
      <!-- 0.175 -->
      <g style="fill: #262626" transform="translate(29.518125 114.761923)scale(0.22 -0.22)">
       <use xlink:href="#DejaVuSans-30"/>
       <use xlink:href="#DejaVuSans-2e" x="63.623047"/>
       <use xlink:href="#DejaVuSans-31" x="95.410156"/>
       <use xlink:href="#DejaVuSans-37" x="159.033203"/>
       <use xlink:href="#DejaVuSans-35" x="222.65625"/>
      </g>
     </g>
    </g>
    <g id="text_16">
     <!-- probability of success -->
     <g style="fill: #262626" transform="translate(20.526875 416.715)rotate(-90)scale(0.24 -0.24)">
      <defs>
       <path id="DejaVuSans-72" d="M 2631 2963 
Q 2534 3019 2420 3045 
Q 2306 3072 2169 3072 
Q 1681 3072 1420 2755 
Q 1159 2438 1159 1844 
L 1159 0 
L 581 0 
L 581 3500 
L 1159 3500 
L 1159 2956 
Q 1341 3275 1631 3429 
Q 1922 3584 2338 3584 
Q 2397 3584 2469 3576 
Q 2541 3569 2628 3553 
L 2631 2963 
z
" transform="scale(0.015625)"/>
       <path id="DejaVuSans-6f" d="M 1959 3097 
Q 1497 3097 1228 2736 
Q 959 2375 959 1747 
Q 959 1119 1226 758 
Q 1494 397 1959 397 
Q 2419 397 2687 759 
Q 2956 1122 2956 1747 
Q 2956 2369 2687 2733 
Q 2419 3097 1959 3097 
z
M 1959 3584 
Q 2709 3584 3137 3096 
Q 3566 2609 3566 1747 
Q 3566 888 3137 398 
Q 2709 -91 1959 -91 
Q 1206 -91 779 398 
Q 353 888 353 1747 
Q 353 2609 779 3096 
Q 1206 3584 1959 3584 
z
" transform="scale(0.015625)"/>
       <path id="DejaVuSans-62" d="M 3116 1747 
Q 3116 2381 2855 2742 
Q 2594 3103 2138 3103 
Q 1681 3103 1420 2742 
Q 1159 2381 1159 1747 
Q 1159 1113 1420 752 
Q 1681 391 2138 391 
Q 2594 391 2855 752 
Q 3116 1113 3116 1747 
z
M 1159 2969 
Q 1341 3281 1617 3432 
Q 1894 3584 2278 3584 
Q 2916 3584 3314 3078 
Q 3713 2572 3713 1747 
Q 3713 922 3314 415 
Q 2916 -91 2278 -91 
Q 1894 -91 1617 61 
Q 1341 213 1159 525 
L 1159 0 
L 581 0 
L 581 4863 
L 1159 4863 
L 1159 2969 
z
" transform="scale(0.015625)"/>
       <path id="DejaVuSans-61" d="M 2194 1759 
Q 1497 1759 1228 1600 
Q 959 1441 959 1056 
Q 959 750 1161 570 
Q 1363 391 1709 391 
Q 2188 391 2477 730 
Q 2766 1069 2766 1631 
L 2766 1759 
L 2194 1759 
z
M 3341 1997 
L 3341 0 
L 2766 0 
L 2766 531 
Q 2569 213 2275 61 
Q 1981 -91 1556 -91 
Q 1019 -91 701 211 
Q 384 513 384 1019 
Q 384 1609 779 1909 
Q 1175 2209 1959 2209 
L 2766 2209 
L 2766 2266 
Q 2766 2663 2505 2880 
Q 2244 3097 1772 3097 
Q 1472 3097 1187 3025 
Q 903 2953 641 2809 
L 641 3341 
Q 956 3463 1253 3523 
Q 1550 3584 1831 3584 
Q 2591 3584 2966 3190 
Q 3341 2797 3341 1997 
z
" transform="scale(0.015625)"/>
       <path id="DejaVuSans-69" d="M 603 3500 
L 1178 3500 
L 1178 0 
L 603 0 
L 603 3500 
z
M 603 4863 
L 1178 4863 
L 1178 4134 
L 603 4134 
L 603 4863 
z
" transform="scale(0.015625)"/>
       <path id="DejaVuSans-6c" d="M 603 4863 
L 1178 4863 
L 1178 0 
L 603 0 
L 603 4863 
z
" transform="scale(0.015625)"/>
       <path id="DejaVuSans-79" d="M 2059 -325 
Q 1816 -950 1584 -1140 
Q 1353 -1331 966 -1331 
L 506 -1331 
L 506 -850 
L 844 -850 
Q 1081 -850 1212 -737 
Q 1344 -625 1503 -206 
L 1606 56 
L 191 3500 
L 800 3500 
L 1894 763 
L 2988 3500 
L 3597 3500 
L 2059 -325 
z
" transform="scale(0.015625)"/>
       <path id="DejaVuSans-20" transform="scale(0.015625)"/>
       <path id="DejaVuSans-66" d="M 2375 4863 
L 2375 4384 
L 1825 4384 
Q 1516 4384 1395 4259 
Q 1275 4134 1275 3809 
L 1275 3500 
L 2222 3500 
L 2222 3053 
L 1275 3053 
L 1275 0 
L 697 0 
L 697 3053 
L 147 3053 
L 147 3500 
L 697 3500 
L 697 3744 
Q 697 4328 969 4595 
Q 1241 4863 1831 4863 
L 2375 4863 
z
" transform="scale(0.015625)"/>
       <path id="DejaVuSans-75" d="M 544 1381 
L 544 3500 
L 1119 3500 
L 1119 1403 
Q 1119 906 1312 657 
Q 1506 409 1894 409 
Q 2359 409 2629 706 
Q 2900 1003 2900 1516 
L 2900 3500 
L 3475 3500 
L 3475 0 
L 2900 0 
L 2900 538 
Q 2691 219 2414 64 
Q 2138 -91 1772 -91 
Q 1169 -91 856 284 
Q 544 659 544 1381 
z
M 1991 3584 
L 1991 3584 
z
" transform="scale(0.015625)"/>
       <path id="DejaVuSans-63" d="M 3122 3366 
L 3122 2828 
Q 2878 2963 2633 3030 
Q 2388 3097 2138 3097 
Q 1578 3097 1268 2742 
Q 959 2388 959 1747 
Q 959 1106 1268 751 
Q 1578 397 2138 397 
Q 2388 397 2633 464 
Q 2878 531 3122 666 
L 3122 134 
Q 2881 22 2623 -34 
Q 2366 -91 2075 -91 
Q 1284 -91 818 406 
Q 353 903 353 1747 
Q 353 2603 823 3093 
Q 1294 3584 2113 3584 
Q 2378 3584 2631 3529 
Q 2884 3475 3122 3366 
z
" transform="scale(0.015625)"/>
      </defs>
      <use xlink:href="#DejaVuSans-70"/>
      <use xlink:href="#DejaVuSans-72" x="63.476562"/>
      <use xlink:href="#DejaVuSans-6f" x="102.339844"/>
      <use xlink:href="#DejaVuSans-62" x="163.521484"/>
      <use xlink:href="#DejaVuSans-61" x="226.998047"/>
      <use xlink:href="#DejaVuSans-62" x="288.277344"/>
      <use xlink:href="#DejaVuSans-69" x="351.753906"/>
      <use xlink:href="#DejaVuSans-6c" x="379.537109"/>
      <use xlink:href="#DejaVuSans-69" x="407.320312"/>
      <use xlink:href="#DejaVuSans-74" x="435.103516"/>
      <use xlink:href="#DejaVuSans-79" x="474.3125"/>
      <use xlink:href="#DejaVuSans-20" x="533.492188"/>
      <use xlink:href="#DejaVuSans-6f" x="565.279297"/>
      <use xlink:href="#DejaVuSans-66" x="626.460938"/>
      <use xlink:href="#DejaVuSans-20" x="661.666016"/>
      <use xlink:href="#DejaVuSans-73" x="693.453125"/>
      <use xlink:href="#DejaVuSans-75" x="745.552734"/>
      <use xlink:href="#DejaVuSans-63" x="808.931641"/>
      <use xlink:href="#DejaVuSans-63" x="863.912109"/>
      <use xlink:href="#DejaVuSans-65" x="918.892578"/>
      <use xlink:href="#DejaVuSans-73" x="980.416016"/>
      <use xlink:href="#DejaVuSans-73" x="1032.515625"/>
     </g>
    </g>
   </g>
   <g id="line2d_15">
    <path d="M 138.436364 416.763254 
L 150.610909 416.763254 
L 162.785455 264.956922 
L 174.96 264.956922 
L 187.134545 159.535858 
L 199.309091 159.535858 
L 211.483636 145.831119 
L 223.658182 145.831119 
L 235.832727 269.437317 
L 248.007273 269.437317 
L 260.181818 198.739316 
L 272.356364 198.739316 
L 284.530909 88.887273 
L 296.705455 88.887273 
L 308.88 234.759552 
L 321.054545 234.759552 
L 333.229091 424.895294 
L 345.403636 424.895294 
L 357.578182 466.503413 
L 369.752727 466.503413 
L 381.927273 287.12771 
L 394.101818 287.12771 
L 406.276364 134.836595 
L 418.450909 134.836595 
L 430.625455 157.521439 
L 442.8 157.521439 
L 454.974545 230.820075 
L 467.149091 230.820075 
L 479.323636 214.371074 
L 491.498182 214.371074 
L 503.672727 167.648439 
L 515.847273 167.648439 
L 528.021818 132.699648 
L 540.196364 132.699648 
L 552.370909 423.165261 
L 564.545455 423.165261 
L 576.72 464.607348 
L 588.894545 464.607348 
L 601.069091 339.011378 
L 613.243636 339.011378 
L 625.418182 100.129414 
L 637.592727 100.129414 
L 649.767273 150.400702 
L 661.941818 150.400702 
L 674.116364 256.568394 
L 686.290909 256.568394 
L 698.465455 230.45466 
L 710.64 230.45466 
L 722.814545 171.394892 
L 734.989091 171.394892 
L 747.163636 156.996757 
" clip-path="url(#p665ee53638)" style="fill: none; stroke-dasharray: 11.1,4.8; stroke-dashoffset: 0; stroke: #4c72b0; stroke-width: 3"/>
    <defs>
     <path id="ma8f4f81017" d="M 0 6 
C 1.591219 6 3.117479 5.367802 4.242641 4.242641 
C 5.367802 3.117479 6 1.591219 6 0 
C 6 -1.591219 5.367802 -3.117479 4.242641 -4.242641 
C 3.117479 -5.367802 1.591219 -6 0 -6 
C -1.591219 -6 -3.117479 -5.367802 -4.242641 -4.242641 
C -5.367802 -3.117479 -6 -1.591219 -6 0 
C -6 1.591219 -5.367802 3.117479 -4.242641 4.242641 
C -3.117479 5.367802 -1.591219 6 0 6 
z
" style="stroke: #4c72b0"/>
    </defs>
    <g clip-path="url(#p665ee53638)">
     <use xlink:href="#ma8f4f81017" x="138.436364" y="416.763254" style="fill: #4c72b0; stroke: #4c72b0"/>
     <use xlink:href="#ma8f4f81017" x="150.610909" y="416.763254" style="fill: #4c72b0; stroke: #4c72b0"/>
     <use xlink:href="#ma8f4f81017" x="162.785455" y="264.956922" style="fill: #4c72b0; stroke: #4c72b0"/>
     <use xlink:href="#ma8f4f81017" x="174.96" y="264.956922" style="fill: #4c72b0; stroke: #4c72b0"/>
     <use xlink:href="#ma8f4f81017" x="187.134545" y="159.535858" style="fill: #4c72b0; stroke: #4c72b0"/>
     <use xlink:href="#ma8f4f81017" x="199.309091" y="159.535858" style="fill: #4c72b0; stroke: #4c72b0"/>
     <use xlink:href="#ma8f4f81017" x="211.483636" y="145.831119" style="fill: #4c72b0; stroke: #4c72b0"/>
     <use xlink:href="#ma8f4f81017" x="223.658182" y="145.831119" style="fill: #4c72b0; stroke: #4c72b0"/>
     <use xlink:href="#ma8f4f81017" x="235.832727" y="269.437317" style="fill: #4c72b0; stroke: #4c72b0"/>
     <use xlink:href="#ma8f4f81017" x="248.007273" y="269.437317" style="fill: #4c72b0; stroke: #4c72b0"/>
     <use xlink:href="#ma8f4f81017" x="260.181818" y="198.739316" style="fill: #4c72b0; stroke: #4c72b0"/>
     <use xlink:href="#ma8f4f81017" x="272.356364" y="198.739316" style="fill: #4c72b0; stroke: #4c72b0"/>
     <use xlink:href="#ma8f4f81017" x="284.530909" y="88.887273" style="fill: #4c72b0; stroke: #4c72b0"/>
     <use xlink:href="#ma8f4f81017" x="296.705455" y="88.887273" style="fill: #4c72b0; stroke: #4c72b0"/>
     <use xlink:href="#ma8f4f81017" x="308.88" y="234.759552" style="fill: #4c72b0; stroke: #4c72b0"/>
     <use xlink:href="#ma8f4f81017" x="321.054545" y="234.759552" style="fill: #4c72b0; stroke: #4c72b0"/>
     <use xlink:href="#ma8f4f81017" x="333.229091" y="424.895294" style="fill: #4c72b0; stroke: #4c72b0"/>
     <use xlink:href="#ma8f4f81017" x="345.403636" y="424.895294" style="fill: #4c72b0; stroke: #4c72b0"/>
     <use xlink:href="#ma8f4f81017" x="357.578182" y="466.503413" style="fill: #4c72b0; stroke: #4c72b0"/>
     <use xlink:href="#ma8f4f81017" x="369.752727" y="466.503413" style="fill: #4c72b0; stroke: #4c72b0"/>
     <use xlink:href="#ma8f4f81017" x="381.927273" y="287.12771" style="fill: #4c72b0; stroke: #4c72b0"/>
     <use xlink:href="#ma8f4f81017" x="394.101818" y="287.12771" style="fill: #4c72b0; stroke: #4c72b0"/>
     <use xlink:href="#ma8f4f81017" x="406.276364" y="134.836595" style="fill: #4c72b0; stroke: #4c72b0"/>
     <use xlink:href="#ma8f4f81017" x="418.450909" y="134.836595" style="fill: #4c72b0; stroke: #4c72b0"/>
     <use xlink:href="#ma8f4f81017" x="430.625455" y="157.521439" style="fill: #4c72b0; stroke: #4c72b0"/>
     <use xlink:href="#ma8f4f81017" x="442.8" y="157.521439" style="fill: #4c72b0; stroke: #4c72b0"/>
     <use xlink:href="#ma8f4f81017" x="454.974545" y="230.820075" style="fill: #4c72b0; stroke: #4c72b0"/>
     <use xlink:href="#ma8f4f81017" x="467.149091" y="230.820075" style="fill: #4c72b0; stroke: #4c72b0"/>
     <use xlink:href="#ma8f4f81017" x="479.323636" y="214.371074" style="fill: #4c72b0; stroke: #4c72b0"/>
     <use xlink:href="#ma8f4f81017" x="491.498182" y="214.371074" style="fill: #4c72b0; stroke: #4c72b0"/>
     <use xlink:href="#ma8f4f81017" x="503.672727" y="167.648439" style="fill: #4c72b0; stroke: #4c72b0"/>
     <use xlink:href="#ma8f4f81017" x="515.847273" y="167.648439" style="fill: #4c72b0; stroke: #4c72b0"/>
     <use xlink:href="#ma8f4f81017" x="528.021818" y="132.699648" style="fill: #4c72b0; stroke: #4c72b0"/>
     <use xlink:href="#ma8f4f81017" x="540.196364" y="132.699648" style="fill: #4c72b0; stroke: #4c72b0"/>
     <use xlink:href="#ma8f4f81017" x="552.370909" y="423.165261" style="fill: #4c72b0; stroke: #4c72b0"/>
     <use xlink:href="#ma8f4f81017" x="564.545455" y="423.165261" style="fill: #4c72b0; stroke: #4c72b0"/>
     <use xlink:href="#ma8f4f81017" x="576.72" y="464.607348" style="fill: #4c72b0; stroke: #4c72b0"/>
     <use xlink:href="#ma8f4f81017" x="588.894545" y="464.607348" style="fill: #4c72b0; stroke: #4c72b0"/>
     <use xlink:href="#ma8f4f81017" x="601.069091" y="339.011378" style="fill: #4c72b0; stroke: #4c72b0"/>
     <use xlink:href="#ma8f4f81017" x="613.243636" y="339.011378" style="fill: #4c72b0; stroke: #4c72b0"/>
     <use xlink:href="#ma8f4f81017" x="625.418182" y="100.129414" style="fill: #4c72b0; stroke: #4c72b0"/>
     <use xlink:href="#ma8f4f81017" x="637.592727" y="100.129414" style="fill: #4c72b0; stroke: #4c72b0"/>
     <use xlink:href="#ma8f4f81017" x="649.767273" y="150.400702" style="fill: #4c72b0; stroke: #4c72b0"/>
     <use xlink:href="#ma8f4f81017" x="661.941818" y="150.400702" style="fill: #4c72b0; stroke: #4c72b0"/>
     <use xlink:href="#ma8f4f81017" x="674.116364" y="256.568394" style="fill: #4c72b0; stroke: #4c72b0"/>
     <use xlink:href="#ma8f4f81017" x="686.290909" y="256.568394" style="fill: #4c72b0; stroke: #4c72b0"/>
     <use xlink:href="#ma8f4f81017" x="698.465455" y="230.45466" style="fill: #4c72b0; stroke: #4c72b0"/>
     <use xlink:href="#ma8f4f81017" x="710.64" y="230.45466" style="fill: #4c72b0; stroke: #4c72b0"/>
     <use xlink:href="#ma8f4f81017" x="722.814545" y="171.394892" style="fill: #4c72b0; stroke: #4c72b0"/>
     <use xlink:href="#ma8f4f81017" x="734.989091" y="171.394892" style="fill: #4c72b0; stroke: #4c72b0"/>
     <use xlink:href="#ma8f4f81017" x="747.163636" y="156.996757" style="fill: #4c72b0; stroke: #4c72b0"/>
    </g>
   </g>
   <g id="line2d_16">
    <path d="M 138.436364 466.075839 
L 143.311057 462.865721 
L 148.795086 458.96699 
L 154.279115 454.772489 
L 159.763145 450.291667 
L 165.247174 445.534624 
L 171.340541 439.938117 
L 177.433907 434.029413 
L 183.527273 427.824951 
L 190.229975 420.679068 
L 196.932678 413.220273 
L 204.244717 404.756059 
L 212.166093 395.239354 
L 220.696806 384.636943 
L 230.446192 372.143402 
L 241.414251 357.714639 
L 256.038329 338.078758 
L 288.33317 294.580834 
L 299.910565 279.441503 
L 309.659951 267.062348 
L 318.190663 256.581883 
L 326.112039 247.196075 
L 333.424079 238.867242 
L 340.126781 231.544344 
L 346.829484 224.545173 
L 352.92285 218.483056 
L 359.016216 212.724831 
L 365.109582 207.286517 
L 370.593612 202.678082 
L 376.077641 198.351428 
L 381.561671 194.316304 
L 387.0457 190.581803 
L 391.920393 187.521441 
L 396.795086 184.710718 
L 401.669779 182.154637 
L 406.544472 179.857751 
L 411.419165 177.82415 
L 416.293857 176.057453 
L 420.559214 174.733025 
L 424.82457 173.617167 
L 429.089926 172.711402 
L 433.355283 172.016964 
L 437.620639 171.534799 
L 441.885995 171.265565 
L 446.151351 171.20963 
L 450.416708 171.367069 
L 454.682064 171.737668 
L 458.94742 172.320922 
L 463.212776 173.116035 
L 467.478133 174.121923 
L 471.743489 175.337216 
L 476.008845 176.760255 
L 480.883538 178.638468 
L 485.758231 180.782137 
L 490.632924 183.187445 
L 495.507617 185.850108 
L 500.38231 188.765385 
L 505.257002 191.928085 
L 510.131695 195.332577 
L 515.615725 199.444082 
L 521.099754 203.844655 
L 526.583784 208.52438 
L 532.67715 214.038626 
L 538.770516 219.869129 
L 544.863882 225.999667 
L 551.566585 233.069422 
L 558.269287 240.45777 
L 565.581327 248.851889 
L 573.502703 258.300932 
L 582.033415 268.840451 
L 591.173464 280.487419 
L 602.141523 294.847365 
L 615.546929 312.78732 
L 655.153808 366.036795 
L 665.512531 379.473098 
L 674.65258 390.986696 
L 683.183292 401.376928 
L 691.104668 410.666622 
L 698.416708 418.896601 
L 705.11941 426.120681 
L 711.822113 433.013534 
L 717.915479 438.972788 
L 724.008845 444.622532 
L 730.102211 449.947047 
L 735.586241 454.44878 
L 741.07027 458.664922 
L 746.5543 462.585974 
L 747.163636 463.00304 
L 747.163636 463.00304 
" clip-path="url(#p665ee53638)" style="fill: none; stroke: #dd8452; stroke-width: 3; stroke-linecap: round"/>
   </g>
   <g id="line2d_17">
    <path d="M 138.436364 462.23849 
L 140.87371 455.954897 
L 143.311057 448.953718 
L 145.748403 441.266358 
L 148.185749 432.927304 
L 151.232432 421.644297 
L 154.279115 409.480743 
L 157.935135 393.842574 
L 161.591155 377.217229 
L 165.856511 356.797559 
L 171.340541 329.357813 
L 181.699263 275.979761 
L 188.401966 242.031793 
L 193.276658 218.425839 
L 197.542015 198.89725 
L 201.198034 183.20968 
L 204.244717 170.999526 
L 207.2914 159.665329 
L 210.338084 149.286517 
L 212.77543 141.72046 
L 215.212776 134.846481 
L 217.650123 128.695415 
L 219.478133 124.573252 
L 221.306143 120.883723 
L 223.134152 117.636138 
L 224.962162 114.838693 
L 226.790172 112.49845 
L 228.618182 110.621315 
L 229.836855 109.629561 
L 231.055528 108.846875 
L 232.274201 108.274135 
L 233.492875 107.911984 
L 234.711548 107.760827 
L 235.930221 107.820835 
L 237.148894 108.09194 
L 238.367568 108.573838 
L 239.586241 109.265988 
L 240.804914 110.167613 
L 242.023587 111.277703 
L 243.851597 113.330922 
L 245.679607 115.845146 
L 247.507617 118.814032 
L 249.335627 122.230085 
L 251.163636 126.084686 
L 252.991646 130.368105 
L 255.428993 136.727543 
L 257.866339 143.801457 
L 260.303686 151.558112 
L 262.741032 159.962712 
L 265.787715 171.321932 
L 268.834398 183.554849 
L 272.490418 199.266528 
L 276.146437 215.95408 
L 280.411794 236.431206 
L 285.895823 263.919727 
L 306.003931 366.067682 
L 310.269287 386.021559 
L 313.925307 402.151166 
L 317.581327 417.209773 
L 320.62801 428.830521 
L 323.674693 439.520361 
L 326.112039 447.351404 
L 328.549386 454.503455 
L 330.986732 460.94443 
L 333.424079 466.645434 
L 335.252088 470.420069 
L 337.080098 473.754487 
L 338.908108 476.640274 
L 340.736118 479.070145 
L 342.564128 481.03797 
L 343.782801 482.090659 
L 345.001474 482.934581 
L 346.220147 483.56879 
L 347.438821 483.992574 
L 348.657494 484.205457 
L 349.876167 484.207201 
L 351.09484 483.997804 
L 352.313514 483.5775 
L 353.532187 482.946762 
L 354.75086 482.106297 
L 355.969533 481.057047 
L 357.797543 479.09434 
L 359.625553 476.669524 
L 361.453563 473.78872 
L 363.281572 470.459198 
L 365.109582 466.689361 
L 366.937592 462.488724 
L 369.374939 456.236216 
L 371.812285 449.264859 
L 374.249631 441.605927 
L 376.686978 433.293776 
L 379.733661 422.042074 
L 382.780344 409.907036 
L 386.436364 394.299127 
L 390.092383 377.699437 
L 394.35774 357.303533 
L 399.841769 329.884102 
L 410.200491 276.511701 
L 416.903194 242.544453 
L 421.777887 218.913519 
L 426.043243 199.355883 
L 429.699263 183.638386 
L 432.745946 171.399976 
L 435.792629 160.034715 
L 438.839312 149.622252 
L 441.276658 142.027568 
L 443.714005 135.123584 
L 446.151351 128.94127 
L 447.979361 124.794939 
L 449.807371 121.080682 
L 451.635381 117.807873 
L 453.463391 114.984771 
L 455.2914 112.618502 
L 457.11941 110.715037 
L 458.338084 109.705595 
L 459.556757 108.905135 
L 460.77543 108.314556 
L 461.994103 107.934521 
L 463.212776 107.765454 
L 464.43145 107.807547 
L 465.650123 108.060752 
L 466.868796 108.524785 
L 468.087469 109.199125 
L 469.306143 110.083016 
L 470.524816 111.175466 
L 472.352826 113.202445 
L 474.180835 115.690755 
L 476.008845 118.634115 
L 477.836855 122.025098 
L 479.664865 125.855145 
L 481.492875 130.11459 
L 483.930221 136.443068 
L 486.367568 143.487298 
L 488.804914 151.215678 
L 491.24226 159.593539 
L 494.288943 170.921678 
L 497.335627 183.126319 
L 500.991646 198.808048 
L 504.647666 215.470274 
L 508.913022 235.924039 
L 514.397052 263.392786 
L 534.50516 365.570951 
L 538.770516 385.551444 
L 542.426536 401.709018 
L 546.082555 416.800053 
L 549.129238 428.450998 
L 552.175921 439.173693 
L 554.613268 447.032782 
L 557.050614 454.214308 
L 559.487961 460.686055 
L 561.925307 466.41899 
L 563.753317 470.218247 
L 565.581327 473.577798 
L 567.409337 476.489163 
L 569.237346 478.944994 
L 571.065356 480.939094 
L 572.284029 482.009443 
L 573.502703 482.871116 
L 574.721376 483.523147 
L 575.940049 483.964804 
L 577.158722 484.195592 
L 578.377396 484.215251 
L 579.596069 484.02376 
L 580.814742 483.621334 
L 582.033415 483.008424 
L 583.252088 482.185717 
L 584.470762 481.154137 
L 586.298771 479.217725 
L 588.126781 476.818892 
L 589.954791 473.963694 
L 591.782801 470.659337 
L 593.610811 466.914159 
L 595.438821 462.737613 
L 597.876167 456.516241 
L 600.313514 449.574763 
L 602.75086 441.94432 
L 605.188206 433.65914 
L 608.234889 422.438833 
L 611.281572 410.332409 
L 614.937592 394.754887 
L 618.593612 378.180985 
L 622.858968 357.809012 
L 628.342998 330.410117 
L 638.092383 280.182833 
L 645.404423 243.057544 
L 650.279115 219.401822 
L 654.544472 199.815296 
L 658.200491 184.068 
L 661.247174 171.801431 
L 664.293857 160.4052 
L 667.340541 149.959168 
L 669.777887 142.335919 
L 672.215233 135.401985 
L 674.65258 129.188473 
L 677.089926 123.723256 
L 678.917936 120.130291 
L 680.745946 116.981171 
L 682.573956 114.283846 
L 684.401966 112.045122 
L 686.229975 110.270649 
L 687.448649 109.347845 
L 688.667322 108.634425 
L 689.885995 108.131189 
L 691.104668 107.838702 
L 692.323342 107.757292 
L 693.542015 107.887051 
L 694.760688 108.227832 
L 695.979361 108.779253 
L 697.198034 109.540697 
L 698.416708 110.511308 
L 699.635381 111.689998 
L 701.463391 113.845224 
L 703.2914 116.460159 
L 705.11941 119.528203 
L 706.94742 123.041613 
L 708.77543 126.991521 
L 711.212776 132.919677 
L 713.650123 139.579391 
L 716.087469 146.940786 
L 718.524816 154.970839 
L 721.571499 165.893555 
L 724.618182 177.728009 
L 727.664865 190.391266 
L 731.320885 206.555873 
L 735.586241 226.543054 
L 740.460934 250.536366 
L 747.163636 284.767106 
L 747.163636 284.767106 
" clip-path="url(#p665ee53638)" style="fill: none; stroke: #55a868; stroke-width: 3; stroke-linecap: round"/>
   </g>
   <g id="patch_3">
    <path d="M 108 504 
L 108 69.12 
" style="fill: none; stroke: #262626; stroke-width: 2.5; stroke-linejoin: miter; stroke-linecap: square"/>
   </g>
   <g id="patch_4">
    <path d="M 777.6 504 
L 777.6 69.12 
" style="fill: none; stroke: #262626; stroke-width: 2.5; stroke-linejoin: miter; stroke-linecap: square"/>
   </g>
   <g id="patch_5">
    <path d="M 108 504 
L 777.6 504 
" style="fill: none; stroke: #262626; stroke-width: 2.5; stroke-linejoin: miter; stroke-linecap: square"/>
   </g>
   <g id="patch_6">
    <path d="M 108 69.12 
L 777.6 69.12 
" style="fill: none; stroke: #262626; stroke-width: 2.5; stroke-linejoin: miter; stroke-linecap: square"/>
   </g>
   <g id="legend_1">
    <g id="patch_7">
     <path d="M 123.4 183.595625 
L 415.484375 183.595625 
Q 419.884375 183.595625 419.884375 179.195625 
L 419.884375 84.52 
Q 419.884375 80.12 415.484375 80.12 
L 123.4 80.12 
Q 119 80.12 119 84.52 
L 119 179.195625 
Q 119 183.595625 123.4 183.595625 
z
" style="fill: #ffffff; opacity: 0.8; stroke: #cccccc; stroke-width: 2; stroke-linejoin: miter"/>
    </g>
    <g id="line2d_18">
     <path d="M 127.8 97.936563 
L 149.8 97.936563 
L 171.8 97.936563 
" style="fill: none; stroke-dasharray: 11.1,4.8; stroke-dashoffset: 0; stroke: #4c72b0; stroke-width: 3"/>
     <g>
      <use xlink:href="#ma8f4f81017" x="149.8" y="97.936563" style="fill: #4c72b0; stroke: #4c72b0"/>
     </g>
    </g>
    <g id="text_17">
     <!-- search -->
     <g style="fill: #262626" transform="translate(189.4 105.636563)scale(0.22 -0.22)">
      <defs>
       <path id="DejaVuSans-68" d="M 3513 2113 
L 3513 0 
L 2938 0 
L 2938 2094 
Q 2938 2591 2744 2837 
Q 2550 3084 2163 3084 
Q 1697 3084 1428 2787 
Q 1159 2491 1159 1978 
L 1159 0 
L 581 0 
L 581 4863 
L 1159 4863 
L 1159 2956 
Q 1366 3272 1645 3428 
Q 1925 3584 2291 3584 
Q 2894 3584 3203 3211 
Q 3513 2838 3513 2113 
z
" transform="scale(0.015625)"/>
      </defs>
      <use xlink:href="#DejaVuSans-73"/>
      <use xlink:href="#DejaVuSans-65" x="52.099609"/>
      <use xlink:href="#DejaVuSans-61" x="113.623047"/>
      <use xlink:href="#DejaVuSans-72" x="174.902344"/>
      <use xlink:href="#DejaVuSans-63" x="213.765625"/>
      <use xlink:href="#DejaVuSans-68" x="268.746094"/>
     </g>
    </g>
    <g id="line2d_19">
     <path d="M 127.8 130.228438 
L 149.8 130.228438 
L 171.8 130.228438 
" style="fill: none; stroke: #dd8452; stroke-width: 3; stroke-linecap: round"/>
    </g>
    <g id="text_18">
     <!-- predicted frequency -->
     <g style="fill: #262626" transform="translate(189.4 137.928438)scale(0.22 -0.22)">
      <defs>
       <path id="DejaVuSans-64" d="M 2906 2969 
L 2906 4863 
L 3481 4863 
L 3481 0 
L 2906 0 
L 2906 525 
Q 2725 213 2448 61 
Q 2172 -91 1784 -91 
Q 1150 -91 751 415 
Q 353 922 353 1747 
Q 353 2572 751 3078 
Q 1150 3584 1784 3584 
Q 2172 3584 2448 3432 
Q 2725 3281 2906 2969 
z
M 947 1747 
Q 947 1113 1208 752 
Q 1469 391 1925 391 
Q 2381 391 2643 752 
Q 2906 1113 2906 1747 
Q 2906 2381 2643 2742 
Q 2381 3103 1925 3103 
Q 1469 3103 1208 2742 
Q 947 2381 947 1747 
z
" transform="scale(0.015625)"/>
       <path id="DejaVuSans-71" d="M 947 1747 
Q 947 1113 1208 752 
Q 1469 391 1925 391 
Q 2381 391 2643 752 
Q 2906 1113 2906 1747 
Q 2906 2381 2643 2742 
Q 2381 3103 1925 3103 
Q 1469 3103 1208 2742 
Q 947 2381 947 1747 
z
M 2906 525 
Q 2725 213 2448 61 
Q 2172 -91 1784 -91 
Q 1150 -91 751 415 
Q 353 922 353 1747 
Q 353 2572 751 3078 
Q 1150 3584 1784 3584 
Q 2172 3584 2448 3432 
Q 2725 3281 2906 2969 
L 2906 3500 
L 3481 3500 
L 3481 -1331 
L 2906 -1331 
L 2906 525 
z
" transform="scale(0.015625)"/>
       <path id="DejaVuSans-6e" d="M 3513 2113 
L 3513 0 
L 2938 0 
L 2938 2094 
Q 2938 2591 2744 2837 
Q 2550 3084 2163 3084 
Q 1697 3084 1428 2787 
Q 1159 2491 1159 1978 
L 1159 0 
L 581 0 
L 581 3500 
L 1159 3500 
L 1159 2956 
Q 1366 3272 1645 3428 
Q 1925 3584 2291 3584 
Q 2894 3584 3203 3211 
Q 3513 2838 3513 2113 
z
" transform="scale(0.015625)"/>
      </defs>
      <use xlink:href="#DejaVuSans-70"/>
      <use xlink:href="#DejaVuSans-72" x="63.476562"/>
      <use xlink:href="#DejaVuSans-65" x="102.339844"/>
      <use xlink:href="#DejaVuSans-64" x="163.863281"/>
      <use xlink:href="#DejaVuSans-69" x="227.339844"/>
      <use xlink:href="#DejaVuSans-63" x="255.123047"/>
      <use xlink:href="#DejaVuSans-74" x="310.103516"/>
      <use xlink:href="#DejaVuSans-65" x="349.3125"/>
      <use xlink:href="#DejaVuSans-64" x="410.835938"/>
      <use xlink:href="#DejaVuSans-20" x="474.3125"/>
      <use xlink:href="#DejaVuSans-66" x="506.099609"/>
      <use xlink:href="#DejaVuSans-72" x="541.304688"/>
      <use xlink:href="#DejaVuSans-65" x="580.167969"/>
      <use xlink:href="#DejaVuSans-71" x="641.691406"/>
      <use xlink:href="#DejaVuSans-75" x="705.167969"/>
      <use xlink:href="#DejaVuSans-65" x="768.546875"/>
      <use xlink:href="#DejaVuSans-6e" x="830.070312"/>
      <use xlink:href="#DejaVuSans-63" x="893.449219"/>
      <use xlink:href="#DejaVuSans-79" x="948.429688"/>
     </g>
    </g>
    <g id="line2d_20">
     <path d="M 127.8 162.520313 
L 149.8 162.520313 
L 171.8 162.520313 
" style="fill: none; stroke: #55a868; stroke-width: 3; stroke-linecap: round"/>
    </g>
    <g id="text_19">
     <!-- fit -->
     <g style="fill: #262626" transform="translate(189.4 170.220313)scale(0.22 -0.22)">
      <use xlink:href="#DejaVuSans-66"/>
      <use xlink:href="#DejaVuSans-69" x="35.205078"/>
      <use xlink:href="#DejaVuSans-74" x="62.988281"/>
     </g>
    </g>
   </g>
  </g>
 </g>
 <defs>
  <clipPath id="p665ee53638">
   <rect x="108" y="69.12" width="669.6" height="434.88"/>
  </clipPath>
 </defs>
</svg>
